{
.appVersion = "939";
copyright = "Copyright 2011 Google Inc. All Rights Reserved.";
customParameters = (
{
name = license;
value = "Licensed under the Apache License, Version 2.0";
},
{
name = licenseURL;
value = "http://www.apache.org/licenses/LICENSE-2.0";
},
{
name = vendorID;
value = GOOG;
},
{
name = panose;
value = (
2,
0,
0,
0,
0,
0,
0,
0,
0,
0
);
},
{
name = unicodeRanges;
value = (
0,
1,
2,
3,
4,
5,
6,
7,
9,
29,
30,
31,
32,
33,
34,
35,
36,
37,
38,
40,
45,
60,
62,
64,
69
);
},
{
name = codePageRanges;
value = (
1252,
1250,
1251,
1253,
1254,
1257,
1258
);
},
{
name = glyphOrder;
value = (
.notdef,
uni0000,
uni0002,
uni0009,
uni000D,
space,
exclam,
quotedbl,
numbersign,
dollar,
percent,
ampersand,
quotesingle,
parenleft,
parenright,
asterisk,
plus,
comma,
hyphen,
period,
slash,
zero,
one,
two,
three,
four,
five,
six,
seven,
eight,
nine,
colon,
semicolon,
less,
equal,
greater,
question,
at,
A,
B,
C,
D,
E,
F,
G,
H,
I,
J,
K,
L,
M,
N,
O,
P,
Q,
R,
S,
T,
U,
V,
W,
X,
Y,
Z,
bracketleft,
backslash,
bracketright,
asciicircum,
underscore,
grave,
a,
b,
c,
d,
e,
f,
g,
h,
i,
j,
k,
l,
m,
n,
o,
p,
q,
r,
s,
t,
u,
v,
w,
x,
y,
z,
braceleft,
bar,
braceright,
asciitilde,
exclamdown,
cent,
sterling,
currency,
yen,
brokenbar,
section,
dieresis,
copyright,
ordfeminine,
guillemotleft,
logicalnot,
registered,
macron,
degree,
plusminus,
twosuperior,
threesuperior,
acute,
mu,
paragraph,
periodcentered,
cedilla,
onesuperior,
ordmasculine,
guillemotright,
onequarter,
onehalf,
threequarters,
questiondown,
AE,
multiply,
Oslash,
Thorn,
germandbls,
ae,
eth,
divide,
oslash,
thorn,
dcroat,
Hbar,
dotlessi,
kgreenlandic,
Lslash,
lslash,
Eng,
eng,
OE,
oe,
longs,
uni0180,
uni0181,
uni0182,
uni0183,
uni0184,
uni0185,
uni0186,
uni0187,
uni0188,
uni0189,
uni018A,
uni018B,
uni018C,
uni018D,
uni018E,
uni018F,
uni0190,
uni0191,
florin,
uni0193,
uni0194,
uni0195,
uni0197,
uni0198,
uni0199,
uni019A,
uni019B,
uni019C,
uni019D,
Ohorn,
ohorn,
uni01A2,
uni01A3,
uni01A4,
uni01A5,
uni01A6,
uni01A7,
uni01A8,

glyphs = (
{
glyphname = .notdef;
lastChange = "2017-04-17 15:03:23 +0000";
layers = (
{
layerId = "8F63CED7-3680-4993-9CF4-CD4CD6484F7E";
paths = (
{
closed = 1;
nodes = (
"808 1456 LINE",
"100 1456 LINE",
"100 0 LINE",
"808 0 LINE"
);
},
{
closed = 1;
nodes = (
"452 796 LINE",
"194 1402 LINE",
"709 1402 LINE"
);
},
{
closed = 1;
nodes = (
"754 84 LINE",
"480 728 LINE",
"754 1372 LINE"
);
},
{
closed = 1;
nodes = (
"154 96 LINE",
"154 1360 LINE",
"422 728 LINE"
);
},
{
closed = 1;
nodes = (
"709 54 LINE",
"194 54 LINE",
"452 660 LINE"
);
}
);
width = 908;
}
);
note = .notdef;
},
{
glyphname = exclam;
lastChange = "2017-04-17 15:03:23 +0000";
layers = (
{
layerId = "8F63CED7-3680-4993-9CF4-CD4CD6484F7E";
paths = (
{
closed = 1;
nodes = (
"165 448 LINE",
"406 448 LINE",
"439 1456 LINE",
"132 1456 LINE"
);
},
{
closed = 1;
nodes = (
"124 51 OFFCURVE",
"187 -16 OFFCURVE",
"286 -16 CURVE SMOOTH",
"385 -16 OFFCURVE",
"448 51 OFFCURVE",
"448 136 CURVE SMOOTH",
"448 223 OFFCURVE",
"385 290 OFFCURVE",
"286 290 CURVE SMOOTH",
"187 290 OFFCURVE",
"124 223 OFFCURVE",
"124 136 CURVE SMOOTH"
);
}
);
width = 557;
}
);
note = exclam;
unicode = 0021;
},
{
glyphname = quotedbl;
lastChange = "2017-04-17 15:03:23 +0000";
layers = (
{
layerId = "8F63CED7-3680-4993-9CF4-CD4CD6484F7E";
paths = (
{
closed = 1;
nodes = (
"64 1537 LINE",
"64 987 LINE",
"227 987 LINE",
"266 1399 LINE",
"266 1537 LINE"
);
},
{
closed = 1;
nodes = (
"390 1537 LINE",
"390 987 LINE",
"552 987 LINE",
"591 1399 LINE",
"591 1537 LINE"
);
}
);
width = 657;
}
);
leftKerningGroup = quotedbl;
note = quotedbl;
rightKerningGroup = quotedbl;
unicode = 0022;
},
{
glyphname = numbersign;
lastChange = "2017-04-17 15:03:23 +0000";
layers = (
{
layerId = "8F63CED7-3680-4993-9CF4-CD4CD6484F7E";
paths = (
{
closed = 1;
nodes = (
"850 410 LINE",
"1104 410 LINE",
"1104 583 LINE",
"881 583 LINE",
"930 867 LINE",
"1180 867 LINE",
"1180 1040 LINE",
"961 1040 LINE",
"1034 1456 LINE",
"851 1456 LINE",
"778 1040 LINE",
"584 1040 LINE",
"657 1456 LINE",
"475 1456 LINE",
"402 1040 LINE",
"139 1040 LINE",
"139 867 LINE",
"371 867 LINE",
"322 583 LINE",
"64 583 LINE",
"64 410 LINE",
"291 410 LINE",
"219 0 LINE",
"402 0 LINE",
"474 410 LINE",
"667 410 LINE",
"595 0 LINE",
"778 0 LINE"
);
},
{
closed = 1;
nodes = (
"747 867 LINE",
"698 583 LINE",
"504 583 LINE",
"554 867 LINE"
);
}
);
width = 1221;
}
);
note = numbersign;
unicode = 0023;
},
{
glyphname = dollar;
lastChange = "2017-04-17 15:03:23 +0000";
layers = (
{
layerId = "8F63CED7-3680-4993-9CF4-CD4CD6484F7E";
paths = (
{
closed = 1;
nodes = (
"1080 647 OFFCURVE",
"903 751 OFFCURVE",
"644 854 CURVE SMOOTH",
"484 917 OFFCURVE",
"436 971 OFFCURVE",
"436 1070 CURVE SMOOTH",
"436 1169 OFFCURVE",
"488 1245 OFFCURVE",
"608 1245 CURVE SMOOTH",
"719 1245 OFFCURVE",
"791 1165 OFFCURVE",
"791 1006 CURVE",
"1080 1006 LINE",
"1080 1271 OFFCURVE",
"933 1438 OFFCURVE",
"702 1471 CURVE",
"702 1688 LINE",
"543 1688 LINE",
"543 1474 LINE",
"304 1449 OFFCURVE",
"147 1297 OFFCURVE",
"147 1070 CURVE SMOOTH",
"147 809 OFFCURVE",
"322 705 OFFCURVE",
"583 606 CURVE SMOOTH",
"734 549 OFFCURVE",
"791 493 OFFCURVE",
"791 384 CURVE SMOOTH",
"791 284 OFFCURVE",
"727 211 OFFCURVE",
"600 211 CURVE SMOOTH",
"491 211 OFFCURVE",
"381 268 OFFCURVE",
"381 457 CURVE",
"92 457 LINE",
"92 136 OFFCURVE",
"302 7 OFFCURVE",
"523 -17 CURVE",
"523 -215 LINE",
"682 -215 LINE",
"682 -17 LINE",
"922 10 OFFCURVE",
"1080 151 OFFCURVE",
"1080 386 CURVE SMOOTH"
);
}
);
width = 1175;
}
);
note = dollar;
unicode = 0024;
},
{
glyphname = percent;
lastChange = "2017-04-17 15:03:23 +0000";
layers = (
{
layerId = "8F63CED7-3680-4993-9CF4-CD4CD6484F7E";
paths = (
{
closed = 1;
nodes = (
"95 936 OFFCURVE",
"206 800 OFFCURVE",
"413 800 CURVE SMOOTH",
"620 800 OFFCURVE",
"727 936 OFFCURVE",
"727 1099 CURVE SMOOTH",
"727 1176 LINE SMOOTH",
"727 1341 OFFCURVE",
"620 1477 OFFCURVE",
"411 1477 CURVE SMOOTH",
"206 1477 OFFCURVE",
"95 1341 OFFCURVE",
"95 1176 CURVE SMOOTH",
"95 1099 LINE SMOOTH"
);
},
{
closed = 1;
nodes = (
"329 185 LINE",
"470 109 LINE",
"1181 1247 LINE",
"1040 1323 LINE"
);
},
{
closed = 1;
nodes = (
"288 1247 OFFCURVE",
"328 1310 OFFCURVE",
"411 1310 CURVE SMOOTH",
"495 1310 OFFCURVE",
"535 1247 OFFCURVE",
"535 1176 CURVE SMOOTH",
"535 1099 LINE SMOOTH",
"535 1030 OFFCURVE",
"496 967 OFFCURVE",
"413 967 CURVE SMOOTH",
"328 967 OFFCURVE",
"288 1030 OFFCURVE",
"288 1099 CURVE SMOOTH",
"288 1176 LINE SMOOTH"
);
},
{
closed = 1;
nodes = (
"791 116 OFFCURVE",
"903 -20 OFFCURVE",
"1110 -20 CURVE SMOOTH",
"1315 -20 OFFCURVE",
"1424 116 OFFCURVE",
"1424 280 CURVE SMOOTH",
"1424 357 LINE SMOOTH",
"1424 521 OFFCURVE",
"1316 657 OFFCURVE",
"1108 657 CURVE SMOOTH",
"903 657 OFFCURVE",
"791 521 OFFCURVE",
"791 357 CURVE SMOOTH",
"791 280 LINE SMOOTH"
);
},
{
closed = 1;
nodes = (
"984 428 OFFCURVE",
"1024 490 OFFCURVE",
"1108 490 CURVE SMOOTH",
"1191 490 OFFCURVE",
"1232 428 OFFCURVE",
"1232 357 CURVE SMOOTH",
"1232 280 LINE SMOOTH",
"1232 211 OFFCURVE",
"1205 147 OFFCURVE",
"1110 147 CURVE SMOOTH",
"1033 147 OFFCURVE",
"984 211 OFFCURVE",
"984 280 CURVE SMOOTH",
"984 357 LINE SMOOTH"
);
}
);
width = 1512;
}
);
note = percent;
unicode = 0025;
},
{
glyphname = ampersand;
lastChange = "2017-04-17 15:03:23 +0000";
layers = (
{
layerId = "8F63CED7-3680-4993-9CF4-CD4CD6484F7E";
paths = (
{
closed = 1;
nodes = (
"1102 254 LINE",
"1189 370 OFFCURVE",
"1233 523 OFFCURVE",
"1233 714 CURVE",
"987 714 LINE",
"987 621 OFFCURVE",
"967 535 OFFCURVE",
"927 458 CURVE",
"676 750 LINE",
"770 817 LINE SMOOTH",
"899 910 OFFCURVE",
"964 1017 OFFCURVE",
"964 1137 CURVE SMOOTH",
"964 1320 OFFCURVE",
"820 1477 OFFCURVE",
"593 1477 CURVE SMOOTH",
"352 1477 OFFCURVE",
"195 1324 OFFCURVE",
"195 1093 CURVE SMOOTH",
"195 984 OFFCURVE",
"249 886 OFFCURVE",
"334 771 CURVE",
"179 660 OFFCURVE",
"71 561 OFFCURVE",
"71 392 CURVE SMOOTH",
"71 151 OFFCURVE",
"253 -21 OFFCURVE",
"546 -21 CURVE SMOOTH",
"685 -21 OFFCURVE",
"809 15 OFFCURVE",
"917 86 CURVE",
"992 0 LINE",
"1320 0 LINE"
);
},
{
closed = 1;
nodes = (
"454 1178 OFFCURVE",
"501 1244 OFFCURVE",
"592 1244 CURVE SMOOTH",
"676 1244 OFFCURVE",
"724 1180 OFFCURVE",
"724 1120 CURVE SMOOTH",
"724 1063 OFFCURVE",
"697 1015 OFFCURVE",
"642 974 CURVE",
"543 909 LINE",
"484 986 OFFCURVE",
"454 1049 OFFCURVE",
"454 1098 CURVE SMOOTH"
);
},
{
closed = 1;
nodes = (
"360 464 OFFCURVE",
"374 523 OFFCURVE",
"449 588 CURVE",
"470 603 LINE",
"758 270 LINE",
"695 231 OFFCURVE",
"630 212 OFFCURVE",
"561 212 CURVE SMOOTH",
"440 212 OFFCURVE",
"360 296 OFFCURVE",
"360 409 CURVE SMOOTH"
);
}
);
width = 1344;
}
);
note = ampersand;
unicode = 0026;
},
{
glyphname = quotesingle;
lastChange = "2017-04-17 15:03:23 +0000";
layers = (
{
layerId = "8F63CED7-3680-4993-9CF4-CD4CD6484F7E";
paths = (
{
closed = 1;
nodes = (
"64 1536 LINE",
"64 986 LINE",
"246 986 LINE",
"275 1389 LINE",
"275 1536 LINE"
);
}
);
width = 332;
}
);
leftKerningGroup = quotedbl;
note = quotesingle;
rightKerningGroup = quotedbl;
unicode = 0027;
},
{
glyphname = parenleft;
lastChange = "2017-04-17 15:03:23 +0000";
layers = (
{
layerId = "8F63CED7-3680-4993-9CF4-CD4CD6484F7E";
paths = (
{
closed = 1;
nodes = (
"125 382 OFFCURVE",
"151 217 OFFCURVE",
"203 76 CURVE SMOOTH",
"306 -207 OFFCURVE",
"472 -388 OFFCURVE",
"623 -455 CURVE",
"679 -302 LINE",
"528 -187 OFFCURVE",
"369 79 OFFCURVE",
"369 567 CURVE SMOOTH",
"369 610 LINE SMOOTH",
"372 1085 OFFCURVE",
"530 1349 OFFCURVE",
"679 1461 CURVE",
"623 1617 LINE",
"548 1583 OFFCURVE",
"472 1521 OFFCURVE",
"395 1432 CURVE SMOOTH",
"242 1252 OFFCURVE",
"125 968 OFFCURVE",
"125 592 CURVE SMOOTH",
"125 569 LINE SMOOTH"
);
}
);
width = 719;
}
);
note = parenleft;
unicode = 0028;
},
{
glyphname = parenright;
lastChange = "2017-04-17 15:03:23 +0000";
layers = (
{
layerId = "8F63CED7-3680-4993-9CF4-CD4CD6484F7E";
paths = (
{
closed = 1;
nodes = (
"610 773 OFFCURVE",
"583 935 OFFCURVE",
"530 1077 CURVE SMOOTH",
"423 1360 OFFCURVE",
"251 1549 OFFCURVE",
"96 1617 CURVE",
"40 1463 LINE",
"185 1352 OFFCURVE",
"350 1082 OFFCURVE",
"350 594 CURVE SMOOTH",
"350 551 LINE SMOOTH",
"347 76 OFFCURVE",
"188 -191 OFFCURVE",
"40 -302 CURVE",
"96 -455 LINE",
"173 -422 OFFCURVE",
"252 -359 OFFCURVE",
"331 -266 CURVE SMOOTH",
"490 -82 OFFCURVE",
"610 206 OFFCURVE",
"610 569 CURVE SMOOTH",
"610 591 LINE SMOOTH"
);
}
);
width = 722;
}
);
note = parenright;
unicode = 0029;
},
{
glyphname = asterisk;
lastChange = "2017-04-17 15:03:23 +0000";
layers = (
{
layerId = "8F63CED7-3680-4993-9CF4-CD4CD6484F7E";
paths = (
{
closed = 1;
nodes = (
"465 864 LINE",
"647 573 LINE",
"805 686 LINE",
"596 951 LINE",
"916 1040 LINE",
"857 1223 LINE",
"553 1101 LINE",
"573 1456 LINE",
"378 1456 LINE",
"397 1108 LINE",
"87 1233 LINE",
"27 1052 LINE",
"342 963 LINE",
"125 691 LINE",
"284 582 LINE"
);
}
);
width = 929;
}
);
note = asterisk;
unicode = 002A;
},
{
glyphname = plus;
lastChange = "2017-04-17 15:03:23 +0000";
layers = (
{
layerId = "8F63CED7-3680-4993-9CF4-CD4CD6484F7E";
paths = (
{
closed = 1;
nodes = (
"694 816 LINE",
"694 1206 LINE",
"420 1206 LINE",
"420 816 LINE",
"57 816 LINE",
"57 555 LINE",
"420 555 LINE",
"420 146 LINE",
"694 146 LINE",
"694 555 LINE",
"1055 555 LINE",
"1055 816 LINE"
);
}
);
width = 1118;
}
);
note = plus;
unicode = 002B;
},
{
glyphname = comma;
lastChange = "2017-04-17 15:03:23 +0000";
layers = (
{
layerId = "8F63CED7-3680-4993-9CF4-CD4CD6484F7E";
paths = (
{
closed = 1;
nodes = (
"140 28 LINE SMOOTH",
"139 -109 OFFCURVE",
"88 -191 OFFCURVE",
"36 -287 CURVE",
"186 -366 LINE",
"301 -267 OFFCURVE",
"382 -105 OFFCURVE",
"383 46 CURVE SMOOTH",
"384 246 LINE",
"140 246 LINE"
);
}
);
width = 501;
}
);
leftKerningGroup = comma;
note = comma;
rightKerningGroup = comma;
unicode = 002C;
},
{
glyphname = hyphen;
lastChange = "2017-04-17 15:03:23 +0000";
layers = (
{
layerId = "8F63CED7-3680-4993-9CF4-CD4CD6484F7E";
paths = (
{
closed = 1;
nodes = (
"111 507 LINE",
"673 507 LINE",
"673 741 LINE",
"111 741 LINE"
);
}
);
width = 795;
}
);
leftKerningGroup = hyphen;
note = hyphen;
unicode = 002D;
},
{
glyphname = period;
lastChange = "2017-04-17 15:03:23 +0000";
layers = (
{
layerId = "8F63CED7-3680-4993-9CF4-CD4CD6484F7E";
paths = (
{
closed = 1;
nodes = (
"126 56 OFFCURVE",
"190 -11 OFFCURVE",
"290 -11 CURVE SMOOTH",
"390 -11 OFFCURVE",
"453 56 OFFCURVE",
"453 143 CURVE SMOOTH",
"453 231 OFFCURVE",
"390 298 OFFCURVE",
"290 298 CURVE SMOOTH",
"190 298 OFFCURVE",
"126 231 OFFCURVE",
"126 143 CURVE SMOOTH"
);
}
);
width = 596;
}
);
leftKerningGroup = comma;
note = period;
rightKerningGroup = comma;
unicode = 002E;
},
{
glyphname = slash;
lastChange = "2017-04-17 15:03:23 +0000";
layers = (
{
layerId = "8F63CED7-3680-4993-9CF4-CD4CD6484F7E";
paths = (
{
closed = 1;
nodes = (
"-13 -125 LINE",
"202 -125 LINE",
"738 1456 LINE",
"523 1456 LINE"
);
}
);
width = 766;
}
);
note = slash;
unicode = 002F;
},
{
glyphname = zero;
lastChange = "2017-04-17 15:03:23 +0000";
layers = (
{
layerId = "8F63CED7-3680-4993-9CF4-CD4CD6484F7E";
paths = (
{
closed = 1;
nodes = (
"1078 1294 OFFCURVE",
"879 1476 OFFCURVE",
"587 1476 CURVE SMOOTH",
"294 1476 OFFCURVE",
"96 1293 OFFCURVE",
"96 856 CURVE SMOOTH",
"96 603 LINE SMOOTH",
"96 164 OFFCURVE",
"296 -20 OFFCURVE",
"589 -20 CURVE SMOOTH",
"882 -20 OFFCURVE",
"1079 164 OFFCURVE",
"1079 603 CURVE SMOOTH",
"1079 861 LINE"
);
},
{
closed = 1;
nodes = (
"789 303 OFFCURVE",
"716 213 OFFCURVE",
"589 213 CURVE SMOOTH",
"460 213 OFFCURVE",
"385 304 OFFCURVE",
"385 564 CURVE SMOOTH",
"385 904 LINE SMOOTH",
"386 1156 OFFCURVE",
"460 1243 OFFCURVE",
"587 1243 CURVE SMOOTH",
"716 1243 OFFCURVE",
"790 1155 OFFCURVE",
"790 896 CURVE SMOOTH",
"790 556 LINE SMOOTH"
);
}
);
width = 1175;
}
);
note = zero;
unicode = 0030;
},
{
glyphname = one;
lastChange = "2017-04-17 15:03:23 +0000";
layers = (
{
layerId = "8F63CED7-3680-4993-9CF4-CD4CD6484F7E";
paths = (
{
closed = 1;
nodes = (
"168 1242 LINE",
"168 1008 LINE",
"512 1115 LINE",
"512 0 LINE",
"801 0 LINE",
"801 1458 LINE",
"770 1458 LINE"
);
}
);
width = 1175;
}
);
note = one;
unicode = 0031;
},
{
glyphname = two;
lastChange = "2017-04-17 15:03:23 +0000";
layers = (
{
layerId = "8F63CED7-3680-4993-9CF4-CD4CD6484F7E";
paths = (
{
closed = 1;
nodes = (
"731 506 LINE SMOOTH",
"928 713 OFFCURVE",
"1050 872 OFFCURVE",
"1050 1064 CURVE SMOOTH",
"1050 1320 OFFCURVE",
"882 1477 OFFCURVE",
"577 1477 CURVE SMOOTH",
"264 1477 OFFCURVE",
"71 1261 OFFCURVE",
"71 998 CURVE",
"360 998 LINE",
"360 1139 OFFCURVE",
"435 1244 OFFCURVE",
"572 1244 CURVE SMOOTH",
"693 1244 OFFCURVE",
"760 1164 OFFCURVE",
"760 1035 CURVE SMOOTH",
"760 948 OFFCURVE",
"712 856 OFFCURVE",
"571 700 CURVE SMOOTH",
"100 198 LINE",
"100 0 LINE",
"1097 0 LINE",
"1097 233 LINE",
"471 233 LINE"
);
}
);
width = 1175;
}
);
note = two;
unicode = 0032;
},
{
glyphname = three;
lastChange = "2017-04-17 15:03:23 +0000";
layers = (
{
layerId = "8F63CED7-3680-4993-9CF4-CD4CD6484F7E";
paths = (
{
closed = 1;
nodes = (
"706 630 OFFCURVE",
"786 558 OFFCURVE",
"786 413 CURVE SMOOTH",
"786 293 OFFCURVE",
"704 213 OFFCURVE",
"567 213 CURVE SMOOTH",
"444 213 OFFCURVE",
"354 291 OFFCURVE",
"354 399 CURVE",
"64 399 LINE",
"64 304 OFFCURVE",
"88 225 OFFCURVE",
"137 163 CURVE SMOOTH",
"233 39 OFFCURVE",
"395 -20 OFFCURVE",
"559 -20 CURVE SMOOTH",
"854 -20 OFFCURVE",
"1075 136 OFFCURVE",
"1075 409 CURVE SMOOTH",
"1075 568 OFFCURVE",
"994 691 OFFCURVE",
"831 748 CURVE",
"972 813 OFFCURVE",
"1053 937 OFFCURVE",
"1053 1062 CURVE SMOOTH",
"1053 1334 OFFCURVE",
"854 1477 OFFCURVE",
"559 1477 CURVE SMOOTH",
"294 1477 OFFCURVE",
"82 1319 OFFCURVE",
"82 1079 CURVE",
"371 1079 LINE",
"371 1182 OFFCURVE",
"462 1244 OFFCURVE",
"567 1244 CURVE SMOOTH",
"700 1244 OFFCURVE",
"764 1166 OFFCURVE",
"764 1058 CURVE SMOOTH",
"764 935 OFFCURVE",
"693 857 OFFCURVE",
"548 857 CURVE SMOOTH",
"394 857 LINE",
"394 630 LINE",
"546 630 LINE SMOOTH"
);
}
);
width = 1175;
}
);
note = three;
unicode = 0033;
},
{
glyphname = four;
lastChange = "2017-04-17 15:03:23 +0000";
layers = (
{
layerId = "8F63CED7-3680-4993-9CF4-CD4CD6484F7E";
paths = (
{
closed = 1;
nodes = (
"666 315 LINE",
"666 0 LINE",
"955 0 LINE",
"955 315 LINE",
"1120 315 LINE",
"1120 548 LINE",
"955 548 LINE",
"955 1456 LINE",
"663 1456 LINE",
"56 497 LINE",
"69 315 LINE"
);
},
{
closed = 1;
nodes = (
"666 1065 LINE",
"666 548 LINE",
"343 548 LINE",
"646 1030 LINE"
);
}
);
width = 1175;
}
);
note = four;
unicode = 0034;
},
{
glyphname = five;
lastChange = "2017-04-17 15:03:23 +0000";
layers = (
{
layerId = "8F63CED7-3680-4993-9CF4-CD4CD6484F7E";
paths = (
{
closed = 1;
nodes = (
"412 699 OFFCURVE",
"462 740 OFFCURVE",
"567 740 CURVE SMOOTH",
"727 740 OFFCURVE",
"801 637 OFFCURVE",
"801 484 CURVE SMOOTH",
"801 332 OFFCURVE",
"742 213 OFFCURVE",
"597 213 CURVE SMOOTH",
"473 213 OFFCURVE",
"405 277 OFFCURVE",
"392 406 CURVE",
"106 406 LINE",
"113 137 OFFCURVE",
"347 -20 OFFCURVE",
"599 -20 CURVE SMOOTH",
"934 -20 OFFCURVE",
"1090 209 OFFCURVE",
"1090 468 CURVE SMOOTH",
"1090 776 OFFCURVE",
"929 957 OFFCURVE",
"646 957 CURVE SMOOTH",
"567 957 OFFCURVE",
"495 939 OFFCURVE",
"428 902 CURVE",
"464 1216 LINE",
"1042 1216 LINE",
"1042 1456 LINE",
"226 1456 LINE",
"143 716 LINE",
"373 660 LINE"
);
}
);
width = 1175;
}
);
note = five;
unicode = 0035;
},
{
glyphname = six;
lastChange = "2017-04-17 15:03:23 +0000";
layers = (
{
layerId = "8F63CED7-3680-4993-9CF4-CD4CD6484F7E";
paths = (
{
closed = 1;
nodes = (
"1104 749 OFFCURVE",
"965 975 OFFCURVE",
"690 975 CURVE SMOOTH",
"572 975 OFFCURVE",
"474 935 OFFCURVE",
"396 856 CURVE",
"428 1088 OFFCURVE",
"590 1229 OFFCURVE",
"855 1233 CURVE SMOOTH",
"884 1233 LINE",
"884 1471 LINE",
"843 1471 LINE SMOOTH",
"374 1471 OFFCURVE",
"101 1142 OFFCURVE",
"101 671 CURVE SMOOTH",
"101 560 LINE SMOOTH",
"101 219 OFFCURVE",
"302 -20 OFFCURVE",
"613 -20 CURVE SMOOTH",
"912 -20 OFFCURVE",
"1104 197 OFFCURVE",
"1104 480 CURVE SMOOTH"
);
},
{
closed = 1;
nodes = (
"423 682 OFFCURVE",
"499 743 OFFCURVE",
"602 743 CURVE SMOOTH",
"735 743 OFFCURVE",
"815 632 OFFCURVE",
"815 477 CURVE SMOOTH",
"815 325 OFFCURVE",
"733 214 OFFCURVE",
"608 214 CURVE SMOOTH",
"479 214 OFFCURVE",
"390 317 OFFCURVE",
"390 522 CURVE SMOOTH",
"390 609 LINE"
);
}
);
width = 1175;
}
);
note = six;
unicode = 0036;
},
{
glyphname = seven;
lastChange = "2017-04-17 15:03:23 +0000";
layers = (
{
layerId = "8F63CED7-3680-4993-9CF4-CD4CD6484F7E";
paths = (
{
closed = 1;
nodes = (
"61 1223 LINE",
"785 1223 LINE",
"222 0 LINE",
"527 0 LINE",
"1090 1295 LINE",
"1090 1456 LINE",
"61 1456 LINE"
);
}
);
width = 1175;
}
);
note = seven;
unicode = 0037;
},
{
glyphname = eight;
lastChange = "2017-04-17 15:03:23 +0000";
layers = (
{
layerId = "8F63CED7-3680-4993-9CF4-CD4CD6484F7E";
paths = (
{
closed = 1;
nodes = (
"1078 560 OFFCURVE",
"989 683 OFFCURVE",
"849 750 CURVE",
"972 815 OFFCURVE",
"1048 928 OFFCURVE",
"1048 1069 CURVE SMOOTH",
"1048 1333 OFFCURVE",
"857 1477 OFFCURVE",
"586 1477 CURVE SMOOTH",
"319 1477 OFFCURVE",
"126 1333 OFFCURVE",
"126 1069 CURVE SMOOTH",
"126 929 OFFCURVE",
"201 815 OFFCURVE",
"324 751 CURVE",
"184 684 OFFCURVE",
"94 560 OFFCURVE",
"94 399 CURVE SMOOTH",
"94 124 OFFCURVE",
"307 -20 OFFCURVE",
"588 -20 CURVE SMOOTH",
"869 -20 OFFCURVE",
"1078 124 OFFCURVE",
"1078 399 CURVE SMOOTH"
);
},
{
closed = 1;
nodes = (
"759 940 OFFCURVE",
"697 863 OFFCURVE",
"588 863 CURVE SMOOTH",
"479 863 OFFCURVE",
"415 940 OFFCURVE",
"415 1055 CURVE SMOOTH",
"415 1172 OFFCURVE",
"479 1244 OFFCURVE",
"586 1244 CURVE SMOOTH",
"695 1244 OFFCURVE",
"759 1168 OFFCURVE",
"759 1055 CURVE SMOOTH"
);
},
{
closed = 1;
nodes = (
"789 291 OFFCURVE",
"711 213 OFFCURVE",
"588 213 CURVE SMOOTH",
"464 213 OFFCURVE",
"384 291 OFFCURVE",
"384 420 CURVE SMOOTH",
"384 551 OFFCURVE",
"465 630 OFFCURVE",
"586 630 CURVE SMOOTH",
"707 630 OFFCURVE",
"789 551 OFFCURVE",
"789 420 CURVE SMOOTH"
);
}
);
width = 1175;
}
);
note = eight;
unicode = 0038;
},
{
glyphname = nine;
lastChange = "2017-04-17 15:03:23 +0000";
layers = (
{
layerId = "8F63CED7-3680-4993-9CF4-CD4CD6484F7E";
paths = (
{
closed = 1;
nodes = (
"1069 1239 OFFCURVE",
"875 1477 OFFCURVE",
"575 1477 CURVE SMOOTH",
"278 1477 OFFCURVE",
"87 1245 OFFCURVE",
"87 962 CURVE SMOOTH",
"87 682 OFFCURVE",
"238 471 OFFCURVE",
"511 471 CURVE SMOOTH",
"611 471 OFFCURVE",
"700 508 OFFCURVE",
"777 583 CURVE",
"754 354 OFFCURVE",
"617 228 OFFCURVE",
"328 227 CURVE SMOOTH",
"304 227 LINE",
"304 -15 LINE",
"340 -15 LINE SMOOTH",
"828 -10 OFFCURVE",
"1069 309 OFFCURVE",
"1069 782 CURVE SMOOTH",
"1069 882 LINE SMOOTH"
);
},
{
closed = 1;
nodes = (
"375 1108 OFFCURVE",
"447 1243 OFFCURVE",
"574 1243 CURVE SMOOTH",
"691 1243 OFFCURVE",
"780 1142 OFFCURVE",
"780 935 CURVE SMOOTH",
"780 818 LINE",
"747 749 OFFCURVE",
"677 693 OFFCURVE",
"582 693 CURVE SMOOTH",
"442 693 OFFCURVE",
"375 816 OFFCURVE",
"375 965 CURVE SMOOTH"
);
}
);
width = 1175;
}
);
note = nine;
unicode = 0039;
},
{
glyphname = colon;
lastChange = "2017-04-17 15:03:23 +0000";
layers = (
{
layerId = "8F63CED7-3680-4993-9CF4-CD4CD6484F7E";
paths = (
{
closed = 1;
nodes = (
"124 56 OFFCURVE",
"188 -11 OFFCURVE",
"288 -11 CURVE SMOOTH",
"388 -11 OFFCURVE",
"451 56 OFFCURVE",
"451 143 CURVE SMOOTH",
"451 231 OFFCURVE",
"388 298 OFFCURVE",
"288 298 CURVE SMOOTH",
"188 298 OFFCURVE",
"124 231 OFFCURVE",
"124 143 CURVE SMOOTH"
);
},
{
closed = 1;
nodes = (
"124 875 OFFCURVE",
"188 808 OFFCURVE",
"288 808 CURVE SMOOTH",
"388 808 OFFCURVE",
"451 875 OFFCURVE",
"451 962 CURVE SMOOTH",
"451 1050 OFFCURVE",
"388 1117 OFFCURVE",
"288 1117 CURVE SMOOTH",
"188 1117 OFFCURVE",
"124 1050 OFFCURVE",
"124 962 CURVE SMOOTH"
);
}
);
width = 578;
}
);
note = colon;
unicode = 003A;
},
{
glyphname = semicolon;
lastChange = "2017-04-17 15:03:23 +0000";
layers = (
{
layerId = "8F63CED7-3680-4993-9CF4-CD4CD6484F7E";
paths = (
{
closed = 1;
nodes = (
"107 875 OFFCURVE",
"171 808 OFFCURVE",
"271 808 CURVE SMOOTH",
"371 808 OFFCURVE",
"434 875 OFFCURVE",
"434 962 CURVE SMOOTH",
"434 1050 OFFCURVE",
"371 1117 OFFCURVE",
"271 1117 CURVE SMOOTH",
"171 1117 OFFCURVE",
"107 1050 OFFCURVE",
"107 962 CURVE SMOOTH"
);
},
{
closed = 1;
nodes = (
"162 28 LINE SMOOTH",
"161 -109 OFFCURVE",
"110 -191 OFFCURVE",
"58 -287 CURVE",
"208 -366 LINE",
"323 -267 OFFCURVE",
"404 -105 OFFCURVE",
"405 46 CURVE SMOOTH",
"406 246 LINE",
"162 246 LINE"
);
}
);
width = 537;
}
);
note = semicolon;
unicode = 003B;
},
{
glyphname = less;
lastChange = "2017-04-17 15:03:23 +0000";
layers = (
{
layerId = "8F63CED7-3680-4993-9CF4-CD4CD6484F7E";
paths = (
{
closed = 1;
nodes = (
"347 619 LINE",
"915 824 LINE",
"915 1103 LINE",
"55 738 LINE",
"55 503 LINE",
"915 137 LINE",
"915 418 LINE"
);
}
);
width = 1043;
}
);
note = less;
unicode = 003C;
},
{
glyphname = equal;
lastChange = "2017-04-17 15:03:23 +0000";
layers = (
{
layerId = "8F63CED7-3680-4993-9CF4-CD4CD6484F7E";
paths = (
{
closed = 1;
nodes = (
"137 746 LINE",
"1031 746 LINE",
"1031 982 LINE",
"137 982 LINE"
);
},
{
closed = 1;
nodes = (
"137 314 LINE",
"1031 314 LINE",
"1031 549 LINE",
"137 549 LINE"
);
}
);
width = 1172;
}
);
note = equal;
unicode = 003D;
},
{
glyphname = greater;
lastChange = "2017-04-17 15:03:23 +0000";
layers = (
{
layerId = "8F63CED7-3680-4993-9CF4-CD4CD6484F7E";
paths = (
{
closed = 1;
nodes = (
"701 623 LINE",
"120 415 LINE",
"120 137 LINE",
"992 502 LINE",
"992 738 LINE",
"120 1103 LINE",
"120 825 LINE"
);
}
);
width = 1058;
}
);
note = greater;
unicode = 003E;
},
{
glyphname = question;
lastChange = "2017-04-17 15:03:23 +0000";
layers = (
{
layerId = "8F63CED7-3680-4993-9CF4-CD4CD6484F7E";
paths = (
{
closed = 1;
nodes = (
"606 549 OFFCURVE",
"626 619 OFFCURVE",
"701 686 CURVE SMOOTH",
"832 809 OFFCURVE",
"946 909 OFFCURVE",
"946 1084 CURVE SMOOTH",
"946 1336 OFFCURVE",
"780 1476 OFFCURVE",
"500 1476 CURVE SMOOTH",
"247 1476 OFFCURVE",
"50 1347 OFFCURVE",
"46 1070 CURVE",
"336 1070 LINE",
"339 1190 OFFCURVE",
"417 1240 OFFCURVE",
"500 1240 CURVE SMOOTH",
"605 1240 OFFCURVE",
"657 1184 OFFCURVE",
"657 1071 CURVE SMOOTH",
"657 987 OFFCURVE",
"616 931 OFFCURVE",
"501 830 CURVE SMOOTH",
"386 729 OFFCURVE",
"348 631 OFFCURVE",
"347 448 CURVE",
"603 448 LINE"
);
},
{
closed = 1;
nodes = (
"319 54 OFFCURVE",
"381 -12 OFFCURVE",
"480 -12 CURVE SMOOTH",
"579 -12 OFFCURVE",
"642 54 OFFCURVE",
"642 141 CURVE SMOOTH",
"642 228 OFFCURVE",
"579 294 OFFCURVE",
"480 294 CURVE SMOOTH",
"381 294 OFFCURVE",
"319 228 OFFCURVE",
"319 141 CURVE SMOOTH"
);
}
);
width = 1020;
}
);
note = question;
unicode = 003F;
},
{
glyphname = at;
lastChange = "2017-04-17 15:03:23 +0000";
layers = (
{
layerId = "8F63CED7-3680-4993-9CF4-CD4CD6484F7E";
paths = (
{
closed = 1;
nodes = (
"1141 -250 OFFCURVE",
"1011 -279 OFFCURVE",
"894 -279 CURVE SMOOTH",
"689 -279 OFFCURVE",
"533 -216 OFFCURVE",
"425 -90 CURVE SMOOTH",
"209 162 OFFCURVE",
"262 631 OFFCURVE",
"374 869 CURVE SMOOTH",
"485 1107 OFFCURVE",
"687 1253 OFFCURVE",
"959 1253 CURVE SMOOTH",
"1396 1253 OFFCURVE",
"1588 968 OFFCURVE",
"1567 529 CURVE SMOOTH",
"1559 310 OFFCURVE",
"1476 141 OFFCURVE",
"1345 141 CURVE SMOOTH",
"1286 141 OFFCURVE",
"1226 171 OFFCURVE",
"1239 304 CURVE SMOOTH",
"1291 881 LINE",
"1210 938 OFFCURVE",
"1138 990 OFFCURVE",
"983 990 CURVE SMOOTH",
"748 990 OFFCURVE",
"555 772 OFFCURVE",
"518 431 CURVE SMOOTH",
"493 160 OFFCURVE",
"610 -18 OFFCURVE",
"805 -18 CURVE SMOOTH",
"912 -18 OFFCURVE",
"999 29 OFFCURVE",
"1066 123 CURVE",
"1111 27 OFFCURVE",
"1192 -21 OFFCURVE",
"1309 -21 CURVE SMOOTH",
"1410 -21 OFFCURVE",
"1493 7 OFFCURVE",
"1556 62 CURVE SMOOTH",
"1682 172 OFFCURVE",
"1739 354 OFFCURVE",
"1746 537 CURVE SMOOTH",
"1769 1064 OFFCURVE",
"1484 1416 OFFCURVE",
"963 1416 CURVE SMOOTH",
"790 1416 OFFCURVE",
"639 1375 OFFCURVE",
"510 1292 CURVE SMOOTH",
"252 1126 OFFCURVE",
"99 827 OFFCURVE",
"83 463 CURVE SMOOTH",
"62 -130 OFFCURVE",
"362 -453 OFFCURVE",
"890 -453 CURVE SMOOTH",
"1014 -453 OFFCURVE",
"1170 -424 OFFCURVE",
"1263 -364 CURVE",
"1225 -210 LINE"
);
},
{
closed = 1;
nodes = (
"765 686 OFFCURVE",
"853 814 OFFCURVE",
"1002 814 CURVE SMOOTH",
"1029 814 OFFCURVE",
"1056 810 OFFCURVE",
"1082 801 CURVE",
"1040 332 LINE",
"995 197 OFFCURVE",
"922 162 OFFCURVE",
"873 162 CURVE SMOOTH",
"769 162 OFFCURVE",
"725 252 OFFCURVE",
"740 431 CURVE SMOOTH"
);
}
);
width = 1833;
}
);
note = at;
unicode = 0040;
},
{
glyphname = A;
lastChange = "2017-05-28 07:53:46 +0000";
layers = (
{
hints = (
{
horizontal = 1;
origin = "{0, 0}";
type = Anchor;
},
{
horizontal = 1;
origin = "{0, 1}";
type = Anchor;
},
{
horizontal = 1;
origin = "{0, 2}";
type = Anchor;
},
{
horizontal = 1;
origin = "{0, 3}";
type = Anchor;
},
{
horizontal = 1;
origin = "{0, 4}";
type = Anchor;
},
{
horizontal = 1;
origin = "{0, 5}";
type = Anchor;
},
{
horizontal = 1;
origin = "{0, 6}";
type = Anchor;
},
{
horizontal = 1;
origin = "{0, 7}";
type = Anchor;
},
{
horizontal = 1;
origin = "{1, 0}";
type = Anchor;
},
{
horizontal = 1;
origin = "{1, 1}";
type = Anchor;
},
{
horizontal = 1;
origin = "{1, 2}";
type = Anchor;
}
);
layerId = "8F63CED7-3680-4993-9CF4-CD4CD6484F7E";
paths = (
{
closed = 1;
nodes = (
"426 300 LINE",
"953 300 LINE",
"1053 0 LINE",
"1373 0 LINE",
"828 1456 LINE",
"550 1456 LINE",
"8 0 LINE",
"326 0 LINE"
);
},
{
closed = 1;
nodes = (
"872 543 LINE",
"507 543 LINE",
"690 1090 LINE"
);
}
);
width = 1379;
}
);
leftKerningGroup = A;
note = A;
rightKerningGroup = A;
unicode = 0041;
},
{
glyphname = B;
lastChange = "2017-05-28 07:54:36 +0000";
layers = (
{
hints = (
{
horizontal = 1;
origin = "{0, 0}";
type = Anchor;
},
{
horizontal = 1;
origin = "{0, 1}";
type = Anchor;
},
{
horizontal = 1;
origin = "{0, 2}";
type = Anchor;
},
{
horizontal = 1;
origin = "{0, 3}";
type = Anchor;
},
{
horizontal = 1;
origin = "{0, 4}";
type = Anchor;
},
{
horizontal = 1;
origin = "{0, 5}";
type = Anchor;
},
{
horizontal = 1;
origin = "{0, 6}";
type = Anchor;
},
{
horizontal = 1;
origin = "{0, 7}";
type = Anchor;
},
{
horizontal = 1;
origin = "{0, 8}";
type = Anchor;
},
{
horizontal = 1;
origin = "{0, 9}";
type = Anchor;
},
{
horizontal = 1;
origin = "{0, 10}";
type = Anchor;
},
{
horizontal = 1;
origin = "{0, 11}";
type = Anchor;
},
{
horizontal = 1;
origin = "{0, 12}";
type = Anchor;
},
{
horizontal = 1;
origin = "{0, 13}";
type = Anchor;
},
{
horizontal = 1;
origin = "{0, 14}";
type = Anchor;
},
{
horizontal = 1;
origin = "{1, 0}";
type = Anchor;
},
{
horizontal = 1;
origin = "{1, 1}";
type = Anchor;
},
{
horizontal = 1;
origin = "{1, 2}";
type = Anchor;
},
{
horizontal = 1;
origin = "{1, 3}";
type = Anchor;
},
{
horizontal = 1;
origin = "{1, 4}";
type = Anchor;
},
{
horizontal = 1;
origin = "{1, 5}";
type = Anchor;
},
{
horizontal = 1;
origin = "{1, 6}";
type = Anchor;
},
{
horizontal = 1;
origin = "{1, 7}";
type = Anchor;
},
{
horizontal = 1;
origin = "{1, 8}";
type = Anchor;
},
{
horizontal = 1;
origin = "{2, 0}";
type = Anchor;
},
{
horizontal = 1;
origin = "{2, 1}";
type = Anchor;
},
{
horizontal = 1;
origin = "{2, 2}";
type = Anchor;
},
{
horizontal = 1;
origin = "{2, 3}";
type = Anchor;
},
{
horizontal = 1;
origin = "{2, 4}";
type = Anchor;
},
{
horizontal = 1;
origin = "{2, 5}";
type = Anchor;
},
{
horizontal = 1;
origin = "{2, 6}";
type = Anchor;
},
{
horizontal = 1;
origin = "{2, 7}";
type = Anchor;
},
{
horizontal = 1;
origin = "{2, 8}";
type = Anchor;
},
{
horizontal = 1;
origin = "{1, 0}";
type = Delta;
settings = {
deltaV = {
"{100, 100, 0, 0, 0}" = {
"12" = 4;
};
};
};
},
{
horizontal = 1;
origin = "{1, 7}";
type = Delta;
settings = {
deltaV = {
"{100, 100, 0, 0, 0}" = {
"12" = 4;
};
};
};
},
{
horizontal = 1;
origin = "{1, 8}";
type = Delta;
settings = {
deltaV = {
"{100, 100, 0, 0, 0}" = {
"12" = 4;
};
};
};
},
{
horizontal = 1;
origin = "{1, 7}";
type = Delta;
settings = {
deltaV = {
"{100, 100, 0, 0, 0}" = {
"12" = 4;
};
};
};
}
);
layerId = "8F63CED7-3680-4993-9CF4-CD4CD6484F7E";
paths = (
{
closed = 1;
nodes = (
"1212 569 OFFCURVE",
"1143 707 OFFCURVE",
"972 750 CURVE",
"1116 807 OFFCURVE",
"1180 926 OFFCURVE",
"1180 1058 CURVE SMOOTH",
"1180 1330 OFFCURVE",
"978 1456 OFFCURVE",
"641 1456 CURVE SMOOTH",
"130 1456 LINE",
"130 0 LINE",
"696 0 LINE SMOOTH",
"1027 3 OFFCURVE",
"1212 149 OFFCURVE",
"1212 429 CURVE SMOOTH"
);
},
{
closed = 1;
nodes = (
"803 1210 OFFCURVE",
"879 1148 OFFCURVE",
"879 1027 CURVE SMOOTH",
"879 907 OFFCURVE",
"800 847 OFFCURVE",
"641 847 CURVE SMOOTH",
"431 847 LINE",
"431 1213 LINE",
"651 1213 LINE SMOOTH"
);
},
{
closed = 1;
nodes = (
"912 323 OFFCURVE",
"840 242 OFFCURVE",
"687 242 CURVE SMOOTH",
"431 242 LINE",
"431 635 LINE",
"714 635 LINE",
"846 630 OFFCURVE",
"912 563 OFFCURVE",
"912 432 CURVE SMOOTH"
);
}
);
width = 1307;
}
);
note = B;
rightKerningGroup = B;
unicode = 0042;
},
{
glyphname = C;
lastChange = "2017-05-28 07:54:47 +0000";
layers = (
{
hints = (
{
horizontal = 1;
origin = "{0, 0}";
type = Anchor;
},
{
horizontal = 1;
origin = "{0, 1}";
type = Anchor;
},
{
horizontal = 1;
origin = "{0, 2}";
type = Anchor;
},
{
horizontal = 1;
origin = "{0, 3}";
type = Anchor;
},
{
horizontal = 1;
origin = "{0, 4}";
type = Anchor;
},
{
horizontal = 1;
origin = "{0, 5}";
type = Anchor;
},
{
horizontal = 1;
origin = "{0, 6}";
type = Anchor;
},
{
horizontal = 1;
origin = "{0, 7}";
type = Anchor;
},
{
horizontal = 1;
origin = "{0, 8}";
type = Anchor;
},
{
horizontal = 1;
origin = "{0, 9}";
type = Anchor;
},
{
horizontal = 1;
origin = "{0, 10}";
type = Anchor;
},
{
horizontal = 1;
origin = "{0, 11}";
type = Anchor;
},
{
horizontal = 1;
origin = "{0, 12}";
type = Anchor;
},
{
horizontal = 1;
origin = "{0, 13}";
type = Anchor;
},
{
horizontal = 1;
origin = "{0, 14}";
type = Anchor;
},
{
horizontal = 1;
origin = "{0, 15}";
type = Anchor;
},
{
horizontal = 1;
origin = "{0, 16}";
type = Anchor;
},
{
horizontal = 1;
origin = "{0, 17}";
type = Anchor;
},
{
horizontal = 1;
origin = "{0, 18}";
type = Anchor;
},
{
horizontal = 1;
origin = "{0, 19}";
type = Anchor;
},
{
horizontal = 1;
origin = "{0, 20}";
type = Anchor;
},
{
horizontal = 1;
origin = "{0, 21}";
type = Anchor;
},
{
horizontal = 1;
origin = "{0, 22}";
type = Anchor;
},
{
horizontal = 1;
origin = "{0, 23}";
type = Anchor;
},
{
horizontal = 1;
origin = "{0, 24}";
type = Anchor;
},
{
horizontal = 1;
origin = "{0, 25}";
type = Anchor;
},
{
horizontal = 1;
origin = "{0, 26}";
type = Anchor;
},
{
horizontal = 1;
origin = "{0, 27}";
type = Anchor;
},
{
horizontal = 1;
origin = "{0, 9}";
type = Delta;
settings = {
deltaV = {
"{100, 100, 0, 0, 0}" = {
"12" = 8;
};
};
};
},
{
horizontal = 1;
origin = "{0, 10}";
type = Delta;
settings = {
deltaV = {
"{100, 100, 0, 0, 0}" = {
"12" = 8;
};
};
};
},
{
horizontal = 1;
origin = "{0, 8}";
type = Delta;
settings = {
deltaV = {
"{100, 100, 0, 0, 0}" = {
"12" = 8;
};
};
};
}
);
layerId = "8F63CED7-3680-4993-9CF4-CD4CD6484F7E";
paths = (
{
closed = 1;
nodes = (
"959 312 OFFCURVE",
"877 226 OFFCURVE",
"688 226 CURVE SMOOTH",
"475 226 OFFCURVE",
"391 379 OFFCURVE",
"391 680 CURVE SMOOTH",
"391 800 LINE SMOOTH",
"396 1087 OFFCURVE",
"496 1231 OFFCURVE",
"691 1231 CURVE SMOOTH",
"890 1231 OFFCURVE",
"962 1135 OFFCURVE",
"975 962 CURVE",
"1275 962 LINE",
"1247 1261 OFFCURVE",
"1055 1477 OFFCURVE",
"691 1477 CURVE SMOOTH",
"324 1477 OFFCURVE",
"86 1206 OFFCURVE",
"86 775 CURVE SMOOTH",
"86 680 LINE SMOOTH",
"86 249 OFFCURVE",
"315 -20 OFFCURVE",
"688 -20 CURVE SMOOTH",
"1045 -20 OFFCURVE",
"1254 189 OFFCURVE",
"1274 485 CURVE",
"974 485 LINE"
);
}
);
width = 1341;
}
);
leftKerningGroup = C;
note = C;
rightKerningGroup = C;
unicode = 0043;
},
{
glyphname = D;
lastChange = "2017-05-28 07:55:01 +0000";
layers = (
{
hints = (
{
horizontal = 1;
origin = "{0, 0}";
type = Anchor;
},
{
horizontal = 1;
origin = "{0, 1}";
type = Anchor;
},
{
horizontal = 1;
origin = "{0, 2}";
type = Anchor;
},
{
horizontal = 1;
origin = "{0, 3}";
type = Anchor;
},
{
horizontal = 1;
origin = "{0, 4}";
type = Anchor;
},
{
horizontal = 1;
origin = "{0, 5}";
type = Anchor;
},
{
horizontal = 1;
origin = "{0, 6}";
type = Anchor;
},
{
horizontal = 1;
origin = "{0, 7}";
type = Anchor;
},
{
horizontal = 1;
origin = "{0, 8}";
type = Anchor;
},
{
horizontal = 1;
origin = "{0, 9}";
type = Anchor;
},
{
horizontal = 1;
origin = "{1, 0}";
type = Anchor;
},
{
horizontal = 1;
origin = "{1, 1}";
type = Anchor;
},
{
horizontal = 1;
origin = "{1, 2}";
type = Anchor;
},
{
horizontal = 1;
origin = "{1, 3}";
type = Anchor;
},
{
horizontal = 1;
origin = "{1, 4}";
type = Anchor;
},
{
horizontal = 1;
origin = "{1, 5}";
type = Anchor;
},
{
horizontal = 1;
origin = "{1, 6}";
type = Anchor;
},
{
horizontal = 1;
origin = "{1, 7}";
type = Anchor;
},
{
horizontal = 1;
origin = "{1, 8}";
type = Anchor;
},
{
horizontal = 1;
origin = "{1, 9}";
type = Anchor;
},
{
horizontal = 1;
origin = "{1, 0}";
type = Delta;
settings = {
deltaV = {
"{100, 100, 0, 0, 0}" = {
"12" = 4;
};
};
};
},
{
horizontal = 1;
origin = "{1, 8}";
type = Delta;
settings = {
deltaV = {
"{100, 100, 0, 0, 0}" = {
"12" = 4;
};
};
};
},
{
horizontal = 1;
origin = "{1, 9}";
type = Delta;
settings = {
deltaV = {
"{100, 100, 0, 0, 0}" = {
"12" = 4;
};
};
};
},
{
horizontal = 1;
origin = "{1, 8}";
type = Delta;
settings = {
deltaV = {
"{100, 100, 0, 0, 0}" = {
"12" = 4;
};
};
};
}
);
layerId = "8F63CED7-3680-4993-9CF4-CD4CD6484F7E";
paths = (
{
closed = 1;
nodes = (
"972 0 OFFCURVE",
"1244 279 OFFCURVE",
"1244 695 CURVE SMOOTH",
"1244 760 LINE SMOOTH",
"1244 1176 OFFCURVE",
"971 1456 OFFCURVE",
"579 1456 CURVE SMOOTH",
"130 1456 LINE",
"130 0 LINE",
"575 0 LINE SMOOTH"
);
},
{
closed = 1;
nodes = (
"823 1209 OFFCURVE",
"939 1058 OFFCURVE",
"939 762 CURVE SMOOTH",
"939 686 LINE SMOOTH",
"936 401 OFFCURVE",
"811 242 OFFCURVE",
"575 242 CURVE SMOOTH",
"431 242 LINE",
"431 1213 LINE",
"588 1213 LINE SMOOTH"
);
}
);
width = 1332;
}
);
note = D;
rightKerningGroup = D;
unicode = 0044;
},
{
glyphname = E;
lastChange = "2017-05-28 07:55:11 +0000";
layers = (
{
hints = (
{
horizontal = 1;
origin = "{0, 0}";
type = Anchor;
},
{
horizontal = 1;
origin = "{0, 1}";
type = Anchor;
},
{
horizontal = 1;
origin = "{0, 2}";
type = Anchor;
},
{
horizontal = 1;
origin = "{0, 3}";
type = Anchor;
},
{
horizontal = 1;
origin = "{0, 4}";
type = Anchor;
},
{
horizontal = 1;
origin = "{0, 5}";
type = Anchor;
},
{
horizontal = 1;
origin = "{0, 6}";
type = Anchor;
},
{
horizontal = 1;
origin = "{0, 7}";
type = Anchor;
},
{
horizontal = 1;
origin = "{0, 8}";
type = Anchor;
},
{
horizontal = 1;
origin = "{0, 9}";
type = Anchor;
},
{
horizontal = 1;
origin = "{0, 10}";
type = Anchor;
},
{
horizontal = 1;
origin = "{0, 11}";
type = Anchor;
},
{
horizontal = 1;
origin = "{0, 6}";
type = Delta;
settings = {
deltaV = {
"{100, 100, 0, 0, 0}" = {
"12" = 8;
};
};
};
},
{
horizontal = 1;
origin = "{0, 7}";
type = Delta;
settings = {
deltaV = {
"{100, 100, 0, 0, 0}" = {
"12" = 8;
};
};
};
}
);
layerId = "8F63CED7-3680-4993-9CF4-CD4CD6484F7E";
paths = (
{
closed = 1;
nodes = (
"1107 242 LINE",
"431 242 LINE",
"431 631 LINE",
"1006 631 LINE",
"1006 866 LINE",
"431 866 LINE",
"431 1213 LINE",
"1104 1213 LINE",
"1104 1456 LINE",
"130 1456 LINE",
"130 0 LINE",
"1107 0 LINE"
);
}
);
width = 1152;
}
);
note = E;
rightKerningGroup = E;
unicode = 0045;
},
{
glyphname = F;
lastChange = "2017-05-28 07:55:48 +0000";
layers = (
{
hints = (
{
horizontal = 1;
origin = "{0, 0}";
type = Anchor;
},
{
horizontal = 1;
origin = "{0, 1}";
type = Anchor;
},
{
horizontal = 1;
origin = "{0, 2}";
type = Anchor;
},
{
horizontal = 1;
origin = "{0, 3}";
type = Anchor;
},
{
horizontal = 1;
origin = "{0, 4}";
type = Anchor;
},
{
horizontal = 1;
origin = "{0, 5}";
type = Anchor;
},
{
horizontal = 1;
origin = "{0, 6}";
type = Anchor;
},
{
horizontal = 1;
origin = "{0, 7}";
type = Anchor;
},
{
horizontal = 1;
origin = "{0, 8}";
type = Anchor;
},
{
horizontal = 1;
origin = "{0, 9}";
type = Anchor;
},
{
horizontal = 1;
origin = "{0, 4}";
type = Delta;
settings = {
deltaV = {
"{100, 100, 0, 0, 0}" = {
"12" = 0;
};
};
};
},
{
horizontal = 1;
origin = "{0, 5}";
type = Delta;
settings = {
deltaV = {
"{100, 100, 0, 0, 0}" = {
"12" = 0;
};
};
};
},
{
horizontal = 1;
origin = "{0, 0}";
type = Delta;
settings = {
deltaV = {
"{100, 100, 0, 0, 0}" = {
"12" = 8;
};
};
};
},
{
horizontal = 1;
origin = "{0, 1}";
type = Delta;
settings = {
deltaV = {
"{100, 100, 0, 0, 0}" = {
"12" = 8;
};
};
};
}
);
layerId = "8F63CED7-3680-4993-9CF4-CD4CD6484F7E";
paths = (
{
closed = 1;
nodes = (
"431 595 LINE",
"1007 595 LINE",
"1007 837 LINE",
"431 837 LINE",
"431 1213 LINE",
"1079 1213 LINE",
"1079 1456 LINE",
"130 1456 LINE",
"130 0 LINE",
"431 0 LINE"
);
}
);
width = 1123;
}
);
note = F;
unicode = 0046;
},
{
glyphname = G;
lastChange = "2017-05-28 07:56:05 +0000";
layers = (
{
hints = (
{
horizontal = 1;
origin = "{0, 0}";
type = Anchor;
},
{
horizontal = 1;
origin = "{0, 1}";
type = Anchor;
},
{
horizontal = 1;
origin = "{0, 2}";
type = Anchor;
},
{
horizontal = 1;
origin = "{0, 3}";
type = Anchor;
},
{
horizontal = 1;
origin = "{0, 4}";
type = Anchor;
},
{
horizontal = 1;
origin = "{0, 5}";
type = Anchor;
},
{
horizontal = 1;
origin = "{0, 6}";
type = Anchor;
},
{
horizontal = 1;
origin = "{0, 7}";
type = Anchor;
},
{
horizontal = 1;
origin = "{0, 8}";
type = Anchor;
},
{
horizontal = 1;
origin = "{0, 9}";
type = Anchor;
},
{
horizontal = 1;
origin = "{0, 10}";
type = Anchor;
},
{
horizontal = 1;
origin = "{0, 11}";
type = Anchor;
},
{
horizontal = 1;
origin = "{0, 12}";
type = Anchor;
},
{
horizontal = 1;
origin = "{0, 13}";
type = Anchor;
},
{
horizontal = 1;
origin = "{0, 14}";
type = Anchor;
},
{
horizontal = 1;
origin = "{0, 15}";
type = Anchor;
},
{
horizontal = 1;
origin = "{0, 16}";
type = Anchor;
},
{
horizontal = 1;
origin = "{0, 17}";
type = Anchor;
},
{
horizontal = 1;
origin = "{0, 18}";
type = Anchor;
},
{
horizontal = 1;
origin = "{0, 19}";
type = Anchor;
},
{
horizontal = 1;
origin = "{0, 20}";
type = Anchor;
},
{
horizontal = 1;
origin = "{0, 21}";
type = Anchor;
},
{
horizontal = 1;
origin = "{0, 22}";
type = Anchor;
},
{
horizontal = 1;
origin = "{0, 23}";
type = Anchor;
},
{
horizontal = 1;
origin = "{0, 24}";
type = Anchor;
},
{
horizontal = 1;
origin = "{0, 25}";
type = Anchor;
},
{
horizontal = 1;
origin = "{0, 26}";
type = Anchor;
},
{
horizontal = 1;
origin = "{0, 27}";
type = Anchor;
},
{
horizontal = 1;
origin = "{0, 28}";
type = Anchor;
},
{
horizontal = 1;
origin = "{0, 29}";
type = Anchor;
},
{
horizontal = 1;
origin = "{0, 30}";
type = Anchor;
},
{
horizontal = 1;
origin = "{0, 31}";
type = Anchor;
},
{
horizontal = 1;
origin = "{0, 32}";
type = Anchor;
},
{
horizontal = 1;
origin = "{0, 33}";
type = Anchor;
},
{
horizontal = 1;
origin = "{0, 34}";
type = Anchor;
},
{
horizontal = 1;
origin = "{0, 15}";
type = Delta;
settings = {
deltaV = {
"{100, 100, 0, 0, 0}" = {
"12" = 8;
};
};
};
},
{
horizontal = 1;
origin = "{0, 16}";
type = Delta;
settings = {
deltaV = {
"{100, 100, 0, 0, 0}" = {
"12" = 8;
};
};
};
},
{
horizontal = 1;
origin = "{0, 14}";
type = Delta;
settings = {
deltaV = {
"{100, 100, 0, 0, 0}" = {
"12" = 8;
};
};
};
}
);
layerId = "8F63CED7-3680-4993-9CF4-CD4CD6484F7E";
paths = (
{
closed = 1;
nodes = (
"710 545 LINE",
"982 545 LINE",
"982 294 LINE",
"966 279 OFFCURVE",
"940 263 OFFCURVE",
"904 247 CURVE SMOOTH",
"868 230 OFFCURVE",
"814 222 OFFCURVE",
"742 222 CURVE SMOOTH",
"513 222 OFFCURVE",
"399 377 OFFCURVE",
"399 684 CURVE SMOOTH",
"400 827 LINE",
"412 1099 OFFCURVE",
"516 1235 OFFCURVE",
"713 1235 CURVE SMOOTH",
"894 1235 OFFCURVE",
"967 1140 OFFCURVE",
"990 993 CURVE",
"1282 993 LINE",
"1250 1276 OFFCURVE",
"1082 1477 OFFCURVE",
"705 1477 CURVE SMOOTH",
"336 1477 OFFCURVE",
"94 1220 OFFCURVE",
"94 771 CURVE SMOOTH",
"94 684 LINE SMOOTH",
"94 235 OFFCURVE",
"349 -20 OFFCURVE",
"726 -20 CURVE SMOOTH",
"1046 -20 OFFCURVE",
"1214 101 OFFCURVE",
"1283 184 CURVE",
"1283 765 LINE",
"710 765 LINE"
);
}
);
width = 1395;
}
);
leftKerningGroup = C;
note = G;
unicode = 0047;
},
{
glyphname = H;
lastChange = "2017-05-28 07:56:09 +0000";
layers = (
{
hints = (
{
horizontal = 1;
origin = "{0, 0}";
type = Anchor;
},
{
horizontal = 1;
origin = "{0, 1}";
type = Anchor;
},
{
horizontal = 1;
origin = "{0, 2}";
type = Anchor;
},
{
horizontal = 1;
origin = "{0, 3}";
type = Anchor;
},
{
horizontal = 1;
origin = "{0, 4}";
type = Anchor;
},
{
horizontal = 1;
origin = "{0, 5}";
type = Anchor;
},
{
horizontal = 1;
origin = "{0, 6}";
type = Anchor;
},
{
horizontal = 1;
origin = "{0, 7}";
type = Anchor;
},
{
horizontal = 1;
origin = "{0, 8}";
type = Anchor;
},
{
horizontal = 1;
origin = "{0, 9}";
type = Anchor;
},
{
horizontal = 1;
origin = "{0, 10}";
type = Anchor;
},
{
horizontal = 1;
origin = "{0, 11}";
type = Anchor;
}
);
layerId = "8F63CED7-3680-4993-9CF4-CD4CD6484F7E";
paths = (
{
closed = 1;
nodes = (
"1316 1456 LINE",
"1016 1456 LINE",
"1016 866 LINE",
"431 866 LINE",
"431 1456 LINE",
"130 1456 LINE",
"130 0 LINE",
"431 0 LINE",
"431 624 LINE",
"1016 624 LINE",
"1016 0 LINE",
"1316 0 LINE"
);
}
);
width = 1448;
}
);
note = H;
rightKerningGroup = H;
unicode = 0048;
},
{
glyphname = I;
lastChange = "2017-05-28 07:56:13 +0000";
layers = (
{
hints = (
{
horizontal = 1;
origin = "{0, 0}";
type = Anchor;
},
{
horizontal = 1;
origin = "{0, 1}";
type = Anchor;
},
{
horizontal = 1;
origin = "{0, 2}";
type = Anchor;
},
{
horizontal = 1;
origin = "{0, 3}";
type = Anchor;
}
);
layerId = "8F63CED7-3680-4993-9CF4-CD4CD6484F7E";
paths = (
{
closed = 1;
nodes = (
"149 0 LINE",
"449 0 LINE",
"449 1456 LINE",
"149 1456 LINE"
);
}
);
width = 598;
}
);
note = I;
rightKerningGroup = H;
unicode = 0049;
},
{
glyphname = J;
lastChange = "2017-05-28 07:56:16 +0000";
layers = (
{
hints = (
{
horizontal = 1;
origin = "{0, 0}";
type = Anchor;
},
{
horizontal = 1;
origin = "{0, 1}";
type = Anchor;
},
{
horizontal = 1;
origin = "{0, 2}";
type = Anchor;
},
{
horizontal = 1;
origin = "{0, 3}";
type = Anchor;
},
{
horizontal = 1;
origin = "{0, 4}";
type = Anchor;
},
{
horizontal = 1;
origin = "{0, 5}";
type = Anchor;
},
{
horizontal = 1;
origin = "{0, 6}";
type = Anchor;
},
{
horizontal = 1;
origin = "{0, 7}";
type = Anchor;
},
{
horizontal = 1;
origin = "{0, 8}";
type = Anchor;
},
{
horizontal = 1;
origin = "{0, 9}";
type = Anchor;
},
{
horizontal = 1;
origin = "{0, 10}";
type = Anchor;
},
{
horizontal = 1;
origin = "{0, 11}";
type = Anchor;
},
{
horizontal = 1;
origin = "{0, 12}";
type = Anchor;
},
{
horizontal = 1;
origin = "{0, 13}";
type = Anchor;
},
{
horizontal = 1;
origin = "{0, 14}";
type = Anchor;
},
{
horizontal = 1;
origin = "{0, 15}";
type = Anchor;
}
);
layerId = "8F63CED7-3680-4993-9CF4-CD4CD6484F7E";
paths = (
{
closed = 1;
nodes = (
"718 304 OFFCURVE",
"645 222 OFFCURVE",
"530 222 CURVE SMOOTH",
"415 222 OFFCURVE",
"342 274 OFFCURVE",
"342 430 CURVE",
"41 430 LINE",
"41 122 OFFCURVE",
"245 -20 OFFCURVE",
"530 -20 CURVE SMOOTH",
"807 -20 OFFCURVE",
"1018 157 OFFCURVE",
"1018 448 CURVE SMOOTH",
"1018 1456 LINE",
"718 1456 LINE",
"718 448 LINE SMOOTH"
);
}
);
width = 1144;
}
);
leftKerningGroup = J;
note = J;
rightKerningGroup = J;
unicode = 004A;
},
{
glyphname = K;
lastChange = "2017-05-28 07:56:18 +0000";
layers = (
{
hints = (
{
horizontal = 1;
origin = "{0, 0}";
type = Anchor;
},
{
horizontal = 1;
origin = "{0, 1}";
type = Anchor;
},
{
horizontal = 1;
origin = "{0, 2}";
type = Anchor;
},
{
horizontal = 1;
origin = "{0, 3}";
type = Anchor;
},
{
horizontal = 1;
origin = "{0, 4}";
type = Anchor;
},
{
horizontal = 1;
origin = "{0, 5}";
type = Anchor;
},
{
horizontal = 1;
origin = "{0, 6}";
type = Anchor;
},
{
horizontal = 1;
origin = "{0, 7}";
type = Anchor;
},
{
horizontal = 1;
origin = "{0, 8}";
type = Anchor;
},
{
horizontal = 1;
origin = "{0, 9}";
type = Anchor;
},
{
horizontal = 1;
origin = "{0, 10}";
type = Anchor;
},
{
horizontal = 1;
origin = "{0, 11}";
type = Anchor;
},
{
horizontal = 1;
origin = "{0, 12}";
type = Anchor;
}
);
layerId = "8F63CED7-3680-4993-9CF4-CD4CD6484F7E";
paths = (
{
closed = 1;
nodes = (
"786 810 LINE",
"1302 1456 LINE",
"933 1456 LINE",
"562 977 LINE",
"431 797 LINE",
"431 1456 LINE",
"130 1456 LINE",
"130 0 LINE",
"431 0 LINE",
"431 417 LINE",
"587 585 LINE",
"961 0 LINE",
"1318 0 LINE"
);
}
);
width = 1301;
}
);
note = K;
rightKerningGroup = K;
unicode = 004B;
},
{
glyphname = L;
lastChange = "2017-05-28 07:56:21 +0000";
layers = (
{
hints = (
{
horizontal = 1;
origin = "{0, 0}";
type = Anchor;
},
{
horizontal = 1;
origin = "{0, 1}";
type = Anchor;
},
{
horizontal = 1;
origin = "{0, 2}";
type = Anchor;
},
{
horizontal = 1;
origin = "{0, 3}";
type = Anchor;
},
{
horizontal = 1;
origin = "{0, 4}";
type = Anchor;
},
{
horizontal = 1;
origin = "{0, 5}";
type = Anchor;
}
);
layerId = "8F63CED7-3680-4993-9CF4-CD4CD6484F7E";
paths = (
{
closed = 1;
nodes = (
"431 1456 LINE",
"130 1456 LINE",
"130 0 LINE",
"1067 0 LINE",
"1067 242 LINE",
"431 242 LINE"
);
}
);
width = 1109;
}
);
note = L;
rightKerningGroup = L;
unicode = 004C;
},
{
glyphname = M;
lastChange = "2017-05-28 07:56:24 +0000";
layers = (
{
hints = (
{
horizontal = 1;
origin = "{0, 0}";
type = Anchor;
},
{
horizontal = 1;
origin = "{0, 1}";
type = Anchor;
},
{
horizontal = 1;
origin = "{0, 2}";
type = Anchor;
},
{
horizontal = 1;
origin = "{0, 3}";
type = Anchor;
},
{
horizontal = 1;
origin = "{0, 4}";
type = Anchor;
},
{
horizontal = 1;
origin = "{0, 5}";
type = Anchor;
},
{
horizontal = 1;
origin = "{0, 6}";
type = Anchor;
},
{
horizontal = 1;
origin = "{0, 7}";
type = Anchor;
},
{
horizontal = 1;
origin = "{0, 8}";
type = Anchor;
},
{
horizontal = 1;
origin = "{0, 9}";
type = Anchor;
},
{
horizontal = 1;
origin = "{0, 10}";
type = Anchor;
},
{
horizontal = 1;
origin = "{0, 11}";
type = Anchor;
},
{
horizontal = 1;
origin = "{0, 12}";
type = Anchor;
},
{
horizontal = 1;
origin = "{0, 13}";
type = Anchor;
},
{
horizontal = 1;
origin = "{0, 14}";
type = Anchor;
}
);
layerId = "8F63CED7-3680-4993-9CF4-CD4CD6484F7E";
paths = (
{
closed = 1;
nodes = (
"130 1456 LINE",
"130 0 LINE",
"431 0 LINE",
"431 398 LINE",
"401 1082 LINE",
"793 0 LINE",
"999 0 LINE",
"1391 1082 LINE",
"1361 398 LINE",
"1361 0 LINE",
"1662 0 LINE",
"1662 1456 LINE",
"1269 1456 LINE",
"896 400 LINE",
"523 1456 LINE"
);
}
);
width = 1794;
}
);
note = M;
rightKerningGroup = H;
unicode = 004D;
},
{
glyphname = N;
lastChange = "2017-05-28 07:56:27 +0000";
layers = (
{
hints = (
{
horizontal = 1;
origin = "{0, 0}";
type = Anchor;
},
{
horizontal = 1;
origin = "{0, 1}";
type = Anchor;
},
{
horizontal = 1;
origin = "{0, 2}";
type = Anchor;
},
{
horizontal = 1;
origin = "{0, 3}";
type = Anchor;
},
{
horizontal = 1;
origin = "{0, 4}";
type = Anchor;
},
{
horizontal = 1;
origin = "{0, 5}";
type = Anchor;
},
{
horizontal = 1;
origin = "{0, 6}";
type = Anchor;
},
{
horizontal = 1;
origin = "{0, 7}";
type = Anchor;
},
{
horizontal = 1;
origin = "{0, 8}";
type = Anchor;
},
{
horizontal = 1;
origin = "{0, 9}";
type = Anchor;
}
);
layerId = "8F63CED7-3680-4993-9CF4-CD4CD6484F7E";
paths = (
{
closed = 1;
nodes = (
"1015 496 LINE",
"431 1456 LINE",
"130 1456 LINE",
"130 0 LINE",
"431 0 LINE",
"431 959 LINE",
"1015 0 LINE",
"1315 0 LINE",
"1315 1456 LINE",
"1015 1456 LINE"
);
}
);
width = 1447;
}
);
note = N;
rightKerningGroup = H;
unicode = 004E;
},
{
glyphname = O;
lastChange = "2017-05-28 07:56:38 +0000";
layers = (
{
hints = (
{
horizontal = 1;
origin = "{0, 0}";
type = Anchor;
},
{
horizontal = 1;
origin = "{0, 1}";
type = Anchor;
},
{
horizontal = 1;
origin = "{0, 2}";
type = Anchor;
},
{
horizontal = 1;
origin = "{0, 3}";
type = Anchor;
},
{
horizontal = 1;
origin = "{0, 4}";
type = Anchor;
},
{
horizontal = 1;
origin = "{0, 5}";
type = Anchor;
},
{
horizontal = 1;
origin = "{0, 6}";
type = Anchor;
},
{
horizontal = 1;
origin = "{0, 7}";
type = Anchor;
},
{
horizontal = 1;
origin = "{0, 8}";
type = Anchor;
},
{
horizontal = 1;
origin = "{0, 9}";
type = Anchor;
},
{
horizontal = 1;
origin = "{0, 10}";
type = Anchor;
},
{
horizontal = 1;
origin = "{0, 11}";
type = Anchor;
},
{
horizontal = 1;
origin = "{0, 12}";
type = Anchor;
},
{
horizontal = 1;
origin = "{0, 13}";
type = Anchor;
},
{
horizontal = 1;
origin = "{1, 0}";
type = Anchor;
},
{
horizontal = 1;
origin = "{1, 1}";
type = Anchor;
},
{
horizontal = 1;
origin = "{1, 2}";
type = Anchor;
},
{
horizontal = 1;
origin = "{1, 3}";
type = Anchor;
},
{
horizontal = 1;
origin = "{1, 4}";
type = Anchor;
},
{
horizontal = 1;
origin = "{1, 5}";
type = Anchor;
},
{
horizontal = 1;
origin = "{1, 6}";
type = Anchor;
},
{
horizontal = 1;
origin = "{1, 7}";
type = Anchor;
},
{
horizontal = 1;
origin = "{1, 8}";
type = Anchor;
},
{
horizontal = 1;
origin = "{1, 9}";
type = Anchor;
},
{
horizontal = 1;
origin = "{1, 10}";
type = Anchor;
},
{
horizontal = 1;
origin = "{1, 11}";
type = Anchor;
},
{
horizontal = 1;
origin = "{1, 12}";
type = Anchor;
},
{
horizontal = 1;
origin = "{1, 13}";
type = Anchor;
},
{
horizontal = 1;
origin = "{1, 8}";
type = Delta;
settings = {
deltaV = {
"{100, 100, 0, 0, 0}" = {
"12" = 8;
};
};
};
},
{
horizontal = 1;
origin = "{1, 9}";
type = Delta;
settings = {
deltaV = {
"{100, 100, 0, 0, 0}" = {
"12" = 8;
};
};
};
},
{
horizontal = 1;
origin = "{1, 10}";
type = Delta;
settings = {
deltaV = {
"{100, 100, 0, 0, 0}" = {
"12" = 8;
};
};
};
}
);
layerId = "8F63CED7-3680-4993-9CF4-CD4CD6484F7E";
paths = (
{
closed = 1;
nodes = (
"1327 1204 OFFCURVE",
"1071 1476 OFFCURVE",
"706 1476 CURVE SMOOTH",
"341 1476 OFFCURVE",
"86 1204 OFFCURVE",
"86 760 CURVE SMOOTH",
"86 695 LINE SMOOTH",
"86 251 OFFCURVE",
"343 -20 OFFCURVE",
"708 -20 CURVE SMOOTH",
"1073 -20 OFFCURVE",
"1327 251 OFFCURVE",
"1327 695 CURVE SMOOTH",
"1327 760 LINE SMOOTH"
);
},
{
closed = 1;
nodes = (
"1022 390 OFFCURVE",
"909 227 OFFCURVE",
"708 227 CURVE SMOOTH",
"505 227 OFFCURVE",
"390 392 OFFCURVE",
"390 695 CURVE SMOOTH",
"390 767 LINE SMOOTH",
"391 1068 OFFCURVE",
"505 1228 OFFCURVE",
"706 1228 CURVE SMOOTH",
"907 1228 OFFCURVE",
"1023 1066 OFFCURVE",
"1023 762 CURVE SMOOTH",
"1023 690 LINE SMOOTH"
);
}
);
width = 1414;
}
);
leftKerningGroup = C;
note = O;
rightKerningGroup = D;
unicode = 004F;
},
{
glyphname = P;
lastChange = "2017-05-28 07:56:48 +0000";
layers = (
{
hints = (
{
horizontal = 1;
origin = "{0, 0}";
type = Anchor;
},
{
horizontal = 1;
origin = "{0, 1}";
type = Anchor;
},
{
horizontal = 1;
origin = "{0, 2}";
type = Anchor;
},
{
horizontal = 1;
origin = "{0, 3}";
type = Anchor;
},
{
horizontal = 1;
origin = "{0, 4}";
type = Anchor;
},
{
horizontal = 1;
origin = "{0, 5}";
type = Anchor;
},
{
horizontal = 1;
origin = "{0, 6}";
type = Anchor;
},
{
horizontal = 1;
origin = "{0, 7}";
type = Anchor;
},
{
horizontal = 1;
origin = "{0, 8}";
type = Anchor;
},
{
horizontal = 1;
origin = "{0, 9}";
type = Anchor;
},
{
horizontal = 1;
origin = "{0, 10}";
type = Anchor;
},
{
horizontal = 1;
origin = "{1, 0}";
type = Anchor;
},
{
horizontal = 1;
origin = "{1, 1}";
type = Anchor;
},
{
horizontal = 1;
origin = "{1, 2}";
type = Anchor;
},
{
horizontal = 1;
origin = "{1, 3}";
type = Anchor;
},
{
horizontal = 1;
origin = "{1, 4}";
type = Anchor;
},
{
horizontal = 1;
origin = "{1, 5}";
type = Anchor;
},
{
horizontal = 1;
origin = "{1, 6}";
type = Anchor;
},
{
horizontal = 1;
origin = "{1, 7}";
type = Anchor;
},
{
horizontal = 1;
origin = "{1, 8}";
type = Anchor;
},
{
horizontal = 1;
origin = "{1, 0}";
type = Delta;
settings = {
deltaV = {
"{100, 100, 0, 0, 0}" = {
"12" = 8;
};
};
};
},
{
horizontal = 1;
origin = "{1, 8}";
type = Delta;
settings = {
deltaV = {
"{100, 100, 0, 0, 0}" = {
"12" = 8;
};
};
};
},
{
horizontal = 1;
origin = "{1, 7}";
type = Delta;
settings = {
deltaV = {
"{100, 100, 0, 0, 0}" = {
"12" = 8;
};
};
};
}
);
layerId = "8F63CED7-3680-4993-9CF4-CD4CD6484F7E";
paths = (
{
closed = 1;
nodes = (
"1043 514 OFFCURVE",
"1246 694 OFFCURVE",
"1246 975 CURVE SMOOTH",
"1246 1254 OFFCURVE",
"1043 1456 OFFCURVE",
"699 1456 CURVE SMOOTH",
"130 1456 LINE",
"130 0 LINE",
"431 0 LINE",
"431 514 LINE",
"699 514 LINE SMOOTH"
);
},
{
closed = 1;
nodes = (
"871 1213 OFFCURVE",
"942 1100 OFFCURVE",
"942 973 CURVE SMOOTH",
"942 846 OFFCURVE",
"871 756 OFFCURVE",
"699 756 CURVE SMOOTH",
"431 756 LINE",
"431 1213 LINE",
"699 1213 LINE SMOOTH"
);
}
);
width = 1322;
}
);
note = P;
rightKerningGroup = P;
unicode = 0050;
},
{
glyphname = Q;
lastChange = "2017-05-28 07:57:00 +0000";
layers = (
{
hints = (
{
horizontal = 1;
origin = "{0, 0}";
type = Anchor;
},
{
horizontal = 1;
origin = "{0, 1}";
type = Anchor;
},
{
horizontal = 1;
origin = "{0, 2}";
type = Anchor;
},
{
horizontal = 1;
origin = "{0, 3}";
type = Anchor;
},
{
horizontal = 1;
origin = "{0, 4}";
type = Anchor;
},
{
horizontal = 1;
origin = "{0, 5}";
type = Anchor;
},
{
horizontal = 1;
origin = "{0, 6}";
type = Anchor;
},
{
horizontal = 1;
origin = "{0, 7}";
type = Anchor;
},
{
horizontal = 1;
origin = "{0, 8}";
type = Anchor;
},
{
horizontal = 1;
origin = "{0, 9}";
type = Anchor;
},
{
horizontal = 1;
origin = "{0, 10}";
type = Anchor;
},
{
horizontal = 1;
origin = "{0, 11}";
type = Anchor;
},
{
horizontal = 1;
origin = "{0, 12}";
type = Anchor;
},
{
horizontal = 1;
origin = "{0, 13}";
type = Anchor;
},
{
horizontal = 1;
origin = "{0, 14}";
type = Anchor;
},
{
horizontal = 1;
origin = "{0, 15}";
type = Anchor;
},
{
horizontal = 1;
origin = "{0, 16}";
type = Anchor;
},
{
horizontal = 1;
origin = "{0, 17}";
type = Anchor;
},
{
horizontal = 1;
origin = "{0, 18}";
type = Anchor;
},
{
horizontal = 1;
origin = "{0, 19}";
type = Anchor;
},
{
horizontal = 1;
origin = "{1, 0}";
type = Anchor;
},
{
horizontal = 1;
origin = "{1, 1}";
type = Anchor;
},
{
horizontal = 1;
origin = "{1, 2}";
type = Anchor;
},
{
horizontal = 1;
origin = "{1, 3}";
type = Anchor;
},
{
horizontal = 1;
origin = "{1, 4}";
type = Anchor;
},
{
horizontal = 1;
origin = "{1, 5}";
type = Anchor;
},
{
horizontal = 1;
origin = "{1, 6}";
type = Anchor;
},
{
horizontal = 1;
origin = "{1, 7}";
type = Anchor;
},
{
horizontal = 1;
origin = "{1, 8}";
type = Anchor;
},
{
horizontal = 1;
origin = "{1, 9}";
type = Anchor;
},
{
horizontal = 1;
origin = "{1, 10}";
type = Anchor;
},
{
horizontal = 1;
origin = "{1, 11}";
type = Anchor;
},
{
horizontal = 1;
origin = "{1, 12}";
type = Anchor;
},
{
horizontal = 1;
origin = "{1, 13}";
type = Anchor;
},
{
horizontal = 1;
origin = "{1, 8}";
type = Delta;
settings = {
deltaV = {
"{100, 100, 0, 0, 0}" = {
"12" = 8;
};
};
};
},
{
horizontal = 1;
origin = "{1, 9}";
type = Delta;
settings = {
deltaV = {
"{100, 100, 0, 0, 0}" = {
"12" = 8;
};
};
};
},
{
horizontal = 1;
origin = "{1, 10}";
type = Delta;
settings = {
deltaV = {
"{100, 100, 0, 0, 0}" = {
"12" = 8;
};
};
};
}
);
layerId = "8F63CED7-3680-4993-9CF4-CD4CD6484F7E";
paths = (
{
closed = 1;
nodes = (
"1232 219 OFFCURVE",
"1325 426 OFFCURVE",
"1325 695 CURVE SMOOTH",
"1325 760 LINE SMOOTH",
"1325 1204 OFFCURVE",
"1071 1476 OFFCURVE",
"704 1476 CURVE SMOOTH",
"339 1476 OFFCURVE",
"84 1204 OFFCURVE",
"84 760 CURVE SMOOTH",
"84 695 LINE SMOOTH",
"84 251 OFFCURVE",
"341 -20 OFFCURVE",
"706 -20 CURVE SMOOTH",
"745 -20 OFFCURVE",
"782 -17 OFFCURVE",
"818 -11 CURVE",
"1127 -260 LINE",
"1317 -91 LINE",
"1077 99 LINE"
);
},
{
closed = 1;
nodes = (
"1020 390 OFFCURVE",
"907 227 OFFCURVE",
"706 227 CURVE SMOOTH",
"505 227 OFFCURVE",
"388 392 OFFCURVE",
"388 695 CURVE SMOOTH",
"388 767 LINE SMOOTH",
"389 1068 OFFCURVE",
"504 1228 OFFCURVE",
"704 1228 CURVE SMOOTH",
"905 1228 OFFCURVE",
"1021 1066 OFFCURVE",
"1021 762 CURVE SMOOTH",
"1021 690 LINE SMOOTH"
);
}
);
width = 1414;
}
);
leftKerningGroup = C;
note = Q;
unicode = 0051;
},
{
glyphname = R;
lastChange = "2017-05-28 07:57:09 +0000";
layers = (
{
hints = (
{
horizontal = 1;
origin = "{0, 0}";
type = Anchor;
},
{
horizontal = 1;
origin = "{0, 1}";
type = Anchor;
},
{
horizontal = 1;
origin = "{0, 2}";
type = Anchor;
},
{
horizontal = 1;
origin = "{0, 3}";
type = Anchor;
},
{
horizontal = 1;
origin = "{0, 4}";
type = Anchor;
},
{
horizontal = 1;
origin = "{0, 5}";
type = Anchor;
},
{
horizontal = 1;
origin = "{0, 6}";
type = Anchor;
},
{
horizontal = 1;
origin = "{0, 7}";
type = Anchor;
},
{
horizontal = 1;
origin = "{0, 8}";
type = Anchor;
},
{
horizontal = 1;
origin = "{0, 9}";
type = Anchor;
},
{
horizontal = 1;
origin = "{0, 10}";
type = Anchor;
},
{
horizontal = 1;
origin = "{0, 11}";
type = Anchor;
},
{
horizontal = 1;
origin = "{0, 12}";
type = Anchor;
},
{
horizontal = 1;
origin = "{0, 13}";
type = Anchor;
},
{
horizontal = 1;
origin = "{0, 14}";
type = Anchor;
},
{
horizontal = 1;
origin = "{1, 0}";
type = Anchor;
},
{
horizontal = 1;
origin = "{1, 1}";
type = Anchor;
},
{
horizontal = 1;
origin = "{1, 2}";
type = Anchor;
},
{
horizontal = 1;
origin = "{1, 3}";
type = Anchor;
},
{
horizontal = 1;
origin = "{1, 4}";
type = Anchor;
},
{
horizontal = 1;
origin = "{1, 5}";
type = Anchor;
},
{
horizontal = 1;
origin = "{1, 6}";
type = Anchor;
},
{
horizontal = 1;
origin = "{1, 7}";
type = Anchor;
},
{
horizontal = 1;
origin = "{1, 8}";
type = Anchor;
},
{
horizontal = 1;
origin = "{1, 0}";
type = Delta;
settings = {
deltaV = {
"{100, 100, 0, 0, 0}" = {
"12" = 8;
};
};
};
},
{
horizontal = 1;
origin = "{1, 7}";
type = Delta;
settings = {
deltaV = {
"{100, 100, 0, 0, 0}" = {
"12" = 8;
};
};
};
},
{
horizontal = 1;
origin = "{1, 8}";
type = Delta;
settings = {
deltaV = {
"{100, 100, 0, 0, 0}" = {
"12" = 8;
};
};
};
}
);
layerId = "8F63CED7-3680-4993-9CF4-CD4CD6484F7E";
paths = (
{
closed = 1;
nodes = (
"1265 14 LINE",
"950 610 LINE",
"1110 682 OFFCURVE",
"1210 805 OFFCURVE",
"1210 1016 CURVE SMOOTH",
"1210 1303 OFFCURVE",
"1007 1456 OFFCURVE",
"672 1456 CURVE SMOOTH",
"130 1456 LINE",
"130 0 LINE",
"431 0 LINE",
"431 534 LINE",
"670 534 LINE",
"942 0 LINE",
"1265 0 LINE"
);
},
{
closed = 1;
nodes = (
"833 1213 OFFCURVE",
"909 1128 OFFCURVE",
"909 993 CURVE SMOOTH",
"909 862 OFFCURVE",
"829 776 OFFCURVE",
"672 776 CURVE SMOOTH",
"431 776 LINE",
"431 1213 LINE",
"672 1213 LINE SMOOTH"
);
}
);
width = 1307;
}
);
note = R;
unicode = 0052;
},
{
glyphname = S;
lastChange = "2017-05-28 07:57:19 +0000";
layers = (
{
hints = (
{
horizontal = 1;
origin = "{0, 0}";
type = Anchor;
},
{
horizontal = 1;
origin = "{0, 1}";
type = Anchor;
},
{
horizontal = 1;
origin = "{0, 2}";
type = Anchor;
},
{
horizontal = 1;
origin = "{0, 3}";
type = Anchor;
},
{
horizontal = 1;
origin = "{0, 4}";
type = Anchor;
},
{
horizontal = 1;
origin = "{0, 5}";
type = Anchor;
},
{
horizontal = 1;
origin = "{0, 6}";
type = Anchor;
},
{
horizontal = 1;
origin = "{0, 7}";
type = Anchor;
},
{
horizontal = 1;
origin = "{0, 8}";
type = Anchor;
},
{
horizontal = 1;
origin = "{0, 9}";
type = Anchor;
},
{
horizontal = 1;
origin = "{0, 10}";
type = Anchor;
},
{
horizontal = 1;
origin = "{0, 11}";
type = Anchor;
},
{
horizontal = 1;
origin = "{0, 12}";
type = Anchor;
},
{
horizontal = 1;
origin = "{0, 13}";
type = Anchor;
},
{
horizontal = 1;
origin = "{0, 14}";
type = Anchor;
},
{
horizontal = 1;
origin = "{0, 15}";
type = Anchor;
},
{
horizontal = 1;
origin = "{0, 16}";
type = Anchor;
},
{
horizontal = 1;
origin = "{0, 17}";
type = Anchor;
},
{
horizontal = 1;
origin = "{0, 18}";
type = Anchor;
},
{
horizontal = 1;
origin = "{0, 19}";
type = Anchor;
},
{
horizontal = 1;
origin = "{0, 20}";
type = Anchor;
},
{
horizontal = 1;
origin = "{0, 21}";
type = Anchor;
},
{
horizontal = 1;
origin = "{0, 22}";
type = Anchor;
},
{
horizontal = 1;
origin = "{0, 23}";
type = Anchor;
},
{
horizontal = 1;
origin = "{0, 24}";
type = Anchor;
},
{
horizontal = 1;
origin = "{0, 25}";
type = Anchor;
},
{
horizontal = 1;
origin = "{0, 26}";
type = Anchor;
},
{
horizontal = 1;
origin = "{0, 27}";
type = Anchor;
},
{
horizontal = 1;
origin = "{0, 28}";
type = Anchor;
},
{
horizontal = 1;
origin = "{0, 29}";
type = Anchor;
},
{
horizontal = 1;
origin = "{0, 30}";
type = Anchor;
},
{
horizontal = 1;
origin = "{0, 31}";
type = Anchor;
},
{
horizontal = 1;
origin = "{0, 32}";
type = Anchor;
},
{
horizontal = 1;
origin = "{0, 33}";
type = Anchor;
},
{
horizontal = 1;
origin = "{0, 34}";
type = Anchor;
},
{
horizontal = 1;
origin = "{0, 35}";
type = Anchor;
},
{
horizontal = 1;
origin = "{0, 36}";
type = Anchor;
},
{
horizontal = 1;
origin = "{0, 37}";
type = Anchor;
},
{
horizontal = 1;
origin = "{0, 38}";
type = Anchor;
},
{
horizontal = 1;
origin = "{0, 39}";
type = Anchor;
},
{
horizontal = 1;
origin = "{0, 40}";
type = Anchor;
},
{
horizontal = 1;
origin = "{0, 41}";
type = Anchor;
},
{
horizontal = 1;
origin = "{0, 42}";
type = Anchor;
},
{
horizontal = 1;
origin = "{0, 43}";
type = Anchor;
},
{
horizontal = 1;
origin = "{0, 23}";
type = Delta;
settings = {
deltaV = {
"{100, 100, 0, 0, 0}" = {
"12" = 8;
};
};
};
},
{
horizontal = 1;
origin = "{0, 24}";
type = Delta;
settings = {
deltaV = {
"{100, 100, 0, 0, 0}" = {
"12" = 8;
};
};
};
},
{
horizontal = 1;
origin = "{0, 25}";
type = Delta;
settings = {
deltaV = {
"{100, 100, 0, 0, 0}" = {
"12" = 8;
};
};
};
}
);
layerId = "8F63CED7-3680-4993-9CF4-CD4CD6484F7E";
paths = (
{
closed = 1;
nodes = (
"886 289 OFFCURVE",
"814 218 OFFCURVE",
"659 218 CURVE SMOOTH",
"487 218 OFFCURVE",
"371 282 OFFCURVE",
"371 459 CURVE",
"70 459 LINE",
"70 349 OFFCURVE",
"99 259 OFFCURVE",
"157 188 CURVE SMOOTH",
"273 47 OFFCURVE",
"466 -20 OFFCURVE",
"659 -20 CURVE SMOOTH",
"979 -20 OFFCURVE",
"1187 129 OFFCURVE",
"1187 384 CURVE SMOOTH",
"1187 624 OFFCURVE",
"1022 760 OFFCURVE",
"703 857 CURVE SMOOTH",
"515 914 OFFCURVE",
"414 972 OFFCURVE",
"414 1068 CURVE SMOOTH",
"414 1161 OFFCURVE",
"490 1237 OFFCURVE",
"647 1237 CURVE SMOOTH",
"808 1237 OFFCURVE",
"886 1150 OFFCURVE",
"886 1027 CURVE",
"1186 1027 LINE",
"1186 1288 OFFCURVE",
"975 1476 OFFCURVE",
"652 1476 CURVE SMOOTH",
"337 1476 OFFCURVE",
"114 1313 OFFCURVE",
"114 1069 CURVE SMOOTH",
"114 816 OFFCURVE",
"337 698 OFFCURVE",
"594 615 CURVE SMOOTH",
"722 573 OFFCURVE",
"803 536 OFFCURVE",
"836 504 CURVE SMOOTH",
"869 471 OFFCURVE",
"886 431 OFFCURVE",
"886 382 CURVE SMOOTH"
);
}
);
width = 1259;
}
);
leftKerningGroup = S;
note = S;
unicode = 0053;
},
{
glyphname = T;
lastChange = "2017-05-28 07:57:22 +0000";
layers = (
{
hints = (
{
horizontal = 1;
origin = "{0, 0}";
type = Anchor;
},
{
horizontal = 1;
origin = "{0, 1}";
type = Anchor;
},
{
horizontal = 1;
origin = "{0, 2}";
type = Anchor;
},
{
horizontal = 1;
origin = "{0, 3}";
type = Anchor;
},
{
horizontal = 1;
origin = "{0, 4}";
type = Anchor;
},
{
horizontal = 1;
origin = "{0, 5}";
type = Anchor;
},
{
horizontal = 1;
origin = "{0, 6}";
type = Anchor;
},
{
horizontal = 1;
origin = "{0, 7}";
type = Anchor;
}
);
layerId = "8F63CED7-3680-4993-9CF4-CD4CD6484F7E";
paths = (
{
closed = 1;
nodes = (
"481 0 LINE",
"781 0 LINE",
"781 1213 LINE",
"1226 1213 LINE",
"1226 1456 LINE",
"41 1456 LINE",
"41 1213 LINE",
"481 1213 LINE"
);
}
);
width = 1267;
}
);
leftKerningGroup = T;
note = T;
rightKerningGroup = T;
unicode = 0054;
},
{
glyphname = U;
lastChange = "2017-05-28 07:57:25 +0000";
layers = (
{
hints = (
{
horizontal = 1;
origin = "{0, 0}";
type = Anchor;
},
{
horizontal = 1;
origin = "{0, 1}";
type = Anchor;
},
{
horizontal = 1;
origin = "{0, 2}";
type = Anchor;
},
{
horizontal = 1;
origin = "{0, 3}";
type = Anchor;
},
{
horizontal = 1;
origin = "{0, 4}";
type = Anchor;
},
{
horizontal = 1;
origin = "{0, 5}";
type = Anchor;
},
{
horizontal = 1;
origin = "{0, 6}";
type = Anchor;
},
{
horizontal = 1;
origin = "{0, 7}";
type = Anchor;
},
{
horizontal = 1;
origin = "{0, 8}";
type = Anchor;
},
{
horizontal = 1;
origin = "{0, 9}";
type = Anchor;
},
{
horizontal = 1;
origin = "{0, 10}";
type = Anchor;
},
{
horizontal = 1;
origin = "{0, 11}";
type = Anchor;
},
{
horizontal = 1;
origin = "{0, 12}";
type = Anchor;
},
{
horizontal = 1;
origin = "{0, 13}";
type = Anchor;
},
{
horizontal = 1;
origin = "{0, 14}";
type = Anchor;
},
{
horizontal = 1;
origin = "{0, 15}";
type = Anchor;
},
{
horizontal = 1;
origin = "{0, 16}";
type = Anchor;
},
{
horizontal = 1;
origin = "{0, 17}";
type = Anchor;
}
);
layerId = "8F63CED7-3680-4993-9CF4-CD4CD6484F7E";
paths = (
{
closed = 1;
nodes = (
"928 309 OFFCURVE",
"842 222 OFFCURVE",
"675 222 CURVE SMOOTH",
"514 222 OFFCURVE",
"417 304 OFFCURVE",
"417 496 CURVE SMOOTH",
"417 1456 LINE",
"116 1456 LINE",
"116 496 LINE SMOOTH",
"116 157 OFFCURVE",
"348 -20 OFFCURVE",
"675 -20 CURVE SMOOTH",
"998 -20 OFFCURVE",
"1233 157 OFFCURVE",
"1233 496 CURVE SMOOTH",
"1233 1456 LINE",
"932 1456 LINE",
"932 483 LINE SMOOTH"
);
}
);
width = 1348;
}
);
leftKerningGroup = U;
note = U;
rightKerningGroup = J;
unicode = 0055;
},
{
glyphname = V;
lastChange = "2017-05-28 07:57:28 +0000";
layers = (
{
hints = (
{
horizontal = 1;
origin = "{0, 0}";
type = Anchor;
},
{
horizontal = 1;
origin = "{0, 1}";
type = Anchor;
},
{
horizontal = 1;
origin = "{0, 2}";
type = Anchor;
},
{
horizontal = 1;
origin = "{0, 3}";
type = Anchor;
},
{
horizontal = 1;
origin = "{0, 4}";
type = Anchor;
},
{
horizontal = 1;
origin = "{0, 5}";
type = Anchor;
},
{
horizontal = 1;
origin = "{0, 6}";
type = Anchor;
}
);
layerId = "8F63CED7-3680-4993-9CF4-CD4CD6484F7E";
paths = (
{
closed = 1;
nodes = (
"669 362 LINE",
"340 1456 LINE",
"8 1456 LINE",
"513 0 LINE",
"825 0 LINE",
"1333 1456 LINE",
"999 1456 LINE"
);
}
);
width = 1339;
}
);
leftKerningGroup = V;
note = V;
rightKerningGroup = V;
unicode = 0056;
},
{
glyphname = W;
lastChange = "2017-05-28 07:57:32 +0000";
layers = (
{
hints = (
{
horizontal = 1;
origin = "{0, 0}";
type = Anchor;
},
{
horizontal = 1;
origin = "{0, 1}";
type = Anchor;
},
{
horizontal = 1;
origin = "{0, 2}";
type = Anchor;
},
{
horizontal = 1;
origin = "{0, 3}";
type = Anchor;
},
{
horizontal = 1;
origin = "{0, 4}";
type = Anchor;
},
{
horizontal = 1;
origin = "{0, 5}";
type = Anchor;
},
{
horizontal = 1;
origin = "{0, 6}";
type = Anchor;
},
{
horizontal = 1;
origin = "{0, 7}";
type = Anchor;
},
{
horizontal = 1;
origin = "{0, 8}";
type = Anchor;
},
{
horizontal = 1;
origin = "{0, 9}";
type = Anchor;
},
{
horizontal = 1;
origin = "{0, 10}";
type = Anchor;
},
{
horizontal = 1;
origin = "{0, 11}";
type = Anchor;
},
{
horizontal = 1;
origin = "{0, 12}";
type = Anchor;
}
);
layerId = "8F63CED7-3680-4993-9CF4-CD4CD6484F7E";
paths = (
{
closed = 1;
nodes = (
"1265 423 LINE",
"1025 1456 LINE",
"771 1456 LINE",
"531 423 LINE",
"334 1456 LINE",
"35 1456 LINE",
"359 0 LINE",
"661 0 LINE",
"898 974 LINE",
"1135 0 LINE",
"1437 0 LINE",
"1759 1456 LINE",
"1461 1456 LINE"
);
}
);
width = 1792;
}
);
leftKerningGroup = W;
note = W;
rightKerningGroup = W;
unicode = 0057;
},
{
glyphname = X;
lastChange = "2017-05-28 07:57:34 +0000";
layers = (
{
hints = (
{
horizontal = 1;
origin = "{0, 0}";
type = Anchor;
},
{
horizontal = 1;
origin = "{0, 1}";
type = Anchor;
},
{
horizontal = 1;
origin = "{0, 2}";
type = Anchor;
},
{
horizontal = 1;
origin = "{0, 3}";
type = Anchor;
},
{
horizontal = 1;
origin = "{0, 4}";
type = Anchor;
},
{
horizontal = 1;
origin = "{0, 5}";
type = Anchor;
},
{
horizontal = 1;
origin = "{0, 6}";
type = Anchor;
},
{
horizontal = 1;
origin = "{0, 7}";
type = Anchor;
},
{
horizontal = 1;
origin = "{0, 8}";
type = Anchor;
},
{
horizontal = 1;
origin = "{0, 9}";
type = Anchor;
},
{
horizontal = 1;
origin = "{0, 10}";
type = Anchor;
},
{
horizontal = 1;
origin = "{0, 11}";
type = Anchor;
}
);
layerId = "8F63CED7-3680-4993-9CF4-CD4CD6484F7E";
paths = (
{
closed = 1;
nodes = (
"458 734 LINE",
"23 0 LINE",
"372 0 LINE",
"652 510 LINE",
"931 0 LINE",
"1280 0 LINE",
"846 734 LINE",
"1269 1456 LINE",
"924 1456 LINE",
"652 955 LINE",
"379 1456 LINE",
"34 1456 LINE"
);
}
);
width = 1302;
}
);
leftKerningGroup = X;
note = X;
rightKerningGroup = X;
unicode = 0058;
},
{
glyphname = Y;
lastChange = "2017-05-28 07:57:37 +0000";
layers = (
{
hints = (
{
horizontal = 1;
origin = "{0, 0}";
type = Anchor;
},
{
horizontal = 1;
origin = "{0, 1}";
type = Anchor;
},
{
horizontal = 1;
origin = "{0, 2}";
type = Anchor;
},
{
horizontal = 1;
origin = "{0, 3}";
type = Anchor;
},
{
horizontal = 1;
origin = "{0, 4}";
type = Anchor;
},
{
horizontal = 1;
origin = "{0, 5}";
type = Anchor;
},
{
horizontal = 1;
origin = "{0, 6}";
type = Anchor;
},
{
horizontal = 1;
origin = "{0, 7}";
type = Anchor;
},
{
horizontal = 1;
origin = "{0, 8}";
type = Anchor;
}
);
layerId = "8F63CED7-3680-4993-9CF4-CD4CD6484F7E";
paths = (
{
closed = 1;
nodes = (
"481 528 LINE",
"481 0 LINE",
"785 0 LINE",
"785 528 LINE",
"1264 1456 LINE",
"935 1456 LINE",
"633 800 LINE",
"331 1456 LINE",
"2 1456 LINE"
);
}
);
width = 1267;
}
);
leftKerningGroup = Y;
note = Y;
rightKerningGroup = Y;
unicode = 0059;
},
{
glyphname = Z;
lastChange = "2017-05-28 07:57:40 +0000";
layers = (
{
hints = (
{
horizontal = 1;
origin = "{0, 0}";
type = Anchor;
},
{
horizontal = 1;
origin = "{0, 1}";
type = Anchor;
},
{
horizontal = 1;
origin = "{0, 2}";
type = Anchor;
},
{
horizontal = 1;
origin = "{0, 3}";
type = Anchor;
},
{
horizontal = 1;
origin = "{0, 4}";
type = Anchor;
},
{
horizontal = 1;
origin = "{0, 5}";
type = Anchor;
},
{
horizontal = 1;
origin = "{0, 6}";
type = Anchor;
},
{
horizontal = 1;
origin = "{0, 7}";
type = Anchor;
},
{
horizontal = 1;
origin = "{0, 8}";
type = Anchor;
},
{
horizontal = 1;
origin = "{0, 9}";
type = Anchor;
}
);
layerId = "8F63CED7-3680-4993-9CF4-CD4CD6484F7E";
paths = (
{
closed = 1;
nodes = (
"74 176 LINE",
"74 0 LINE",
"1182 0 LINE",
"1182 242 LINE",
"449 242 LINE",
"1166 1284 LINE",
"1166 1456 LINE",
"74 1456 LINE",
"74 1213 LINE",
"794 1213 LINE"
);
}
);
width = 1242;
}
);
leftKerningGroup = Z;
note = Z;
rightKerningGroup = Z;
unicode = 005A;
},
{
glyphname = bracketleft;
lastChange = "2017-04-17 15:03:23 +0000";
layers = (
{
layerId = "8F63CED7-3680-4993-9CF4-CD4CD6484F7E";
paths = (
{
closed = 1;
nodes = (
"120 -339 LINE",
"553 -339 LINE",
"553 -117 LINE",
"410 -117 LINE",
"410 1472 LINE",
"553 1472 LINE",
"553 1695 LINE",
"120 1695 LINE"
);
}
);
width = 570;
}
);
note = bracketleft;
unicode = 005B;
},
{
glyphname = backslash;
lastChange = "2017-04-17 15:03:23 +0000";
layers = (
{
layerId = "8F63CED7-3680-4993-9CF4-CD4CD6484F7E";
paths = (
{
closed = 1;
nodes = (
"295 1456 LINE",
"0 1456 LINE",
"608 -125 LINE",
"903 -125 LINE"
);
}
);
width = 865;
}
);
note = backslash;
unicode = 005C;
},
{
glyphname = bracketright;
lastChange = "2017-04-17 15:03:23 +0000";
layers = (
{
layerId = "8F63CED7-3680-4993-9CF4-CD4CD6484F7E";
paths = (
{
closed = 1;
nodes = (
"157 -117 LINE",
"13 -117 LINE",
"13 -339 LINE",
"446 -339 LINE",
"446 1695 LINE",
"13 1695 LINE",
"13 1472 LINE",
"157 1472 LINE"
);
}
);
width = 570;
}
);
note = bracketright;
unicode = 005D;
},
{
glyphname = asciicircum;
lastChange = "2017-04-17 15:03:23 +0000";
layers = (
{
layerId = "8F63CED7-3680-4993-9CF4-CD4CD6484F7E";
paths = (
{
closed = 1;
nodes = (
"449 1185 LINE",
"623 729 LINE",
"852 729 LINE",
"554 1456 LINE",
"344 1456 LINE",
"45 729 LINE",
"274 729 LINE"
);
}
);
width = 896;
}
);
note = asciicircum;
unicode = 005E;
},
{
glyphname = underscore;
lastChange = "2017-04-17 15:03:23 +0000";
layers = (
{
layerId = "8F63CED7-3680-4993-9CF4-CD4CD6484F7E";
paths = (
{
closed = 1;
nodes = (
"1 -226 LINE",
"912 -226 LINE",
"912 0 LINE",
"1 0 LINE"
);
}
);
width = 915;
}
);
note = underscore;
unicode = 005F;
},
{
glyphname = grave;
lastChange = "2017-04-17 15:03:23 +0000";
layers = (
{
layerId = "8F63CED7-3680-4993-9CF4-CD4CD6484F7E";
paths = (
{
closed = 1;
nodes = (
"328 1227 LINE",
"565 1227 LINE",
"368 1536 LINE",
"52 1536 LINE"
);
}
);
width = 678;
}
);
note = grave;
unicode = 0060;
},
{
glyphname = a;
lastChange = "2017-04-17 15:03:23 +0000";
layers = (
{
layerId = "8F63CED7-3680-4993-9CF4-CD4CD6484F7E";
paths = (
{
closed = 1;
nodes = (
"1030 17 LINE",
"1003 70 OFFCURVE",
"988 144 OFFCURVE",
"987 240 CURVE",
"987 722 LINE SMOOTH",
"987 975 OFFCURVE",
"802 1102 OFFCURVE",
"553 1102 CURVE SMOOTH",
"273 1102 OFFCURVE",
"93 946 OFFCURVE",
"93 758 CURVE",
"382 758 LINE",
"382 845 OFFCURVE",
"434 888 OFFCURVE",
"537 888 CURVE SMOOTH",
"648 888 OFFCURVE",
"697 824 OFFCURVE",
"697 724 CURVE SMOOTH",
"697 661 LINE",
"568 661 LINE SMOOTH",
"239 661 OFFCURVE",
"69 531 OFFCURVE",
"69 304 CURVE SMOOTH",
"69 116 OFFCURVE",
"229 -20 OFFCURVE",
"436 -20 CURVE SMOOTH",
"548 -20 OFFCURVE",
"639 19 OFFCURVE",
"709 97 CURVE",
"716 58 OFFCURVE",
"726 25 OFFCURVE",
"738 0 CURVE",
"1030 0 LINE"
);
},
{
closed = 1;
nodes = (
"411 201 OFFCURVE",
"358 253 OFFCURVE",
"358 325 CURVE SMOOTH",
"358 420 OFFCURVE",
"426 493 OFFCURVE",
"579 493 CURVE SMOOTH",
"697 493 LINE",
"697 305 LINE",
"668 253 OFFCURVE",
"596 201 OFFCURVE",
"499 201 CURVE SMOOTH"
);
}
);
width = 1098;
}
);
leftKerningGroup = a;
note = a;
rightKerningGroup = a;
unicode = 0061;
},
{
glyphname = b;
lastChange = "2017-04-17 15:03:23 +0000";
layers = (
{
layerId = "8F63CED7-3680-4993-9CF4-CD4CD6484F7E";
paths = (
{
closed = 1;
nodes = (
"1086 872 OFFCURVE",
"948 1102 OFFCURVE",
"664 1102 CURVE SMOOTH",
"556 1102 OFFCURVE",
"468 1063 OFFCURVE",
"401 986 CURVE",
"401 1536 LINE",
"111 1536 LINE",
"111 0 LINE",
"372 0 LINE",
"385 115 LINE",
"455 25 OFFCURVE",
"549 -20 OFFCURVE",
"666 -20 CURVE SMOOTH",
"947 -20 OFFCURVE",
"1086 207 OFFCURVE",
"1086 531 CURVE SMOOTH",
"1086 552 LINE SMOOTH"
);
},
{
closed = 1;
nodes = (
"755 868 OFFCURVE",
"797 723 OFFCURVE",
"797 552 CURVE SMOOTH",
"797 337 OFFCURVE",
"754 214 OFFCURVE",
"593 214 CURVE SMOOTH",
"500 214 OFFCURVE",
"436 252 OFFCURVE",
"401 327 CURVE",
"401 755 LINE",
"436 830 OFFCURVE",
"500 868 OFFCURVE",
"591 868 CURVE SMOOTH"
);
}
);
width = 1153;
}
);
note = b;
rightKerningGroup = b;
unicode = 0062;
},
{
glyphname = c;
lastChange = "2017-04-17 15:03:23 +0000";
layers = (
{
layerId = "8F63CED7-3680-4993-9CF4-CD4CD6484F7E";
paths = (
{
closed = 1;
nodes = (
"390 213 OFFCURVE",
"356 360 OFFCURVE",
"356 527 CURVE SMOOTH",
"356 731 OFFCURVE",
"392 869 OFFCURVE",
"560 869 CURVE SMOOTH",
"677 869 OFFCURVE",
"742 784 OFFCURVE",
"743 679 CURVE",
"1015 679 LINE",
"1012 939 OFFCURVE",
"830 1102 OFFCURVE",
"565 1102 CURVE SMOOTH",
"230 1102 OFFCURVE",
"66 860 OFFCURVE",
"66 555 CURVE SMOOTH",
"66 527 LINE SMOOTH",
"66 220 OFFCURVE",
"231 -20 OFFCURVE",
"566 -20 CURVE SMOOTH",
"817 -20 OFFCURVE",
"1012 145 OFFCURVE",
"1015 374 CURVE",
"743 374 LINE",
"742 275 OFFCURVE",
"666 213 OFFCURVE",
"561 213 CURVE SMOOTH"
);
}
);
width = 1069;
}
);
leftKerningGroup = c;
note = c;
rightKerningGroup = c;
unicode = 0063;
},
{
glyphname = d;
lastChange = "2017-04-17 15:03:23 +0000";
layers = (
{
layerId = "8F63CED7-3680-4993-9CF4-CD4CD6484F7E";
paths = (
{
closed = 1;
nodes = (
"1041 1536 LINE",
"751 1536 LINE",
"751 985 LINE",
"683 1063 OFFCURVE",
"596 1102 OFFCURVE",
"491 1102 CURVE SMOOTH",
"220 1102 OFFCURVE",
"66 878 OFFCURVE",
"66 549 CURVE SMOOTH",
"66 528 LINE SMOOTH",
"66 213 OFFCURVE",
"221 -20 OFFCURVE",
"489 -20 CURVE SMOOTH",
"602 -20 OFFCURVE",
"695 25 OFFCURVE",
"766 115 CURVE",
"780 0 LINE",
"1041 0 LINE"
);
},
{
closed = 1;
nodes = (
"356 736 OFFCURVE",
"413 868 OFFCURVE",
"564 868 CURVE SMOOTH",
"652 868 OFFCURVE",
"714 831 OFFCURVE",
"751 756 CURVE",
"751 327 LINE",
"713 252 OFFCURVE",
"650 215 OFFCURVE",
"562 215 CURVE SMOOTH",
"410 215 OFFCURVE",
"356 355 OFFCURVE",
"356 528 CURVE SMOOTH"
);
}
);
width = 1155;
}
);
leftKerningGroup = c;
note = d;
unicode = 0064;
},
{
glyphname = e;
lastChange = "2017-04-17 15:03:23 +0000";
layers = (
{
layerId = "8F63CED7-3680-4993-9CF4-CD4CD6484F7E";
paths = (
{
closed = 1;
nodes = (
"825 253 OFFCURVE",
"738 213 OFFCURVE",
"628 213 CURVE SMOOTH",
"480 213 OFFCURVE",
"386 307 OFFCURVE",
"366 447 CURVE",
"1055 447 LINE",
"1055 570 LINE SMOOTH",
"1055 890 OFFCURVE",
"889 1102 OFFCURVE",
"578 1102 CURVE SMOOTH",
"269 1102 OFFCURVE",
"73 870 OFFCURVE",
"73 543 CURVE SMOOTH",
"73 501 LINE SMOOTH",
"74 213 OFFCURVE",
"274 -20 OFFCURVE",
"610 -20 CURVE SMOOTH",
"821 -20 OFFCURVE",
"963 77 OFFCURVE",
"1032 176 CURVE",
"889 334 LINE"
);
},
{
closed = 1;
nodes = (
"709 869 OFFCURVE",
"768 783 OFFCURVE",
"771 667 CURVE SMOOTH",
"771 645 LINE",
"369 645 LINE",
"389 778 OFFCURVE",
"453 869 OFFCURVE",
"576 869 CURVE SMOOTH"
);
}
);
width = 1107;
}
);
leftKerningGroup = c;
note = e;
rightKerningGroup = e;
unicode = 0065;
},
{
glyphname = f;
lastChange = "2017-04-17 15:03:23 +0000";
layers = (
{
layerId = "8F63CED7-3680-4993-9CF4-CD4CD6484F7E";
paths = (
{
closed = 1;
nodes = (
"480 1082 LINE",
"480 1181 LINE SMOOTH",
"482 1275 OFFCURVE",
"536 1322 OFFCURVE",
"643 1322 CURVE SMOOTH",
"677 1322 OFFCURVE",
"707 1319 OFFCURVE",
"732 1313 CURVE",
"735 1537 LINE",
"683 1550 OFFCURVE",
"634 1557 OFFCURVE",
"587 1557 CURVE SMOOTH",
"343 1557 OFFCURVE",
"190 1423 OFFCURVE",
"190 1176 CURVE SMOOTH",
"190 1082 LINE",
"29 1082 LINE",
"29 871 LINE",
"190 871 LINE",
"190 0 LINE",
"480 0 LINE",
"480 871 LINE",
"695 871 LINE",
"695 1082 LINE"
);
}
);
width = 734;
}
);
note = f;
unicode = 0066;
},
{
glyphname = g;
lastChange = "2017-04-17 15:03:23 +0000";
layers = (
{
layerId = "8F63CED7-3680-4993-9CF4-CD4CD6484F7E";
paths = (
{
closed = 1;
nodes = (
"847 -426 OFFCURVE",
"1059 -260 OFFCURVE",
"1059 37 CURVE SMOOTH",
"1059 1082 LINE",
"797 1082 LINE",
"786 980 LINE",
"720 1061 OFFCURVE",
"627 1102 OFFCURVE",
"508 1102 CURVE SMOOTH",
"236 1102 OFFCURVE",
"69 878 OFFCURVE",
"69 549 CURVE SMOOTH",
"69 520 LINE SMOOTH",
"72 211 OFFCURVE",
"238 -20 OFFCURVE",
"506 -20 CURVE SMOOTH",
"613 -20 OFFCURVE",
"701 18 OFFCURVE",
"769 94 CURVE",
"769 36 LINE SMOOTH",
"769 -116 OFFCURVE",
"679 -201 OFFCURVE",
"526 -201 CURVE SMOOTH",
"422 -201 OFFCURVE",
"334 -161 OFFCURVE",
"263 -81 CURVE",
"135 -257 LINE",
"228 -373 OFFCURVE",
"407 -426 OFFCURVE",
"538 -426 CURVE SMOOTH"
);
},
{
closed = 1;
nodes = (
"358 728 OFFCURVE",
"430 868 OFFCURVE",
"581 868 CURVE SMOOTH",
"668 868 OFFCURVE",
"731 835 OFFCURVE",
"769 769 CURVE",
"769 315 LINE",
"730 248 OFFCURVE",
"667 215 OFFCURVE",
"579 215 CURVE SMOOTH",
"427 215 OFFCURVE",
"358 355 OFFCURVE",
"358 528 CURVE SMOOTH",
"358 549 LINE SMOOTH"
);
}
);
width = 1170;
}
);
leftKerningGroup = c;
note = g;
unicode = 0067;
},
{
glyphname = h;
lastChange = "2017-04-17 15:07:13 +0000";
layers = (
{
layerId = "8F63CED7-3680-4993-9CF4-CD4CD6484F7E";
paths = (
{
closed = 1;
nodes = (
"688 868 OFFCURVE",
"750 824 OFFCURVE",
"750 684 CURVE SMOOTH",
"750 0 LINE",
"1040 0 LINE",
"1040 687 LINE",
"1039 990 OFFCURVE",
"895 1102 OFFCURVE",
"683 1102 CURVE SMOOTH",
"566 1102 OFFCURVE",
"469 1056 OFFCURVE",
"394 965 CURVE",
"394 1536 LINE",
"105 1536 LINE",
"105 0 LINE",
"394 0 LINE",
"394 771 LINE",
"432 836 OFFCURVE",
"493 868 OFFCURVE",
"577 868 CURVE SMOOTH"
);
}
);
width = 1147;
}
);
note = h;
rightKerningGroup = h;
unicode = 0068;
},
{
glyphname = i;
lastChange = "2017-04-17 15:03:23 +0000";
layers = (
{
layerId = "8F63CED7-3680-4993-9CF4-CD4CD6484F7E";
paths = (
{
closed = 1;
nodes = (
"109 1277 OFFCURVE",
"172 1213 OFFCURVE",
"271 1213 CURVE SMOOTH",
"370 1213 OFFCURVE",
"433 1277 OFFCURVE",
"433 1362 CURVE SMOOTH",
"433 1449 OFFCURVE",
"370 1512 OFFCURVE",
"271 1512 CURVE SMOOTH",
"172 1512 OFFCURVE",
"109 1449 OFFCURVE",
"109 1362 CURVE SMOOTH"
);
},
{
closed = 1;
nodes = (
"127 0 LINE",
"417 0 LINE",
"417 1082 LINE",
"127 1082 LINE"
);
}
);
width = 543;
}
);
note = i;
unicode = 0069;
},
{
glyphname = j;
lastChange = "2017-04-17 15:03:23 +0000";
layers = (
{
layerId = "8F63CED7-3680-4993-9CF4-CD4CD6484F7E";
paths = (
{
closed = 1;
nodes = (
"105 1277 OFFCURVE",
"167 1213 OFFCURVE",
"266 1213 CURVE SMOOTH",
"365 1213 OFFCURVE",
"428 1277 OFFCURVE",
"428 1362 CURVE SMOOTH",
"428 1449 OFFCURVE",
"365 1512 OFFCURVE",
"266 1512 CURVE SMOOTH",
"167 1512 OFFCURVE",
"105 1449 OFFCURVE",
"105 1362 CURVE SMOOTH"
);
},
{
closed = 1;
nodes = (
"127 -153 OFFCURVE",
"83 -200 OFFCURVE",
"-4 -200 CURVE SMOOTH",
"-35 -200 OFFCURVE",
"-65 -197 OFFCURVE",
"-96 -191 CURVE",
"-96 -420 LINE",
"-50 -431 OFFCURVE",
"-2 -437 OFFCURVE",
"49 -437 CURVE SMOOTH",
"282 -437 OFFCURVE",
"417 -304 OFFCURVE",
"417 -60 CURVE SMOOTH",
"417 1082 LINE",
"127 1082 LINE",
"127 -60 LINE SMOOTH"
);
}
);
width = 533;
}
);
note = j;
unicode = 006A;
},
{
glyphname = k;
lastChange = "2017-04-17 15:03:23 +0000";
layers = (
{
layerId = "8F63CED7-3680-4993-9CF4-CD4CD6484F7E";
paths = (
{
closed = 1;
nodes = (
"690 632 LINE",
"1080 1082 LINE",
"733 1082 LINE",
"457 758 LINE",
"401 686 LINE",
"401 1537 LINE",
"112 1537 LINE",
"112 0 LINE",
"401 0 LINE",
"401 331 LINE",
"504 434 LINE",
"782 0 LINE",
"1115 0 LINE"
);
}
);
width = 1094;
}
);
note = k;
unicode = 006B;
},
{
glyphname = l;
lastChange = "2017-04-17 15:03:23 +0000";
layers = (
{
layerId = "8F63CED7-3680-4993-9CF4-CD4CD6484F7E";
paths = (
{
closed = 1;
nodes = (
"127 0 LINE",
"417 0 LINE",
"417 1536 LINE",
"127 1536 LINE"
);
}
);
width = 543;
}
);
note = l;
unicode = 006C;
},
{
glyphname = m;
lastChange = "2017-04-17 15:03:23 +0000";
layers = (
{
layerId = "8F63CED7-3680-4993-9CF4-CD4CD6484F7E";
paths = (
{
closed = 1;
nodes = (
"679 868 OFFCURVE",
"742 831 OFFCURVE",
"742 688 CURVE SMOOTH",
"742 0 LINE",
"1031 0 LINE",
"1031 747 LINE",
"1065 828 OFFCURVE",
"1125 868 OFFCURVE",
"1210 868 CURVE SMOOTH",
"1310 868 OFFCURVE",
"1372 834 OFFCURVE",
"1372 690 CURVE SMOOTH",
"1372 0 LINE",
"1662 0 LINE",
"1662 694 LINE",
"1661 993 OFFCURVE",
"1523 1102 OFFCURVE",
"1315 1102 CURVE SMOOTH",
"1172 1102 OFFCURVE",
"1064 1047 OFFCURVE",
"990 937 CURVE",
"938 1047 OFFCURVE",
"842 1102 OFFCURVE",
"703 1102 CURVE SMOOTH",
"572 1102 OFFCURVE",
"468 1056 OFFCURVE",
"393 963 CURVE",
"383 1082 LINE",
"111 1082 LINE",
"111 0 LINE",
"401 0 LINE",
"401 766 LINE",
"439 834 OFFCURVE",
"498 868 OFFCURVE",
"578 868 CURVE SMOOTH"
);
}
);
width = 1773;
}
);
leftKerningGroup = m;
note = m;
rightKerningGroup = h;
unicode = 006D;
},
{
glyphname = n;
lastChange = "2017-04-17 15:03:23 +0000";
layers = (
{
layerId = "8F63CED7-3680-4993-9CF4-CD4CD6484F7E";
paths = (
{
closed = 1;
nodes = (
"689 868 OFFCURVE",
"750 829 OFFCURVE",
"750 690 CURVE SMOOTH",
"750 0 LINE",
"1040 0 LINE",
"1040 694 LINE",
"1039 995 OFFCURVE",
"902 1102 OFFCURVE",
"698 1102 CURVE SMOOTH",
"568 1102 OFFCURVE",
"464 1054 OFFCURVE",
"387 958 CURVE",
"377 1082 LINE",
"106 1082 LINE",
"106 0 LINE",
"395 0 LINE",
"395 764 LINE",
"435 833 OFFCURVE",
"496 868 OFFCURVE",
"578 868 CURVE SMOOTH"
);
}
);
width = 1147;
}
);
leftKerningGroup = m;
note = n;
rightKerningGroup = h;
unicode = 006E;
},
{
glyphname = o;
lastChange = "2017-04-17 15:03:23 +0000";
layers = (
{
layerId = "8F63CED7-3680-4993-9CF4-CD4CD6484F7E";
paths = (
{
closed = 1;
nodes = (
"71 209 OFFCURVE",
"256 -20 OFFCURVE",
"580 -20 CURVE SMOOTH",
"907 -20 OFFCURVE",
"1091 215 OFFCURVE",
"1091 530 CURVE SMOOTH",
"1091 551 LINE SMOOTH",
"1091 866 OFFCURVE",
"907 1102 OFFCURVE",
"578 1102 CURVE SMOOTH",
"253 1102 OFFCURVE",
"66 866 OFFCURVE",
"66 551 CURVE SMOOTH",
"66 517 LINE SMOOTH"
);
},
{
closed = 1;
nodes = (
"356 731 OFFCURVE",
"415 869 OFFCURVE",
"578 869 CURVE SMOOTH",
"742 869 OFFCURVE",
"802 723 OFFCURVE",
"802 551 CURVE SMOOTH",
"802 346 OFFCURVE",
"741 213 OFFCURVE",
"580 213 CURVE SMOOTH",
"416 213 OFFCURVE",
"356 354 OFFCURVE",
"356 530 CURVE SMOOTH"
);
}
);
width = 1158;
}
);
leftKerningGroup = o;
note = o;
rightKerningGroup = o;
unicode = 006F;
},
{
glyphname = p;
lastChange = "2017-04-17 15:03:23 +0000";
layers = (
{
layerId = "8F63CED7-3680-4993-9CF4-CD4CD6484F7E";
paths = (
{
closed = 1;
nodes = (
"937 -20 OFFCURVE",
"1086 217 OFFCURVE",
"1086 532 CURVE SMOOTH",
"1086 553 LINE SMOOTH",
"1086 882 OFFCURVE",
"938 1102 OFFCURVE",
"663 1102 CURVE SMOOTH",
"550 1102 OFFCURVE",
"460 1060 OFFCURVE",
"391 977 CURVE",
"380 1082 LINE",
"111 1082 LINE",
"111 -416 LINE",
"401 -416 LINE",
"401 95 LINE",
"470 18 OFFCURVE",
"558 -20 OFFCURVE",
"666 -20 CURVE SMOOTH"
);
},
{
closed = 1;
nodes = (
"737 868 OFFCURVE",
"797 732 OFFCURVE",
"797 553 CURVE SMOOTH",
"797 349 OFFCURVE",
"741 213 OFFCURVE",
"590 213 CURVE SMOOTH",
"500 213 OFFCURVE",
"437 249 OFFCURVE",
"401 320 CURVE",
"401 763 LINE",
"436 833 OFFCURVE",
"498 868 OFFCURVE",
"588 868 CURVE SMOOTH"
);
}
);
width = 1153;
}
);
leftKerningGroup = m;
note = p;
rightKerningGroup = b;
unicode = 0070;
},
{
glyphname = q;
lastChange = "2017-04-17 15:03:23 +0000";
layers = (
{
layerId = "8F63CED7-3680-4993-9CF4-CD4CD6484F7E";
paths = (
{
closed = 1;
nodes = (
"769 971 LINE",
"700 1058 OFFCURVE",
"607 1102 OFFCURVE",
"492 1102 CURVE SMOOTH",
"217 1102 OFFCURVE",
"66 880 OFFCURVE",
"66 551 CURVE SMOOTH",
"66 530 LINE SMOOTH",
"66 215 OFFCURVE",
"219 -20 OFFCURVE",
"490 -20 CURVE SMOOTH",
"596 -20 OFFCURVE",
"683 17 OFFCURVE",
"751 92 CURVE",
"751 -416 LINE",
"1041 -416 LINE",
"1041 1082 LINE",
"787 1082 LINE"
);
},
{
closed = 1;
nodes = (
"356 739 OFFCURVE",
"414 869 OFFCURVE",
"565 869 CURVE SMOOTH",
"653 869 OFFCURVE",
"715 835 OFFCURVE",
"751 767 CURVE",
"751 319 LINE",
"714 248 OFFCURVE",
"651 213 OFFCURVE",
"563 213 CURVE SMOOTH",
"411 213 OFFCURVE",
"356 357 OFFCURVE",
"356 530 CURVE SMOOTH"
);
}
);
width = 1157;
}
);
leftKerningGroup = c;
note = q;
unicode = 0071;
},
{
glyphname = r;
lastChange = "2017-04-17 15:03:23 +0000";
layers = (
{
layerId = "8F63CED7-3680-4993-9CF4-CD4CD6484F7E";
paths = (
{
closed = 1;
nodes = (
"723 1089 LINE",
"700 1098 OFFCURVE",
"671 1102 OFFCURVE",
"634 1102 CURVE SMOOTH",
"530 1102 OFFCURVE",
"450 1052 OFFCURVE",
"393 953 CURVE",
"384 1082 LINE",
"111 1082 LINE",
"111 0 LINE",
"401 0 LINE",
"401 709 LINE",
"435 783 OFFCURVE",
"506 820 OFFCURVE",
"615 820 CURVE",
"720 812 LINE"
);
}
);
width = 748;
}
);
note = r;
rightKerningGroup = r;
unicode = 0072;
},
{
glyphname = s;
lastChange = "2017-04-17 15:03:23 +0000";
layers = (
{
layerId = "8F63CED7-3680-4993-9CF4-CD4CD6484F7E";
paths = (
{
closed = 1;
nodes = (
"697 224 OFFCURVE",
"641 186 OFFCURVE",
"529 186 CURVE SMOOTH",
"426 186 OFFCURVE",
"336 232 OFFCURVE",
"331 345 CURVE",
"56 345 LINE",
"56 169 OFFCURVE",
"220 -20 OFFCURVE",
"523 -20 CURVE SMOOTH",
"802 -20 OFFCURVE",
"978 120 OFFCURVE",
"978 311 CURVE SMOOTH",
"978 526 OFFCURVE",
"805 604 OFFCURVE",
"570 651 CURVE SMOOTH",
"493 666 OFFCURVE",
"440 684 OFFCURVE",
"411 704 CURVE SMOOTH",
"382 724 OFFCURVE",
"368 749 OFFCURVE",
"368 780 CURVE SMOOTH",
"368 847 OFFCURVE",
"425 897 OFFCURVE",
"521 897 CURVE SMOOTH",
"634 897 OFFCURVE",
"686 836 OFFCURVE",
"686 753 CURVE",
"975 753 LINE",
"975 954 OFFCURVE",
"803 1102 OFFCURVE",
"522 1102 CURVE SMOOTH",
"253 1102 OFFCURVE",
"91 946 OFFCURVE",
"91 766 CURVE SMOOTH",
"91 581 OFFCURVE",
"249 487 OFFCURVE",
"472 439 CURVE SMOOTH",
"565 419 OFFCURVE",
"626 399 OFFCURVE",
"655 378 CURVE SMOOTH",
"683 357 OFFCURVE",
"697 331 OFFCURVE",
"697 300 CURVE SMOOTH"
);
}
);
width = 1054;
}
);
leftKerningGroup = s;
note = s;
unicode = 0073;
},
{
glyphname = t;
lastChange = "2017-04-17 15:03:23 +0000";
layers = (
{
layerId = "8F63CED7-3680-4993-9CF4-CD4CD6484F7E";
paths = (
{
closed = 1;
nodes = (
"626 221 OFFCURVE",
"598 218 OFFCURVE",
"569 218 CURVE SMOOTH",
"496 218 OFFCURVE",
"458 239 OFFCURVE",
"458 330 CURVE SMOOTH",
"458 871 LINE",
"642 871 LINE",
"642 1082 LINE",
"458 1082 LINE",
"458 1349 LINE",
"169 1349 LINE",
"169 1082 LINE",
"10 1082 LINE",
"10 871 LINE",
"169 871 LINE",
"169 300 LINE SMOOTH",
"169 71 OFFCURVE",
"290 -20 OFFCURVE",
"479 -20 CURVE SMOOTH",
"541 -20 OFFCURVE",
"599 -11 OFFCURVE",
"653 7 CURVE",
"653 226 LINE"
);
}
);
width = 692;
}
);
note = t;
unicode = 0074;
},
{
glyphname = u;
lastChange = "2017-04-17 15:03:23 +0000";
layers = (
{
layerId = "8F63CED7-3680-4993-9CF4-CD4CD6484F7E";
paths = (
{
closed = 1;
nodes = (
"1040 1082 LINE",
"750 1082 LINE",
"750 318 LINE",
"713 249 OFFCURVE",
"645 215 OFFCURVE",
"547 215 CURVE SMOOTH",
"458 215 OFFCURVE",
"394 260 OFFCURVE",
"394 380 CURVE SMOOTH",
"394 1082 LINE",
"105 1082 LINE",
"105 378 LINE SMOOTH",
"106 95 OFFCURVE",
"252 -20 OFFCURVE",
"464 -20 CURVE SMOOTH",
"591 -20 OFFCURVE",
"689 24 OFFCURVE",
"760 111 CURVE",
"768 0 LINE",
"1040 0 LINE"
);
}
);
width = 1147;
}
);
leftKerningGroup = u;
note = u;
unicode = 0075;
},
{
glyphname = v;
lastChange = "2017-04-17 15:03:23 +0000";
layers = (
{
layerId = "8F63CED7-3680-4993-9CF4-CD4CD6484F7E";
paths = (
{
closed = 1;
nodes = (
"517 355 LINE",
"316 1082 LINE",
"13 1082 LINE",
"379 0 LINE",
"654 0 LINE",
"1019 1082 LINE",
"717 1082 LINE"
);
}
);
width = 1036;
}
);
leftKerningGroup = v;
note = v;
rightKerningGroup = v;
unicode = 0076;
},
{
glyphname = w;
lastChange = "2017-04-17 15:03:23 +0000";
layers = (
{
layerId = "8F63CED7-3680-4993-9CF4-CD4CD6484F7E";
paths = (
{
closed = 1;
nodes = (
"1053 395 LINE",
"855 1082 LINE",
"646 1082 LINE",
"450 394 LINE",
"307 1082 LINE",
"28 1082 LINE",
"304 0 LINE",
"545 0 LINE",
"750 681 LINE",
"956 0 LINE",
"1198 0 LINE",
"1473 1082 LINE",
"1194 1082 LINE"
);
}
);
width = 1505;
}
);
note = w;
unicode = 0077;
},
{
glyphname = x;
lastChange = "2017-04-17 15:03:23 +0000";
layers = (
{
layerId = "8F63CED7-3680-4993-9CF4-CD4CD6484F7E";
paths = (
{
closed = 1;
nodes = (
"343 553 LINE",
"22 0 LINE",
"333 0 LINE",
"524 341 LINE",
"718 0 LINE",
"1027 0 LINE",
"706 553 LINE",
"1014 1082 LINE",
"705 1082 LINE",
"523 760 LINE",
"346 1082 LINE",
"35 1082 LINE"
);
}
);
width = 1043;
}
);
leftKerningGroup = x;
note = x;
rightKerningGroup = x;
unicode = 0078;
},
{
glyphname = y;
lastChange = "2017-04-17 15:03:23 +0000";
layers = (
{
layerId = "8F63CED7-3680-4993-9CF4-CD4CD6484F7E";
paths = (
{
closed = 1;
nodes = (
"322 -437 OFFCURVE",
"383 -422 OFFCURVE",
"430 -391 CURVE SMOOTH",
"522 -330 OFFCURVE",
"567 -234 OFFCURVE",
"592 -162 CURVE SMOOTH",
"1025 1082 LINE",
"716 1082 LINE",
"516 408 LINE",
"315 1082 LINE",
"4 1082 LINE",
"383 -2 LINE",
"351 -85 LINE SMOOTH",
"323 -165 OFFCURVE",
"276 -200 OFFCURVE",
"163 -200 CURVE SMOOTH",
"118 -199 LINE",
"118 -418 LINE",
"166 -431 OFFCURVE",
"209 -437 OFFCURVE",
"246 -437 CURVE SMOOTH"
);
}
);
width = 1029;
}
);
leftKerningGroup = v;
note = y;
rightKerningGroup = v;
unicode = 0079;
},
{
glyphname = z;
lastChange = "2017-04-17 15:03:23 +0000";
layers = (
{
layerId = "8F63CED7-3680-4993-9CF4-CD4CD6484F7E";
paths = (
{
closed = 1;
nodes = (
"74 176 LINE",
"74 0 LINE",
"972 0 LINE",
"972 233 LINE",
"443 233 LINE",
"957 912 LINE",
"957 1082 LINE",
"90 1082 LINE",
"90 849 LINE",
"585 849 LINE"
);
}
);
width = 1043;
}
);
leftKerningGroup = z;
note = z;
rightKerningGroup = z;
unicode = 007A;
},
{
glyphname = braceleft;
lastChange = "2017-04-17 15:03:23 +0000";
layers = (
{
layerId = "8F63CED7-3680-4993-9CF4-CD4CD6484F7E";
paths = (
{
closed = 1;
nodes = (
"167 515 OFFCURVE",
"226 445 OFFCURVE",
"226 304 CURVE SMOOTH",
"226 106 LINE SMOOTH",
"226 -105 OFFCURVE",
"311 -283 OFFCURVE",
"586 -360 CURVE",
"642 -198 LINE",
"521 -155 OFFCURVE",
"486 -37 OFFCURVE",
"486 106 CURVE SMOOTH",
"486 300 LINE SMOOTH",
"486 453 OFFCURVE",
"427 559 OFFCURVE",
"308 619 CURVE",
"427 679 OFFCURVE",
"486 785 OFFCURVE",
"486 938 CURVE SMOOTH",
"486 1132 LINE SMOOTH",
"486 1275 OFFCURVE",
"521 1393 OFFCURVE",
"642 1436 CURVE",
"586 1597 LINE",
"311 1520 OFFCURVE",
"226 1343 OFFCURVE",
"226 1132 CURVE SMOOTH",
"226 934 LINE SMOOTH",
"226 793 OFFCURVE",
"167 722 OFFCURVE",
"48 722 CURVE",
"48 515 LINE"
);
}
);
width = 677;
}
);
note = braceleft;
unicode = 007B;
},
{
glyphname = bar;
lastChange = "2017-04-17 15:03:23 +0000";
layers = (
{
layerId = "8F63CED7-3680-4993-9CF4-CD4CD6484F7E";
paths = (
{
closed = 1;
nodes = (
"174 -270 LINE",
"349 -270 LINE",
"349 1456 LINE",
"174 1456 LINE"
);
}
);
width = 519;
}
);
note = bar;
unicode = 007C;
},
{
glyphname = braceright;
lastChange = "2017-04-17 15:03:23 +0000";
layers = (
{
layerId = "8F63CED7-3680-4993-9CF4-CD4CD6484F7E";
paths = (
{
closed = 1;
nodes = (
"509 722 OFFCURVE",
"450 793 OFFCURVE",
"450 934 CURVE SMOOTH",
"450 1132 LINE SMOOTH",
"450 1343 OFFCURVE",
"365 1520 OFFCURVE",
"90 1597 CURVE",
"34 1436 LINE",
"157 1393 OFFCURVE",
"190 1275 OFFCURVE",
"190 1132 CURVE SMOOTH",
"190 937 LINE SMOOTH",
"190 784 OFFCURVE",
"251 678 OFFCURVE",
"374 619 CURVE",
"251 559 OFFCURVE",
"190 453 OFFCURVE",
"190 302 CURVE SMOOTH",
"190 106 LINE SMOOTH",
"190 -37 OFFCURVE",
"157 -155 OFFCURVE",
"34 -198 CURVE",
"90 -360 LINE",
"365 -283 OFFCURVE",
"450 -105 OFFCURVE",
"450 106 CURVE SMOOTH",
"450 304 LINE SMOOTH",
"450 445 OFFCURVE",
"509 515 OFFCURVE",
"628 515 CURVE",
"628 722 LINE"
);
}
);
width = 677;
}
);
note = braceright;
unicode = 007D;
},
{
glyphname = asciitilde;
lastChange = "2017-04-17 15:03:23 +0000";
layers = (
{
layerId = "8F63CED7-3680-4993-9CF4-CD4CD6484F7E";
paths = (
{
closed = 1;
nodes = (
"1008 691 OFFCURVE",
"953 613 OFFCURVE",
"874 613 CURVE SMOOTH",
"829 613 OFFCURVE",
"780 639 OFFCURVE",
"726 690 CURVE SMOOTH",
"617 793 OFFCURVE",
"541 828 OFFCURVE",
"437 828 CURVE SMOOTH",
"244 828 OFFCURVE",
"106 672 OFFCURVE",
"106 416 CURVE",
"321 413 LINE",
"321 516 OFFCURVE",
"373 591 OFFCURVE",
"452 591 CURVE SMOOTH",
"498 591 OFFCURVE",
"549 565 OFFCURVE",
"604 514 CURVE SMOOTH",
"714 410 OFFCURVE",
"784 376 OFFCURVE",
"888 376 CURVE SMOOTH",
"1083 376 OFFCURVE",
"1221 541 OFFCURVE",
"1221 794 CURVE",
"1008 794 LINE"
);
}
);
width = 1329;
}
);
note = asciitilde;
unicode = 007E;
},
{
glyphname = exclamdown;
lastChange = "2017-04-17 15:03:23 +0000";
layers = (
{
layerId = "8F63CED7-3680-4993-9CF4-CD4CD6484F7E";
paths = (
{
closed = 1;
nodes = (
"452 1036 OFFCURVE",
"388 1102 OFFCURVE",
"291 1102 CURVE SMOOTH",
"192 1102 OFFCURVE",
"129 1036 OFFCURVE",
"129 949 CURVE SMOOTH",
"129 862 OFFCURVE",
"192 796 OFFCURVE",
"291 796 CURVE SMOOTH",
"388 796 OFFCURVE",
"452 862 OFFCURVE",
"452 949 CURVE SMOOTH"
);
},
{
closed = 1;
nodes = (
"411 639 LINE",
"171 639 LINE",
"137 -369 LINE",
"445 -369 LINE"
);
}
);
width = 579;
}
);
note = exclamdown;
unicode = 00A1;
},
{
glyphname = cent;
lastChange = "2017-04-17 15:03:23 +0000";
layers = (
{
layerId = "8F63CED7-3680-4993-9CF4-CD4CD6484F7E";
paths = (
{
closed = 1;
nodes = (
"774 275 OFFCURVE",
"700 213 OFFCURVE",
"595 213 CURVE SMOOTH",
"423 213 OFFCURVE",
"389 360 OFFCURVE",
"389 527 CURVE SMOOTH",
"389 731 OFFCURVE",
"426 869 OFFCURVE",
"593 869 CURVE SMOOTH",
"712 869 OFFCURVE",
"774 784 OFFCURVE",
"777 679 CURVE",
"1048 679 LINE",
"1047 904 OFFCURVE",
"910 1057 OFFCURVE",
"699 1094 CURVE",
"699 1318 LINE",
"499 1318 LINE",
"499 1094 LINE",
"232 1051 OFFCURVE",
"100 828 OFFCURVE",
"100 555 CURVE SMOOTH",
"100 528 LINE SMOOTH",
"100 252 OFFCURVE",
"231 32 OFFCURVE",
"499 -12 CURVE",
"499 -245 LINE",
"699 -245 LINE",
"699 -11 LINE",
"900 26 OFFCURVE",
"1047 177 OFFCURVE",
"1048 374 CURVE",
"777 374 LINE"
);
}
);
width = 1179;
}
);
note = cent;
unicode = 00A2;
},
{
glyphname = sterling;
lastChange = "2017-04-17 15:03:23 +0000";
layers = (
{
layerId = "8F63CED7-3680-4993-9CF4-CD4CD6484F7E";
paths = (
{
closed = 1;
nodes = (
"1162 242 LINE",
"510 242 LINE",
"551 291 OFFCURVE",
"571 356 OFFCURVE",
"571 438 CURVE",
"565 577 LINE",
"865 577 LINE",
"865 812 LINE",
"555 812 LINE",
"546 1039 LINE",
"546 1168 OFFCURVE",
"611 1233 OFFCURVE",
"700 1233 CURVE SMOOTH",
"791 1233 OFFCURVE",
"868 1188 OFFCURVE",
"868 1059 CURVE",
"1154 1059 LINE",
"1154 1308 OFFCURVE",
"992 1475 OFFCURVE",
"700 1475 CURVE SMOOTH",
"431 1475 OFFCURVE",
"246 1315 OFFCURVE",
"246 1039 CURVE SMOOTH",
"253 812 LINE",
"99 812 LINE",
"99 577 LINE",
"261 577 LINE",
"266 421 LINE SMOOTH",
"266 344 OFFCURVE",
"258 257 OFFCURVE",
"195 242 CURVE",
"102 242 LINE",
"102 0 LINE",
"1161 0 LINE"
);
}
);
width = 1218;
}
);
note = sterling;
unicode = 00A3;
},
{
glyphname = currency;
lastChange = "2017-04-17 15:03:23 +0000";
layers = (
{
layerId = "8F63CED7-3680-4993-9CF4-CD4CD6484F7E";
paths = (
{
closed = 1;
nodes = (
"1273 364 OFFCURVE",
"1306 480 OFFCURVE",
"1306 608 CURVE SMOOTH",
"1306 742 OFFCURVE",
"1271 863 OFFCURVE",
"1200 970 CURVE",
"1347 1120 LINE",
"1205 1265 LINE",
"1061 1117 LINE",
"958 1195 OFFCURVE",
"841 1234 OFFCURVE",
"712 1234 CURVE SMOOTH",
"583 1234 OFFCURVE",
"467 1196 OFFCURVE",
"364 1119 CURVE",
"222 1264 LINE",
"81 1120 LINE",
"225 973 LINE",
"152 866 OFFCURVE",
"116 744 OFFCURVE",
"116 608 CURVE SMOOTH",
"116 478 OFFCURVE",
"150 361 OFFCURVE",
"217 256 CURVE",
"81 118 LINE",
"222 -26 LINE",
"351 106 LINE",
"457 22 OFFCURVE",
"577 -20 OFFCURVE",
"712 -20 CURVE SMOOTH",
"847 -20 OFFCURVE",
"968 23 OFFCURVE",
"1074 108 CURVE",
"1205 -27 LINE",
"1347 118 LINE",
"1208 259 LINE"
);
},
{
closed = 1;
nodes = (
"302 853 OFFCURVE",
"484 1045 OFFCURVE",
"712 1045 CURVE SMOOTH",
"939 1045 OFFCURVE",
"1121 853 OFFCURVE",
"1121 608 CURVE SMOOTH",
"1121 363 OFFCURVE",
"939 170 OFFCURVE",
"712 170 CURVE SMOOTH",
"484 170 OFFCURVE",
"302 363 OFFCURVE",
"302 608 CURVE SMOOTH"
);
}
);
width = 1418;
}
);
note = currency;
unicode = 00A4;
},
{
glyphname = yen;
lastChange = "2017-04-17 15:03:23 +0000";
layers = (
{
layerId = "8F63CED7-3680-4993-9CF4-CD4CD6484F7E";
paths = (
{
closed = 1;
nodes = (
"695 452 LINE",
"695 568 LINE",
"983 568 LINE",
"983 742 LINE",
"765 742 LINE",
"1087 1456 LINE",
"775 1456 LINE",
"550 892 LINE",
"325 1456 LINE",
"11 1456 LINE",
"334 742 LINE",
"90 742 LINE",
"90 568 LINE",
"396 568 LINE",
"396 452 LINE",
"90 452 LINE",
"90 279 LINE",
"396 279 LINE",
"396 0 LINE",
"695 0 LINE",
"695 279 LINE",
"983 279 LINE",
"983 452 LINE"
);
}
);
width = 1098;
}
);
note = yen;
unicode = 00A5;
},
{
glyphname = brokenbar;
lastChange = "2017-04-17 15:03:23 +0000";
layers = (
{
layerId = "8F63CED7-3680-4993-9CF4-CD4CD6484F7E";
paths = (
{
closed = 1;
nodes = (
"128 698 LINE",
"388 698 LINE",
"388 1456 LINE",
"128 1456 LINE"
);
},
{
closed = 1;
nodes = (
"128 525 LINE",
"128 -270 LINE",
"388 -270 LINE",
"388 525 LINE"
);
}
);
width = 517;
}
);
note = brokenbar;
unicode = 00A6;
},
{
glyphname = section;
lastChange = "2017-04-17 15:03:23 +0000";
layers = (
{
layerId = "8F63CED7-3680-4993-9CF4-CD4CD6484F7E";
paths = (
{
closed = 1;
nodes = (
"1153 46 OFFCURVE",
"1108 142 OFFCURVE",
"1019 210 CURVE",
"1126 270 OFFCURVE",
"1180 360 OFFCURVE",
"1180 481 CURVE SMOOTH",
"1180 720 OFFCURVE",
"1012 823 OFFCURVE",
"704 903 CURVE SMOOTH",
"585 934 OFFCURVE",
"507 961 OFFCURVE",
"469 986 CURVE SMOOTH",
"430 1011 OFFCURVE",
"411 1048 OFFCURVE",
"411 1097 CURVE SMOOTH",
"411 1178 OFFCURVE",
"479 1243 OFFCURVE",
"640 1243 CURVE SMOOTH",
"792 1243 OFFCURVE",
"870 1158 OFFCURVE",
"870 1050 CURVE",
"1159 1050 LINE",
"1159 1325 OFFCURVE",
"963 1476 OFFCURVE",
"640 1476 CURVE SMOOTH",
"325 1476 OFFCURVE",
"121 1326 OFFCURVE",
"121 1095 CURVE SMOOTH",
"121 972 OFFCURVE",
"166 876 OFFCURVE",
"257 807 CURVE",
"148 746 OFFCURVE",
"94 655 OFFCURVE",
"94 534 CURVE SMOOTH",
"94 298 OFFCURVE",
"261 197 OFFCURVE",
"560 116 CURVE SMOOTH",
"671 86 OFFCURVE",
"749 57 OFFCURVE",
"795 30 CURVE SMOOTH",
"841 3 OFFCURVE",
"864 -34 OFFCURVE",
"864 -80 CURVE SMOOTH",
"864 -173 OFFCURVE",
"788 -219 OFFCURVE",
"637 -219 CURVE SMOOTH",
"513 -219 OFFCURVE",
"381 -184 OFFCURVE",
"381 -35 CURVE",
"92 -36 LINE",
"92 -143 OFFCURVE",
"119 -226 OFFCURVE",
"172 -287 CURVE SMOOTH",
"279 -408 OFFCURVE",
"457 -453 OFFCURVE",
"637 -453 CURVE SMOOTH",
"949 -453 OFFCURVE",
"1153 -320 OFFCURVE",
"1153 -79 CURVE SMOOTH"
);
},
{
closed = 1;
nodes = (
"554 389 OFFCURVE",
"476 419 OFFCURVE",
"439 446 CURVE SMOOTH",
"402 473 OFFCURVE",
"383 512 OFFCURVE",
"383 564 CURVE SMOOTH",
"383 630 OFFCURVE",
"408 677 OFFCURVE",
"459 705 CURVE",
"585 665 LINE SMOOTH",
"700 632 OFFCURVE",
"781 600 OFFCURVE",
"827 571 CURVE SMOOTH",
"872 541 OFFCURVE",
"895 502 OFFCURVE",
"895 453 CURVE SMOOTH",
"895 390 OFFCURVE",
"867 343 OFFCURVE",
"812 312 CURVE",
"772 326 OFFCURVE",
"725 340 OFFCURVE",
"672 354 CURVE SMOOTH"
);
}
);
width = 1287;
}
);
note = section;
unicode = 00A7;
},
{
glyphname = dieresis;
lastChange = "2017-04-17 15:03:23 +0000";
layers = (
{
layerId = "8F63CED7-3680-4993-9CF4-CD4CD6484F7E";
paths = (
{
closed = 1;
nodes = (
"94 1294 OFFCURVE",
"152 1239 OFFCURVE",
"233 1239 CURVE SMOOTH",
"313 1239 OFFCURVE",
"371 1294 OFFCURVE",
"371 1366 CURVE SMOOTH",
"371 1437 OFFCURVE",
"313 1493 OFFCURVE",
"233 1493 CURVE SMOOTH",
"152 1493 OFFCURVE",
"94 1437 OFFCURVE",
"94 1366 CURVE SMOOTH"
);
},
{
closed = 1;
nodes = (
"582 1294 OFFCURVE",
"640 1238 OFFCURVE",
"720 1238 CURVE SMOOTH",
"801 1238 OFFCURVE",
"859 1294 OFFCURVE",
"859 1365 CURVE SMOOTH",
"859 1436 OFFCURVE",
"801 1492 OFFCURVE",
"720 1492 CURVE SMOOTH",
"640 1492 OFFCURVE",
"582 1436 OFFCURVE",
"582 1365 CURVE SMOOTH"
);
}
);
width = 956;
}
);
note = dieresis;
unicode = 00A8;
},
{
glyphname = copyright;
lastChange = "2017-04-17 15:03:23 +0000";
layers = (
{
layerId = "8F63CED7-3680-4993-9CF4-CD4CD6484F7E";
paths = (
{
closed = 1;
nodes = (
"87 588 OFFCURVE",
"119 461 OFFCURVE",
"183 348 CURVE SMOOTH",
"311 121 OFFCURVE",
"536 -20 OFFCURVE",
"797 -20 CURVE SMOOTH",
"927 -20 OFFCURVE",
"1046 13 OFFCURVE",
"1153 79 CURVE SMOOTH",
"1368 211 OFFCURVE",
"1506 448 OFFCURVE",
"1506 729 CURVE SMOOTH",
"1506 870 OFFCURVE",
"1474 997 OFFCURVE",
"1410 1110 CURVE SMOOTH",
"1282 1336 OFFCURVE",
"1057 1476 OFFCURVE",
"797 1476 CURVE SMOOTH",
"666 1476 OFFCURVE",
"547 1443 OFFCURVE",
"440 1378 CURVE SMOOTH",
"225 1246 OFFCURVE",
"87 1010 OFFCURVE",
"87 729 CURVE SMOOTH"
);
},
{
closed = 1;
nodes = (
"209 1077 OFFCURVE",
"469 1351 OFFCURVE",
"797 1351 CURVE SMOOTH",
"905 1351 OFFCURVE",
"1004 1324 OFFCURVE",
"1093 1269 CURVE SMOOTH",
"1271 1160 OFFCURVE",
"1384 965 OFFCURVE",
"1384 729 CURVE SMOOTH",
"1384 611 OFFCURVE",
"1358 505 OFFCURVE",
"1305 411 CURVE SMOOTH",
"1200 223 OFFCURVE",
"1013 105 OFFCURVE",
"797 105 CURVE SMOOTH",
"470 105 OFFCURVE",
"209 380 OFFCURVE",
"209 729 CURVE SMOOTH"
);
},
{
closed = 1;
nodes = (
"962 465 OFFCURVE",
"902 417 OFFCURVE",
"783 417 CURVE SMOOTH",
"655 417 OFFCURVE",
"588 520 OFFCURVE",
"588 669 CURVE SMOOTH",
"588 789 LINE SMOOTH",
"588 936 OFFCURVE",
"655 1040 OFFCURVE",
"783 1040 CURVE SMOOTH",
"903 1040 OFFCURVE",
"963 980 OFFCURVE",
"963 861 CURVE",
"1119 861 LINE",
"1119 1070 OFFCURVE",
"990 1175 OFFCURVE",
"783 1175 CURVE SMOOTH",
"568 1175 OFFCURVE",
"434 1017 OFFCURVE",
"434 788 CURVE SMOOTH",
"434 669 LINE SMOOTH",
"434 438 OFFCURVE",
"568 282 OFFCURVE",
"783 282 CURVE SMOOTH",
"990 282 OFFCURVE",
"1118 385 OFFCURVE",
"1118 596 CURVE",
"962 596 LINE"
);
}
);
width = 1607;
}
);
note = copyright;
unicode = 00A9;
},
{
glyphname = ordfeminine;
lastChange = "2017-04-17 15:03:23 +0000";
layers = (
{
layerId = "8F63CED7-3680-4993-9CF4-CD4CD6484F7E";
paths = (
{
closed = 1;
nodes = (
"765 758 OFFCURVE",
"756 818 OFFCURVE",
"756 886 CURVE SMOOTH",
"756 1200 LINE SMOOTH",
"756 1383 OFFCURVE",
"640 1476 OFFCURVE",
"465 1476 CURVE SMOOTH",
"277 1476 OFFCURVE",
"154 1378 OFFCURVE",
"154 1243 CURVE",
"327 1229 LINE",
"327 1295 OFFCURVE",
"373 1328 OFFCURVE",
"465 1328 CURVE SMOOTH",
"542 1328 OFFCURVE",
"581 1286 OFFCURVE",
"581 1201 CURVE SMOOTH",
"581 1150 LINE",
"462 1150 LINE SMOOTH",
"246 1146 OFFCURVE",
"138 1069 OFFCURVE",
"138 919 CURVE SMOOTH",
"138 782 OFFCURVE",
"227 691 OFFCURVE",
"387 691 CURVE SMOOTH",
"470 691 OFFCURVE",
"537 718 OFFCURVE",
"588 773 CURVE",
"592 749 OFFCURVE",
"598 726 OFFCURVE",
"605 705 CURVE",
"782 705 LINE"
);
},
{
closed = 1;
nodes = (
"352 835 OFFCURVE",
"313 864 OFFCURVE",
"313 923 CURVE SMOOTH",
"313 980 OFFCURVE",
"364 1033 OFFCURVE",
"480 1033 CURVE SMOOTH",
"581 1033 LINE",
"581 897 LINE",
"545 864 OFFCURVE",
"483 835 OFFCURVE",
"430 835 CURVE SMOOTH"
);
}
);
width = 909;
}
);
note = ordfeminine;
unicode = 00AA;
},
{
glyphname = guillemotleft;
lastChange = "2017-04-17 15:03:23 +0000";
layers = (
{
layerId = "8F63CED7-3680-4993-9CF4-CD4CD6484F7E";
paths = (
{
closed = 1;
nodes = (
"304 524 LINE",
"543 924 LINE",
"356 924 LINE",
"76 534 LINE",
"76 515 LINE",
"356 125 LINE",
"543 125 LINE"
);
},
{
closed = 1;
nodes = (
"690 524 LINE",
"929 924 LINE",
"742 924 LINE",
"462 534 LINE",
"462 515 LINE",
"742 125 LINE",
"929 125 LINE"
);
}
);
width = 1023;
}
);
note = guillemotleft;
unicode = 00AB;
},
{
glyphname = logicalnot;
lastChange = "2017-04-17 15:03:23 +0000";
layers = (
{
layerId = "8F63CED7-3680-4993-9CF4-CD4CD6484F7E";
paths = (
{
closed = 1;
nodes = (
"762 634 LINE",
"762 374 LINE",
"962 374 LINE",
"962 805 LINE",
"127 805 LINE",
"127 634 LINE"
);
}
);
width = 1129;
}
);
note = logicalnot;
unicode = 00AC;
},
{
glyphname = registered;
lastChange = "2017-04-17 15:03:23 +0000";
layers = (
{
layerId = "8F63CED7-3680-4993-9CF4-CD4CD6484F7E";
paths = (
{
closed = 1;
nodes = (
"87 588 OFFCURVE",
"119 461 OFFCURVE",
"183 348 CURVE SMOOTH",
"311 121 OFFCURVE",
"536 -20 OFFCURVE",
"797 -20 CURVE SMOOTH",
"927 -20 OFFCURVE",
"1046 13 OFFCURVE",
"1153 79 CURVE SMOOTH",
"1368 211 OFFCURVE",
"1506 448 OFFCURVE",
"1506 729 CURVE SMOOTH",
"1506 870 OFFCURVE",
"1474 997 OFFCURVE",
"1410 1110 CURVE SMOOTH",
"1282 1336 OFFCURVE",
"1057 1476 OFFCURVE",
"797 1476 CURVE SMOOTH",
"666 1476 OFFCURVE",
"547 1443 OFFCURVE",
"440 1378 CURVE SMOOTH",
"225 1246 OFFCURVE",
"87 1010 OFFCURVE",
"87 729 CURVE SMOOTH"
);
},
{
closed = 1;
nodes = (
"209 1077 OFFCURVE",
"469 1351 OFFCURVE",
"797 1351 CURVE SMOOTH",
"905 1351 OFFCURVE",
"1004 1324 OFFCURVE",
"1093 1269 CURVE SMOOTH",
"1271 1160 OFFCURVE",
"1384 965 OFFCURVE",
"1384 729 CURVE SMOOTH",
"1384 611 OFFCURVE",
"1358 505 OFFCURVE",
"1305 411 CURVE SMOOTH",
"1200 223 OFFCURVE",
"1013 105 OFFCURVE",
"797 105 CURVE SMOOTH",
"470 105 OFFCURVE",
"209 380 OFFCURVE",
"209 729 CURVE SMOOTH"
);
},
{
closed = 1;
nodes = (
"906 653 OFFCURVE",
"954 608 OFFCURVE",
"954 511 CURVE SMOOTH",
"954 414 OFFCURVE",
"954 351 OFFCURVE",
"967 316 CURVE",
"1122 316 LINE",
"1122 332 LINE",
"1115 347 OFFCURVE",
"1111 365 OFFCURVE",
"1109 388 CURVE",
"1106 410 OFFCURVE",
"1105 449 OFFCURVE",
"1105 504 CURVE SMOOTH",
"1105 615 OFFCURVE",
"1076 689 OFFCURVE",
"996 730 CURVE",
"1071 771 OFFCURVE",
"1108 829 OFFCURVE",
"1108 904 CURVE SMOOTH",
"1108 1076 OFFCURVE",
"982 1166 OFFCURVE",
"783 1166 CURVE SMOOTH",
"502 1166 LINE",
"502 316 LINE",
"653 316 LINE",
"653 653 LINE",
"811 653 LINE SMOOTH"
);
},
{
closed = 1;
nodes = (
"912 1033 OFFCURVE",
"958 1000 OFFCURVE",
"958 903 CURVE SMOOTH",
"958 827 OFFCURVE",
"879 788 OFFCURVE",
"788 787 CURVE SMOOTH",
"653 787 LINE",
"653 1033 LINE",
"783 1033 LINE SMOOTH"
);
}
);
width = 1607;
}
);
note = registered;
unicode = 00AE;
},
{
glyphname = macron;
lastChange = "2017-04-17 15:03:23 +0000";
layers = (
{
layerId = "8F63CED7-3680-4993-9CF4-CD4CD6484F7E";
paths = (
{
closed = 1;
nodes = (
"168 1288 LINE",
"858 1288 LINE",
"858 1455 LINE",
"168 1455 LINE"
);
}
);
width = 1026;
}
);
note = macron;
unicode = 00AF;
},
{
glyphname = degree;
lastChange = "2017-04-17 15:03:23 +0000";
layers = (
{
layerId = "8F63CED7-3680-4993-9CF4-CD4CD6484F7E";
paths = (
{
closed = 1;
nodes = (
"127 1049 OFFCURVE",
"250 929 OFFCURVE",
"399 929 CURVE SMOOTH",
"546 929 OFFCURVE",
"666 1049 OFFCURVE",
"666 1200 CURVE SMOOTH",
"666 1351 OFFCURVE",
"546 1476 OFFCURVE",
"399 1476 CURVE SMOOTH",
"250 1476 OFFCURVE",
"127 1351 OFFCURVE",
"127 1200 CURVE SMOOTH"
);
},
{
closed = 1;
nodes = (
"273 1273 OFFCURVE",
"331 1328 OFFCURVE",
"399 1328 CURVE SMOOTH",
"467 1328 OFFCURVE",
"520 1273 OFFCURVE",
"520 1200 CURVE SMOOTH",
"520 1129 OFFCURVE",
"467 1076 OFFCURVE",
"399 1076 CURVE SMOOTH",
"331 1076 OFFCURVE",
"273 1129 OFFCURVE",
"273 1200 CURVE SMOOTH"
);
}
);
width = 796;
}
);
note = degree;
unicode = 00B0;
},
{
glyphname = plusminus;
lastChange = "2017-04-17 15:03:23 +0000";
layers = (
{
layerId = "8F63CED7-3680-4993-9CF4-CD4CD6484F7E";
paths = (
{
closed = 1;
nodes = (
"678 943 LINE",
"678 1286 LINE",
"424 1286 LINE",
"424 943 LINE",
"90 943 LINE",
"90 702 LINE",
"424 702 LINE",
"424 337 LINE",
"678 337 LINE",
"678 702 LINE",
"1006 702 LINE",
"1006 943 LINE"
);
},
{
closed = 1;
nodes = (
"114 1 LINE",
"977 1 LINE",
"977 237 LINE",
"114 237 LINE"
);
}
);
width = 1101;
}
);
note = plusminus;
unicode = 00B1;
},
{
glyphname = twosuperior;
lastChange = "2017-04-17 15:03:23 +0000";
layers = (
{
layerId = "8F63CED7-3680-4993-9CF4-CD4CD6484F7E";
paths = (
{
closed = 1;
nodes = (
"453 917 LINE SMOOTH",
"601 1033 OFFCURVE",
"671 1103 OFFCURVE",
"671 1220 CURVE SMOOTH",
"671 1377 OFFCURVE",
"558 1468 OFFCURVE",
"361 1468 CURVE SMOOTH",
"173 1468 OFFCURVE",
"56 1344 OFFCURVE",
"56 1193 CURVE",
"261 1193 LINE",
"261 1250 OFFCURVE",
"297 1303 OFFCURVE",
"370 1303 CURVE SMOOTH",
"434 1303 OFFCURVE",
"466 1275 OFFCURVE",
"466 1219 CURVE SMOOTH",
"466 1204 OFFCURVE",
"458 1182 OFFCURVE",
"441 1154 CURVE SMOOTH",
"424 1125 OFFCURVE",
"398 1095 OFFCURVE",
"361 1062 CURVE SMOOTH",
"74 805 LINE",
"74 667 LINE",
"694 667 LINE",
"694 831 LINE",
"343 831 LINE"
);
}
);
width = 763;
}
);
note = twosuperior;
unicode = 00B2;
},
{
glyphname = threesuperior;
lastChange = "2017-04-17 15:03:23 +0000";
layers = (
{
layerId = "8F63CED7-3680-4993-9CF4-CD4CD6484F7E";
paths = (
{
closed = 1;
nodes = (
"447 1000 OFFCURVE",
"488 970 OFFCURVE",
"488 909 CURVE SMOOTH",
"488 862 OFFCURVE",
"454 821 OFFCURVE",
"375 821 CURVE SMOOTH",
"302 821 OFFCURVE",
"255 860 OFFCURVE",
"255 903 CURVE",
"49 903 LINE",
"49 723 OFFCURVE",
"214 656 OFFCURVE",
"362 656 CURVE SMOOTH",
"550 656 OFFCURVE",
"693 741 OFFCURVE",
"693 889 CURVE SMOOTH",
"693 984 OFFCURVE",
"643 1045 OFFCURVE",
"543 1072 CURVE",
"634 1105 OFFCURVE",
"679 1162 OFFCURVE",
"679 1241 CURVE SMOOTH",
"679 1389 OFFCURVE",
"550 1468 OFFCURVE",
"362 1468 CURVE SMOOTH",
"203 1468 OFFCURVE",
"62 1390 OFFCURVE",
"62 1242 CURVE",
"267 1242 LINE",
"267 1281 OFFCURVE",
"312 1303 OFFCURVE",
"368 1303 CURVE SMOOTH",
"445 1303 OFFCURVE",
"474 1263 OFFCURVE",
"474 1226 CURVE SMOOTH",
"474 1167 OFFCURVE",
"437 1138 OFFCURVE",
"362 1138 CURVE SMOOTH",
"273 1138 LINE",
"273 1001 LINE",
"365 1001 LINE SMOOTH"
);
}
);
width = 763;
}
);
note = threesuperior;
unicode = 00B3;
},
{
glyphname = acute;
lastChange = "2017-04-17 15:03:23 +0000";
layers = (
{
layerId = "8F63CED7-3680-4993-9CF4-CD4CD6484F7E";
paths = (
{
closed = 1;
nodes = (
"613 1536 LINE",
"298 1536 LINE",
"102 1227 LINE",
"336 1227 LINE"
);
}
);
width = 680;
}
);
note = acute;
unicode = 00B4;
},
{
glyphname = mu;
lastChange = "2017-04-17 15:03:23 +0000";
layers = (
{
layerId = "8F63CED7-3680-4993-9CF4-CD4CD6484F7E";
paths = (
{
closed = 1;
nodes = (
"693 -21 OFFCURVE",
"768 9 OFFCURVE",
"828 68 CURVE",
"833 0 LINE",
"1103 0 LINE",
"1103 1082 LINE",
"813 1082 LINE",
"813 319 LINE",
"776 250 OFFCURVE",
"708 215 OFFCURVE",
"609 215 CURVE SMOOTH",
"501 215 OFFCURVE",
"430 258 OFFCURVE",
"429 455 CURVE",
"429 1082 LINE",
"140 1082 LINE",
"140 -416 LINE",
"429 -416 LINE",
"429 24 LINE",
"476 -6 OFFCURVE",
"534 -21 OFFCURVE",
"602 -21 CURVE SMOOTH"
);
}
);
width = 1261;
}
);
note = mu;
unicode = 00B5;
},
{
glyphname = paragraph;
lastChange = "2017-04-17 15:03:23 +0000";
layers = (
{
layerId = "8F63CED7-3680-4993-9CF4-CD4CD6484F7E";
paths = (
{
closed = 1;
nodes = (
"568 1456 LINE SMOOTH",
"251 1456 OFFCURVE",
"76 1256 OFFCURVE",
"76 988 CURVE SMOOTH",
"76 720 OFFCURVE",
"249 523 OFFCURVE",
"561 520 CURVE SMOOTH",
"651 520 LINE",
"651 0 LINE",
"870 0 LINE",
"870 1456 LINE"
);
}
);
width = 1004;
}
);
note = paragraph;
unicode = 00B6;
},
{
glyphname = periodcentered;
lastChange = "2017-04-17 15:03:23 +0000";
layers = (
{
layerId = "8F63CED7-3680-4993-9CF4-CD4CD6484F7E";
paths = (
{
closed = 1;
nodes = (
"140 610 OFFCURVE",
"204 543 OFFCURVE",
"304 543 CURVE SMOOTH",
"403 543 OFFCURVE",
"467 610 OFFCURVE",
"467 697 CURVE SMOOTH",
"467 785 OFFCURVE",
"403 852 OFFCURVE",
"304 852 CURVE SMOOTH",
"204 852 OFFCURVE",
"140 785 OFFCURVE",
"140 697 CURVE SMOOTH"
);
}
);
width = 617;
}
);
note = periodcentered;
unicode = 00B7;
},
{
glyphname = cedilla;
lastChange = "2017-04-17 15:03:23 +0000";
layers = (
{
layerId = "8F63CED7-3680-4993-9CF4-CD4CD6484F7E";
paths = (
{
closed = 1;
nodes = (
"199 -143 OFFCURVE",
"241 -159 OFFCURVE",
"241 -214 CURVE SMOOTH",
"241 -269 OFFCURVE",
"203 -296 OFFCURVE",
"128 -296 CURVE",
"135 -462 LINE",
"366 -462 OFFCURVE",
"485 -367 OFFCURVE",
"485 -224 CURVE SMOOTH",
"485 -109 OFFCURVE",
"408 -64 OFFCURVE",
"335 -51 CURVE",
"346 7 LINE",
"129 7 LINE",
"98 -136 LINE"
);
}
);
width = 549;
}
);
note = cedilla;
unicode = 00B8;
},
{
glyphname = onesuperior;
lastChange = "2017-04-17 15:03:23 +0000";
layers = (
{
layerId = "8F63CED7-3680-4993-9CF4-CD4CD6484F7E";
paths = (
{
closed = 1;
nodes = (
"136 1333 LINE",
"136 1175 LINE",
"325 1216 LINE",
"325 667 LINE",
"528 667 LINE",
"528 1454 LINE",
"509 1454 LINE"
);
}
);
width = 763;
}
);
note = onesuperior;
unicode = 00B9;
},
{
glyphname = ordmasculine;
lastChange = "2017-04-17 15:03:23 +0000";
layers = (
{
layerId = "8F63CED7-3680-4993-9CF4-CD4CD6484F7E";
paths = (
{
closed = 1;
nodes = (
"119 837 OFFCURVE",
"252 690 OFFCURVE",
"467 690 CURVE SMOOTH",
"680 690 OFFCURVE",
"812 837 OFFCURVE",
"812 1044 CURVE SMOOTH",
"812 1121 LINE SMOOTH",
"812 1328 OFFCURVE",
"680 1476 OFFCURVE",
"465 1476 CURVE SMOOTH",
"253 1476 OFFCURVE",
"119 1328 OFFCURVE",
"119 1121 CURVE SMOOTH",
"119 1044 LINE SMOOTH"
);
},
{
closed = 1;
nodes = (
"294 1238 OFFCURVE",
"350 1328 OFFCURVE",
"465 1328 CURVE SMOOTH",
"581 1328 OFFCURVE",
"637 1238 OFFCURVE",
"637 1121 CURVE SMOOTH",
"637 1044 LINE SMOOTH",
"637 925 OFFCURVE",
"580 836 OFFCURVE",
"467 836 CURVE SMOOTH",
"350 836 OFFCURVE",
"294 925 OFFCURVE",
"294 1044 CURVE SMOOTH",
"294 1121 LINE SMOOTH"
);
}
);
width = 937;
}
);
note = ordmasculine;
unicode = 00BA;
},
{
glyphname = guillemotright;
lastChange = "2017-04-17 15:03:23 +0000";
layers = (
{
layerId = "8F63CED7-3680-4993-9CF4-CD4CD6484F7E";
paths = (
{
closed = 1;
nodes = (
"325 524 LINE",
"86 125 LINE",
"272 125 LINE",
"553 515 LINE",
"553 534 LINE",
"272 924 LINE",
"86 924 LINE"
);
},
{
closed = 1;
nodes = (
"718 524 LINE",
"479 125 LINE",
"665 125 LINE",
"946 515 LINE",
"946 534 LINE",
"665 924 LINE",
"479 924 LINE"
);
}
);
width = 1023;
}
);
note = guillemotright;
unicode = 00BB;
},
{
glyphname = onequarter;
lastChange = "2017-04-17 15:03:23 +0000";
layers = (
{
layerId = "8F63CED7-3680-4993-9CF4-CD4CD6484F7E";
paths = (
{
closed = 1;
nodes = (
"101 1330 LINE",
"101 1172 LINE",
"290 1213 LINE",
"290 664 LINE",
"493 664 LINE",
"493 1451 LINE",
"474 1451 LINE"
);
},
{
closed = 1;
nodes = (
"318 193 LINE",
"458 117 LINE",
"1169 1255 LINE",
"1029 1331 LINE"
);
},
{
closed = 1;
nodes = (
"1303 327 LINE",
"1303 789 LINE",
"1097 789 LINE",
"740 295 LINE",
"752 160 LINE",
"1097 160 LINE",
"1097 0 LINE",
"1303 0 LINE",
"1303 160 LINE",
"1391 160 LINE",
"1391 327 LINE"
);
},
{
closed = 1;
nodes = (
"1097 538 LINE",
"1097 327 LINE",
"935 327 LINE",
"1083 516 LINE"
);
}
);
width = 1470;
}
);
note = onequarter;
unicode = 00BC;
},
{
glyphname = onehalf;
lastChange = "2017-04-17 15:03:23 +0000";
layers = (
{
layerId = "8F63CED7-3680-4993-9CF4-CD4CD6484F7E";
paths = (
{
closed = 1;
nodes = (
"276 193 LINE",
"416 117 LINE",
"1127 1255 LINE",
"987 1331 LINE"
);
},
{
closed = 1;
nodes = (
"84 1336 LINE",
"84 1178 LINE",
"273 1219 LINE",
"273 670 LINE",
"476 670 LINE",
"476 1457 LINE",
"457 1457 LINE"
);
},
{
closed = 1;
nodes = (
"1242 254 LINE SMOOTH",
"1394 373 OFFCURVE",
"1455 438 OFFCURVE",
"1455 553 CURVE SMOOTH",
"1455 710 OFFCURVE",
"1342 801 OFFCURVE",
"1145 801 CURVE SMOOTH",
"957 801 OFFCURVE",
"840 675 OFFCURVE",
"840 526 CURVE",
"1045 526 LINE",
"1045 585 OFFCURVE",
"1081 636 OFFCURVE",
"1154 636 CURVE SMOOTH",
"1218 636 OFFCURVE",
"1250 608 OFFCURVE",
"1250 552 CURVE SMOOTH",
"1250 537 OFFCURVE",
"1242 515 OFFCURVE",
"1225 487 CURVE SMOOTH",
"1208 458 OFFCURVE",
"1182 428 OFFCURVE",
"1145 395 CURVE SMOOTH",
"858 138 LINE",
"858 0 LINE",
"1478 0 LINE",
"1478 164 LINE",
"1127 164 LINE"
);
}
);
width = 1559;
}
);
note = onehalf;
unicode = 00BD;
},
{
glyphname = threequarters;
lastChange = "2017-04-17 15:03:23 +0000";
layers = (
{
layerId = "8F63CED7-3680-4993-9CF4-CD4CD6484F7E";
paths = (
{
closed = 1;
nodes = (
"479 193 LINE",
"619 117 LINE",
"1330 1255 LINE",
"1190 1331 LINE"
);
},
{
closed = 1;
nodes = (
"1461 327 LINE",
"1461 789 LINE",
"1255 789 LINE",
"898 295 LINE",
"910 160 LINE",
"1255 160 LINE",
"1255 0 LINE",
"1461 0 LINE",
"1461 160 LINE",
"1549 160 LINE",
"1549 327 LINE"
);
},
{
closed = 1;
nodes = (
"1255 538 LINE",
"1255 327 LINE",
"1093 327 LINE",
"1241 516 LINE"
);
},
{
closed = 1;
nodes = (
"493 1000 OFFCURVE",
"534 970 OFFCURVE",
"534 909 CURVE SMOOTH",
"534 862 OFFCURVE",
"500 821 OFFCURVE",
"421 821 CURVE SMOOTH",
"348 821 OFFCURVE",
"301 860 OFFCURVE",
"301 903 CURVE",
"95 903 LINE",
"95 723 OFFCURVE",
"260 656 OFFCURVE",
"408 656 CURVE SMOOTH",
"596 656 OFFCURVE",
"739 741 OFFCURVE",
"739 889 CURVE SMOOTH",
"739 984 OFFCURVE",
"689 1045 OFFCURVE",
"589 1072 CURVE",
"680 1105 OFFCURVE",
"725 1162 OFFCURVE",
"725 1241 CURVE SMOOTH",
"725 1389 OFFCURVE",
"596 1468 OFFCURVE",
"408 1468 CURVE SMOOTH",
"249 1468 OFFCURVE",
"108 1390 OFFCURVE",
"108 1242 CURVE",
"313 1242 LINE",
"313 1281 OFFCURVE",
"358 1303 OFFCURVE",
"414 1303 CURVE SMOOTH",
"491 1303 OFFCURVE",
"520 1263 OFFCURVE",
"520 1226 CURVE SMOOTH",
"520 1167 OFFCURVE",
"483 1138 OFFCURVE",
"408 1138 CURVE SMOOTH",
"319 1138 LINE",
"319 1001 LINE",
"411 1001 LINE SMOOTH"
);
}
);
width = 1655;
}
);
note = threequarters;
unicode = 00BE;
},
{
glyphname = questiondown;
lastChange = "2017-04-17 15:03:23 +0000";
layers = (
{
layerId = "8F63CED7-3680-4993-9CF4-CD4CD6484F7E";
paths = (
{
closed = 1;
nodes = (
"702 1035 OFFCURVE",
"638 1103 OFFCURVE",
"541 1103 CURVE SMOOTH",
"442 1103 OFFCURVE",
"379 1035 OFFCURVE",
"379 950 CURVE SMOOTH",
"379 863 OFFCURVE",
"442 797 OFFCURVE",
"541 797 CURVE SMOOTH",
"638 797 OFFCURVE",
"702 863 OFFCURVE",
"702 950 CURVE SMOOTH"
);
},
{
closed = 1;
nodes = (
"407 544 OFFCURVE",
"396 483 OFFCURVE",
"324 416 CURVE SMOOTH",
"191 291 OFFCURVE",
"70 183 OFFCURVE",
"70 7 CURVE SMOOTH",
"70 -248 OFFCURVE",
"238 -385 OFFCURVE",
"519 -385 CURVE SMOOTH",
"774 -385 OFFCURVE",
"969 -255 OFFCURVE",
"973 22 CURVE",
"683 22 LINE",
"682 -98 OFFCURVE",
"605 -149 OFFCURVE",
"514 -149 CURVE SMOOTH",
"411 -149 OFFCURVE",
"360 -97 OFFCURVE",
"360 8 CURVE SMOOTH",
"360 117 OFFCURVE",
"430 181 OFFCURVE",
"519 266 CURVE SMOOTH",
"632 370 OFFCURVE",
"666 463 OFFCURVE",
"666 643 CURVE",
"410 643 LINE"
);
}
);
width = 1020;
}
);
note = questiondown;
unicode = 00BF;
},
{
glyphname = AE;
lastChange = "2017-04-17 15:03:23 +0000";
layers = (
{
layerId = "8F63CED7-3680-4993-9CF4-CD4CD6484F7E";
paths = (
{
closed = 1;
nodes = (
"1232 630 LINE",
"1723 630 LINE",
"1723 866 LINE",
"1222 866 LINE",
"1207 1220 LINE",
"1804 1220 LINE",
"1804 1456 LINE",
"789 1456 LINE",
"3 0 LINE",
"342 0 LINE",
"510 334 LINE",
"954 334 LINE",
"968 0 LINE",
"1866 0 LINE",
"1866 236 LINE",
"1248 236 LINE"
);
},
{
closed = 1;
nodes = (
"944 581 LINE",
"634 581 LINE",
"920 1150 LINE"
);
}
);
width = 1926;
}
);
note = AE;
unicode = 00C6;
},
{
glyphname = multiply;
lastChange = "2017-04-17 15:03:23 +0000";
layers = (
{
layerId = "8F63CED7-3680-4993-9CF4-CD4CD6484F7E";
paths = (
{
closed = 1;
nodes = (
"1015 999 LINE",
"844 1168 LINE",
"540 858 LINE",
"236 1168 LINE",
"65 999 LINE",
"372 686 LINE",
"65 374 LINE",
"236 205 LINE",
"540 515 LINE",
"844 205 LINE",
"1015 374 LINE",
"708 686 LINE"
);
}
);
width = 1088;
}
);
note = multiply;
unicode = 00D7;
},
{
glyphname = Oslash;
lastChange = "2017-04-17 15:03:23 +0000";
layers = (
{
layerId = "8F63CED7-3680-4993-9CF4-CD4CD6484F7E";
paths = (
{
closed = 1;
nodes = (
"1082 -20 OFFCURVE",
"1334 251 OFFCURVE",
"1334 695 CURVE SMOOTH",
"1334 751 LINE SMOOTH",
"1334 982 OFFCURVE",
"1274 1162 OFFCURVE",
"1155 1291 CURVE",
"1289 1518 LINE",
"1102 1518 LINE",
"1029 1394 LINE",
"936 1449 OFFCURVE",
"831 1476 OFFCURVE",
"713 1476 CURVE SMOOTH",
"348 1476 OFFCURVE",
"94 1204 OFFCURVE",
"94 760 CURVE SMOOTH",
"94 705 LINE SMOOTH",
"94 464 OFFCURVE",
"160 277 OFFCURVE",
"291 146 CURVE",
"148 -95 LINE",
"335 -95 LINE",
"421 50 LINE",
"508 3 OFFCURVE",
"606 -20 OFFCURVE",
"715 -20 CURVE SMOOTH"
);
},
{
closed = 1;
nodes = (
"398 1068 OFFCURVE",
"513 1228 OFFCURVE",
"713 1228 CURVE SMOOTH",
"785 1228 OFFCURVE",
"845 1208 OFFCURVE",
"894 1167 CURVE",
"447 410 LINE",
"414 485 OFFCURVE",
"397 580 OFFCURVE",
"397 695 CURVE SMOOTH",
"397 767 LINE SMOOTH"
);
},
{
closed = 1;
nodes = (
"1029 390 OFFCURVE",
"915 227 OFFCURVE",
"715 227 CURVE SMOOTH",
"653 227 OFFCURVE",
"599 243 OFFCURVE",
"553 274 CURVE",
"993 1017 LINE",
"1018 947 OFFCURVE",
"1030 862 OFFCURVE",
"1030 762 CURVE SMOOTH",
"1030 690 LINE SMOOTH"
);
}
);
width = 1411;
}
);
leftKerningGroup = C;
note = Oslash;
unicode = 00D8;
},
{
glyphname = Thorn;
lastChange = "2017-04-17 15:03:23 +0000";
layers = (
{
layerId = "8F63CED7-3680-4993-9CF4-CD4CD6484F7E";
paths = (
{
closed = 1;
nodes = (
"993 287 OFFCURVE",
"1182 477 OFFCURVE",
"1182 738 CURVE SMOOTH",
"1182 998 OFFCURVE",
"996 1186 OFFCURVE",
"653 1189 CURVE SMOOTH",
"423 1189 LINE",
"423 1456 LINE",
"133 1456 LINE",
"133 0 LINE",
"423 0 LINE",
"423 287 LINE",
"645 287 LINE SMOOTH"
);
},
{
closed = 1;
nodes = (
"822 956 OFFCURVE",
"892 851 OFFCURVE",
"892 736 CURVE SMOOTH",
"892 624 OFFCURVE",
"822 520 OFFCURVE",
"645 520 CURVE SMOOTH",
"423 520 LINE",
"423 956 LINE",
"645 956 LINE SMOOTH"
);
}
);
width = 1246;
}
);
note = Thorn;
unicode = 00DE;
},
{
glyphname = germandbls;
lastChange = "2017-04-17 15:03:23 +0000";
layers = (
{
layerId = "8F63CED7-3680-4993-9CF4-CD4CD6484F7E";
paths = (
{
closed = 1;
nodes = (
"424 1268 OFFCURVE",
"486 1327 OFFCURVE",
"589 1327 CURVE SMOOTH",
"680 1327 OFFCURVE",
"745 1268 OFFCURVE",
"745 1175 CURVE SMOOTH",
"745 1124 OFFCURVE",
"736 1083 OFFCURVE",
"718 1052 CURVE SMOOTH",
"681 991 OFFCURVE",
"635 935 OFFCURVE",
"635 818 CURVE SMOOTH",
"635 689 OFFCURVE",
"706 611 OFFCURVE",
"786 549 CURVE SMOOTH",
"866 487 OFFCURVE",
"937 431 OFFCURVE",
"937 350 CURVE SMOOTH",
"937 259 OFFCURVE",
"882 213 OFFCURVE",
"773 213 CURVE SMOOTH",
"691 213 OFFCURVE",
"618 230 OFFCURVE",
"555 265 CURVE",
"500 36 LINE",
"553 3 OFFCURVE",
"676 -20 OFFCURVE",
"779 -20 CURVE SMOOTH",
"1066 -20 OFFCURVE",
"1225 116 OFFCURVE",
"1225 355 CURVE SMOOTH",
"1225 480 OFFCURVE",
"1154 568 OFFCURVE",
"1075 637 CURVE SMOOTH",
"995 705 OFFCURVE",
"924 763 OFFCURVE",
"924 831 CURVE SMOOTH",
"924 882 OFFCURVE",
"933 922 OFFCURVE",
"951 951 CURVE SMOOTH",
"987 1007 OFFCURVE",
"1031 1058 OFFCURVE",
"1031 1190 CURVE SMOOTH",
"1031 1435 OFFCURVE",
"842 1560 OFFCURVE",
"609 1560 CURVE SMOOTH",
"320 1560 OFFCURVE",
"136 1403 OFFCURVE",
"136 1102 CURVE SMOOTH",
"136 0 LINE",
"424 0 LINE",
"424 1097 LINE SMOOTH"
);
}
);
width = 1292;
}
);
note = germandbls;
unicode = 00DF;
},
{
glyphname = ae;
lastChange = "2017-04-17 15:03:23 +0000";
layers = (
{
layerId = "8F63CED7-3680-4993-9CF4-CD4CD6484F7E";
paths = (
{
closed = 1;
nodes = (
"1495 251 OFFCURVE",
"1417 213 OFFCURVE",
"1277 213 CURVE SMOOTH",
"1104 213 OFFCURVE",
"1024 313 OFFCURVE",
"1009 450 CURVE",
"1677 450 LINE",
"1677 612 LINE SMOOTH",
"1677 763 OFFCURVE",
"1637 882 OFFCURVE",
"1557 970 CURVE SMOOTH",
"1397 1146 OFFCURVE",
"1069 1140 OFFCURVE",
"898 992 CURVE",
"822 1065 OFFCURVE",
"713 1102 OFFCURVE",
"571 1102 CURVE SMOOTH",
"287 1102 OFFCURVE",
"101 960 OFFCURVE",
"101 764 CURVE",
"390 745 LINE",
"390 813 OFFCURVE",
"456 869 OFFCURVE",
"568 869 CURVE SMOOTH",
"673 869 OFFCURVE",
"726 815 OFFCURVE",
"726 706 CURVE SMOOTH",
"726 650 LINE",
"557 650 LINE SMOOTH",
"234 649 OFFCURVE",
"67 528 OFFCURVE",
"67 319 CURVE SMOOTH",
"67 112 OFFCURVE",
"207 -20 OFFCURVE",
"466 -20 CURVE SMOOTH",
"659 -20 OFFCURVE",
"788 51 OFFCURVE",
"860 127 CURVE",
"954 29 OFFCURVE",
"1083 -20 OFFCURVE",
"1247 -20 CURVE SMOOTH",
"1432 -20 OFFCURVE",
"1580 46 OFFCURVE",
"1648 101 CURVE",
"1572 290 LINE"
);
},
{
closed = 1;
nodes = (
"1342 869 OFFCURVE",
"1393 789 OFFCURVE",
"1393 672 CURVE SMOOTH",
"1393 645 LINE",
"1012 645 LINE",
"1029 777 OFFCURVE",
"1091 869 OFFCURVE",
"1223 869 CURVE SMOOTH"
);
},
{
closed = 1;
nodes = (
"411 192 OFFCURVE",
"356 233 OFFCURVE",
"356 315 CURVE SMOOTH",
"356 392 OFFCURVE",
"428 461 OFFCURVE",
"564 461 CURVE SMOOTH",
"726 461 LINE",
"726 272 LINE",
"675 229 OFFCURVE",
"594 192 OFFCURVE",
"522 192 CURVE SMOOTH"
);
}
);
width = 1730;
}
);
note = ae;
unicode = 00E6;
},
{
glyphname = eth;
lastChange = "2017-04-17 15:03:23 +0000";
layers = (
{
layerId = "8F63CED7-3680-4993-9CF4-CD4CD6484F7E";
paths = (
{
closed = 1;
nodes = (
"1106 918 OFFCURVE",
"1010 1142 OFFCURVE",
"850 1305 CURVE",
"989 1394 LINE",
"911 1509 LINE",
"740 1400 LINE",
"621 1487 OFFCURVE",
"483 1547 OFFCURVE",
"325 1580 CURVE",
"234 1356 LINE",
"333 1330 OFFCURVE",
"421 1293 OFFCURVE",
"498 1245 CURVE",
"346 1148 LINE",
"424 1034 LINE",
"614 1155 LINE",
"692 1082 OFFCURVE",
"747 994 OFFCURVE",
"780 891 CURVE",
"709 941 OFFCURVE",
"628 966 OFFCURVE",
"537 966 CURVE SMOOTH",
"253 966 OFFCURVE",
"85 767 OFFCURVE",
"85 468 CURVE SMOOTH",
"85 196 OFFCURVE",
"287 -20 OFFCURVE",
"587 -20 CURVE SMOOTH",
"886 -20 OFFCURVE",
"1106 224 OFFCURVE",
"1106 577 CURVE SMOOTH",
"1106 650 LINE SMOOTH"
);
},
{
closed = 1;
nodes = (
"374 641 OFFCURVE",
"451 747 OFFCURVE",
"602 747 CURVE SMOOTH",
"699 747 OFFCURVE",
"771 720 OFFCURVE",
"816 665 CURVE",
"816 548 LINE SMOOTH",
"816 357 OFFCURVE",
"739 213 OFFCURVE",
"591 213 CURVE SMOOTH",
"454 213 OFFCURVE",
"374 328 OFFCURVE",
"374 468 CURVE SMOOTH"
);
}
);
width = 1179;
}
);
note = eth;
unicode = 00F0;
},
{
glyphname = divide;
lastChange = "2017-04-17 15:03:23 +0000";
layers = (
{
layerId = "8F63CED7-3680-4993-9CF4-CD4CD6484F7E";
paths = (
{
closed = 1;
nodes = (
"415 1002 OFFCURVE",
"479 939 OFFCURVE",
"579 939 CURVE SMOOTH",
"678 939 OFFCURVE",
"742 1002 OFFCURVE",
"742 1090 CURVE SMOOTH",
"742 1178 OFFCURVE",
"678 1241 OFFCURVE",
"579 1241 CURVE SMOOTH",
"479 1241 OFFCURVE",
"415 1178 OFFCURVE",
"415 1090 CURVE SMOOTH"
);
},
{
closed = 1;
nodes = (
"64 571 LINE",
"1092 571 LINE",
"1092 802 LINE",
"64 802 LINE"
);
},
{
closed = 1;
nodes = (
"415 190 OFFCURVE",
"479 127 OFFCURVE",
"579 127 CURVE SMOOTH",
"678 127 OFFCURVE",
"742 190 OFFCURVE",
"742 278 CURVE SMOOTH",
"742 366 OFFCURVE",
"678 429 OFFCURVE",
"579 429 CURVE SMOOTH",
"479 429 OFFCURVE",
"415 366 OFFCURVE",
"415 278 CURVE SMOOTH"
);
}
);
width = 1168;
}
);
note = divide;
unicode = 00F7;
},
{
glyphname = oslash;
lastChange = "2017-04-17 15:03:23 +0000";
layers = (
{
layerId = "8F63CED7-3680-4993-9CF4-CD4CD6484F7E";
paths = (
{
closed = 1;
nodes = (
"907 -20 OFFCURVE",
"1091 215 OFFCURVE",
"1091 530 CURVE SMOOTH",
"1091 563 LINE",
"1088 760 OFFCURVE",
"1022 908 OFFCURVE",
"891 1006 CURVE",
"994 1216 LINE",
"833 1216 LINE",
"763 1073 LINE",
"706 1092 OFFCURVE",
"645 1102 OFFCURVE",
"578 1102 CURVE SMOOTH",
"253 1102 OFFCURVE",
"66 866 OFFCURVE",
"66 551 CURVE SMOOTH",
"66 521 LINE SMOOTH",
"68 318 OFFCURVE",
"137 168 OFFCURVE",
"274 71 CURVE",
"170 -142 LINE",
"331 -142 LINE",
"403 6 LINE",
"458 -11 OFFCURVE",
"517 -20 OFFCURVE",
"580 -20 CURVE SMOOTH"
);
},
{
closed = 1;
nodes = (
"356 731 OFFCURVE",
"415 869 OFFCURVE",
"578 869 CURVE SMOOTH",
"607 869 OFFCURVE",
"633 864 OFFCURVE",
"657 855 CURVE",
"397 323 LINE",
"370 376 OFFCURVE",
"356 445 OFFCURVE",
"356 530 CURVE SMOOTH"
);
},
{
closed = 1;
nodes = (
"802 346 OFFCURVE",
"741 213 OFFCURVE",
"580 213 CURVE SMOOTH",
"555 213 OFFCURVE",
"531 216 OFFCURVE",
"509 223 CURVE",
"766 748 LINE",
"790 696 OFFCURVE",
"802 630 OFFCURVE",
"802 551 CURVE SMOOTH"
);
}
);
width = 1156;
}
);
note = oslash;
unicode = 00F8;
},
{
glyphname = thorn;
lastChange = "2017-04-17 15:03:23 +0000";
layers = (
{
layerId = "8F63CED7-3680-4993-9CF4-CD4CD6484F7E";
paths = (
{
closed = 1;
nodes = (
"939 -20 OFFCURVE",
"1088 217 OFFCURVE",
"1088 532 CURVE SMOOTH",
"1088 553 LINE SMOOTH",
"1088 882 OFFCURVE",
"940 1102 OFFCURVE",
"665 1102 CURVE SMOOTH",
"558 1102 OFFCURVE",
"470 1064 OFFCURVE",
"403 989 CURVE",
"403 1536 LINE",
"113 1536 LINE",
"113 -416 LINE",
"403 -416 LINE",
"403 94 LINE",
"472 18 OFFCURVE",
"560 -20 OFFCURVE",
"668 -20 CURVE SMOOTH"
);
},
{
closed = 1;
nodes = (
"739 868 OFFCURVE",
"799 732 OFFCURVE",
"799 553 CURVE SMOOTH",
"799 349 OFFCURVE",
"743 213 OFFCURVE",
"592 213 CURVE SMOOTH",
"502 213 OFFCURVE",
"439 249 OFFCURVE",
"403 320 CURVE",
"403 763 LINE",
"438 833 OFFCURVE",
"500 868 OFFCURVE",
"590 868 CURVE SMOOTH"
);
}
);
width = 1162;
}
);
note = thorn;
rightKerningGroup = b;
unicode = 00FE;
},
{
glyphname = dcroat;
lastChange = "2017-04-17 15:03:23 +0000";
layers = (
{
layerId = "8F63CED7-3680-4993-9CF4-CD4CD6484F7E";
paths = (
{
closed = 1;
nodes = (
"1041 1219 LINE",
"1199 1219 LINE",
"1199 1401 LINE",
"1041 1401 LINE",
"1041 1536 LINE",
"751 1536 LINE",
"751 1401 LINE",
"500 1401 LINE",
"500 1219 LINE",
"751 1219 LINE",
"751 985 LINE",
"683 1063 OFFCURVE",
"596 1102 OFFCURVE",
"491 1102 CURVE SMOOTH",
"220 1102 OFFCURVE",
"66 878 OFFCURVE",
"66 549 CURVE SMOOTH",
"66 528 LINE SMOOTH",
"66 213 OFFCURVE",
"221 -20 OFFCURVE",
"489 -20 CURVE SMOOTH",
"602 -20 OFFCURVE",
"695 25 OFFCURVE",
"766 115 CURVE",
"780 0 LINE",
"1041 0 LINE"
);
},
{
closed = 1;
nodes = (
"356 736 OFFCURVE",
"413 868 OFFCURVE",
"564 868 CURVE SMOOTH",
"652 868 OFFCURVE",
"714 831 OFFCURVE",
"751 756 CURVE",
"751 327 LINE",
"713 252 OFFCURVE",
"650 215 OFFCURVE",
"562 215 CURVE SMOOTH",
"410 215 OFFCURVE",
"356 355 OFFCURVE",
"356 528 CURVE SMOOTH"
);
}
);
width = 1291;
}
);
note = dcroat;
unicode = 0111;
},
{
glyphname = Hbar;
lastChange = "2017-04-17 15:03:23 +0000";
layers = (
{
layerId = "8F63CED7-3680-4993-9CF4-CD4CD6484F7E";
paths = (
{
closed = 1;
nodes = (
"1331 1050 LINE",
"1453 1050 LINE",
"1453 1224 LINE",
"1331 1224 LINE",
"1331 1456 LINE",
"1031 1456 LINE",
"1031 1224 LINE",
"446 1224 LINE",
"446 1456 LINE",
"146 1456 LINE",
"146 1224 LINE",
"32 1224 LINE",
"32 1050 LINE",
"146 1050 LINE",
"146 0 LINE",
"446 0 LINE",
"446 624 LINE",
"1031 624 LINE",
"1031 0 LINE",
"1331 0 LINE"
);
},
{
closed = 1;
nodes = (
"1031 1050 LINE",
"1031 866 LINE",
"446 866 LINE",
"446 1050 LINE"
);
}
);
width = 1474;
}
);
note = Hbar;
unicode = 0126;
},
{
glyphname = dotlessi;
lastChange = "2017-04-17 15:03:23 +0000";
layers = (
{
layerId = "8F63CED7-3680-4993-9CF4-CD4CD6484F7E";
paths = (
{
closed = 1;
nodes = (
"134 0 LINE",
"424 0 LINE",
"424 1082 LINE",
"134 1082 LINE"
);
}
);
width = 561;
}
);
note = dotlessi;
unicode = 0131;
},
{
glyphname = kgreenlandic;
lastChange = "2017-04-17 15:03:23 +0000";
layers = (
{
layerId = "8F63CED7-3680-4993-9CF4-CD4CD6484F7E";
paths = (
{
closed = 1;
nodes = (
"774 561 LINE",
"1153 1082 LINE",
"788 1082 LINE",
"507 675 LINE",
"419 675 LINE",
"419 1082 LINE",
"130 1082 LINE",
"130 0 LINE",
"419 0 LINE",
"419 399 LINE",
"538 399 LINE",
"800 0 LINE",
"1170 0 LINE"
);
}
);
width = 1209;
}
);
note = kgreenlandic;
unicode = 0138;
},
{
glyphname = Lslash;
lastChange = "2017-04-17 15:03:23 +0000";
layers = (
{
layerId = "8F63CED7-3680-4993-9CF4-CD4CD6484F7E";
paths = (
{
closed = 1;
nodes = (
"464 730 LINE",
"679 792 LINE",
"679 957 LINE",
"464 895 LINE",
"464 1456 LINE",
"163 1456 LINE",
"163 808 LINE",
"30 770 LINE",
"30 605 LINE",
"163 643 LINE",
"163 0 LINE",
"1100 0 LINE",
"1100 242 LINE",
"464 242 LINE"
);
}
);
width = 1142;
}
);
note = Lslash;
unicode = 0141;
},
{
glyphname = lslash;
lastChange = "2017-04-17 15:03:23 +0000";
layers = (
{
layerId = "8F63CED7-3680-4993-9CF4-CD4CD6484F7E";
paths = (
{
closed = 1;
nodes = (
"452 910 LINE",
"452 1536 LINE",
"162 1536 LINE",
"162 814 LINE",
"30 770 LINE",
"30 604 LINE",
"162 648 LINE",
"162 0 LINE",
"452 0 LINE",
"452 744 LINE",
"593 791 LINE",
"593 957 LINE"
);
}
);
width = 626;
}
);
note = lslash;
unicode = 0142;
},
{
glyphname = Eng;
lastChange = "2017-04-17 15:03:23 +0000";
layers = (
{
layerId = "8F63CED7-3680-4993-9CF4-CD4CD6484F7E";
paths = (
{
closed = 1;
nodes = (
"430 979 LINE",
"1012 0 LINE",
"1012 -36 LINE SMOOTH",
"1010 -141 OFFCURVE",
"970 -194 OFFCURVE",
"892 -194 CURVE SMOOTH",
"854 -194 OFFCURVE",
"821 -190 OFFCURVE",
"792 -183 CURVE",
"778 -420 LINE",
"824 -431 OFFCURVE",
"873 -437 OFFCURVE",
"926 -437 CURVE SMOOTH",
"1167 -437 OFFCURVE",
"1313 -292 OFFCURVE",
"1313 -28 CURVE SMOOTH",
"1313 1456 LINE",
"1012 1456 LINE",
"1012 477 LINE",
"430 1456 LINE",
"129 1456 LINE",
"129 0 LINE",
"430 0 LINE"
);
}
);
width = 1440;
}
);
note = Eng;
unicode = 014A;
},
{
glyphname = eng;
lastChange = "2017-04-17 15:03:23 +0000";
layers = (
{
layerId = "8F63CED7-3680-4993-9CF4-CD4CD6484F7E";
paths = (
{
closed = 1;
nodes = (
"1047 980 OFFCURVE",
"907 1102 OFFCURVE",
"699 1102 CURVE SMOOTH",
"569 1102 OFFCURVE",
"466 1045 OFFCURVE",
"391 930 CURVE",
"377 1082 LINE",
"109 1082 LINE",
"109 0 LINE",
"398 0 LINE",
"398 782 LINE",
"444 839 OFFCURVE",
"509 868 OFFCURVE",
"593 868 CURVE SMOOTH",
"698 868 OFFCURVE",
"757 817 OFFCURVE",
"757 660 CURVE SMOOTH",
"757 -38 LINE SMOOTH",
"756 -147 OFFCURVE",
"716 -201 OFFCURVE",
"637 -201 CURVE SMOOTH",
"600 -201 OFFCURVE",
"567 -197 OFFCURVE",
"537 -189 CURVE",
"523 -420 LINE",
"568 -431 OFFCURVE",
"616 -437 OFFCURVE",
"667 -437 CURVE SMOOTH",
"904 -437 OFFCURVE",
"1047 -295 OFFCURVE",
"1047 -35 CURVE SMOOTH",
"1047 660 LINE SMOOTH"
);
}
);
width = 1156;
}
);
note = eng;
unicode = 014B;
},
{
glyphname = OE;
lastChange = "2017-04-17 15:03:23 +0000";
layers = (
{
layerId = "8F63CED7-3680-4993-9CF4-CD4CD6484F7E";
paths = (
{
closed = 1;
nodes = (
"1201 631 LINE",
"1776 631 LINE",
"1776 866 LINE",
"1201 866 LINE",
"1201 1213 LINE",
"1875 1213 LINE",
"1875 1456 LINE",
"990 1456 LINE",
"879 1469 OFFCURVE",
"782 1476 OFFCURVE",
"700 1476 CURVE SMOOTH",
"341 1476 OFFCURVE",
"97 1233 OFFCURVE",
"97 880 CURVE SMOOTH",
"97 576 LINE SMOOTH",
"97 223 OFFCURVE",
"343 -20 OFFCURVE",
"702 -20 CURVE SMOOTH",
"783 -20 OFFCURVE",
"879 -13 OFFCURVE",
"990 0 CURVE",
"1877 0 LINE",
"1877 242 LINE",
"1201 242 LINE"
);
},
{
closed = 1;
nodes = (
"386 1123 OFFCURVE",
"507 1243 OFFCURVE",
"700 1243 CURVE SMOOTH",
"765 1243 OFFCURVE",
"832 1239 OFFCURVE",
"900 1230 CURVE",
"900 226 LINE",
"833 217 OFFCURVE",
"767 213 OFFCURVE",
"702 213 CURVE SMOOTH",
"509 213 OFFCURVE",
"386 333 OFFCURVE",
"386 576 CURVE SMOOTH",
"386 882 LINE SMOOTH"
);
}
);
width = 1983;
}
);
leftKerningGroup = C;
note = OE;
unicode = 0152;
},
{
glyphname = oe;
lastChange = "2017-04-17 15:03:23 +0000";
layers = (
{
layerId = "8F63CED7-3680-4993-9CF4-CD4CD6484F7E";
paths = (
{
closed = 1;
nodes = (
"1585 247 OFFCURVE",
"1511 213 OFFCURVE",
"1368 213 CURVE SMOOTH",
"1216 213 OFFCURVE",
"1136 317 OFFCURVE",
"1117 450 CURVE",
"1772 450 LINE",
"1772 613 LINE SMOOTH",
"1772 909 OFFCURVE",
"1608 1102 OFFCURVE",
"1311 1102 CURVE SMOOTH",
"1166 1103 OFFCURVE",
"1046 1047 OFFCURVE",
"963 954 CURVE",
"870 1053 OFFCURVE",
"747 1102 OFFCURVE",
"592 1102 CURVE SMOOTH",
"267 1102 OFFCURVE",
"83 866 OFFCURVE",
"83 551 CURVE SMOOTH",
"83 530 LINE SMOOTH",
"83 215 OFFCURVE",
"266 -20 OFFCURVE",
"594 -20 CURVE SMOOTH",
"750 -20 OFFCURVE",
"873 30 OFFCURVE",
"964 129 CURVE",
"1061 30 OFFCURVE",
"1185 -20 OFFCURVE",
"1338 -20 CURVE SMOOTH",
"1526 -20 OFFCURVE",
"1671 41 OFFCURVE",
"1748 104 CURVE",
"1668 290 LINE"
);
},
{
closed = 1;
nodes = (
"1436 869 OFFCURVE",
"1488 789 OFFCURVE",
"1488 673 CURVE SMOOTH",
"1488 647 LINE",
"1120 647 LINE",
"1139 775 OFFCURVE",
"1199 869 OFFCURVE",
"1311 869 CURVE SMOOTH"
);
},
{
closed = 1;
nodes = (
"372 731 OFFCURVE",
"431 869 OFFCURVE",
"592 869 CURVE SMOOTH",
"756 869 OFFCURVE",
"814 723 OFFCURVE",
"814 551 CURVE SMOOTH",
"814 346 OFFCURVE",
"755 213 OFFCURVE",
"594 213 CURVE SMOOTH",
"430 213 OFFCURVE",
"372 354 OFFCURVE",
"372 530 CURVE SMOOTH"
);
}
);
width = 1848;
}
);
leftKerningGroup = c;
note = oe;
unicode = 0153;
},
{
glyphname = longs;
lastChange = "2017-04-17 15:03:23 +0000";
layers = (
{
layerId = "8F63CED7-3680-4993-9CF4-CD4CD6484F7E";
paths = (
{
closed = 1;
nodes = (
"407 1275 OFFCURVE",
"456 1324 OFFCURVE",
"554 1324 CURVE SMOOTH",
"582 1324 OFFCURVE",
"614 1321 OFFCURVE",
"651 1314 CURVE",
"675 1536 LINE",
"611 1550 OFFCURVE",
"558 1557 OFFCURVE",
"516 1557 CURVE SMOOTH",
"265 1557 OFFCURVE",
"117 1423 OFFCURVE",
"117 1176 CURVE SMOOTH",
"117 0 LINE",
"406 0 LINE",
"406 1178 LINE SMOOTH"
);
}
);
width = 532;
}
);
note = longs;
unicode = 017F;
},
{
glyphname = uni0181;
lastChange = "2017-04-17 15:03:23 +0000";
layers = (
{
layerId = "8F63CED7-3680-4993-9CF4-CD4CD6484F7E";
paths = (
{
closed = 1;
nodes = (
"37 1037 OFFCURVE",
"43 989 OFFCURVE",
"54 943 CURVE",
"294 943 LINE",
"288 978 OFFCURVE",
"285 1006 OFFCURVE",
"285 1029 CURVE SMOOTH",
"285 1122 OFFCURVE",
"318 1212 OFFCURVE",
"435 1213 CURVE",
"435 0 LINE",
"1000 0 LINE SMOOTH",
"1332 3 OFFCURVE",
"1517 149 OFFCURVE",
"1517 429 CURVE SMOOTH",
"1517 569 OFFCURVE",
"1447 707 OFFCURVE",
"1276 750 CURVE",
"1420 807 OFFCURVE",
"1484 926 OFFCURVE",
"1484 1058 CURVE SMOOTH",
"1484 1330 OFFCURVE",
"1282 1456 OFFCURVE",
"945 1456 CURVE SMOOTH",
"435 1456 LINE",
"435 1456 LINE SMOOTH",
"179 1456 OFFCURVE",
"37 1321 OFFCURVE",
"37 1088 CURVE SMOOTH"
);
},
{
closed = 1;
nodes = (
"1107 1210 OFFCURVE",
"1183 1148 OFFCURVE",
"1183 1027 CURVE SMOOTH",
"1183 907 OFFCURVE",
"1104 847 OFFCURVE",
"945 847 CURVE SMOOTH",
"735 847 LINE",
"735 1213 LINE",
"955 1213 LINE SMOOTH"
);
},
{
closed = 1;
nodes = (
"1217 323 OFFCURVE",
"1144 242 OFFCURVE",
"991 242 CURVE SMOOTH",
"735 242 LINE",
"735 635 LINE",
"1015 635 LINE SMOOTH",
"1150 632 OFFCURVE",
"1217 564 OFFCURVE",
"1217 432 CURVE SMOOTH"
);
}
);
width = 1609;
}
);
note = uni0181;
unicode = 0181;
},
{
glyphname = uni0183;
lastChange = "2017-04-17 15:03:23 +0000";
layers = (
{
layerId = "8F63CED7-3680-4993-9CF4-CD4CD6484F7E";
paths = (
{
closed = 1;
nodes = (
"385 115 LINE",
"455 25 OFFCURVE",
"549 -20 OFFCURVE",
"666 -20 CURVE SMOOTH",
"947 -20 OFFCURVE",
"1086 207 OFFCURVE",
"1086 531 CURVE SMOOTH",
"1086 552 LINE SMOOTH",
"1086 872 OFFCURVE",
"948 1102 OFFCURVE",
"664 1102 CURVE SMOOTH",
"556 1102 OFFCURVE",
"468 1063 OFFCURVE",
"401 986 CURVE",
"401 1353 LINE",
"886 1353 LINE",
"886 1536 LINE",
"111 1536 LINE",
"111 0 LINE",
"372 0 LINE"
);
},
{
closed = 1;
nodes = (
"755 868 OFFCURVE",
"797 723 OFFCURVE",
"797 552 CURVE SMOOTH",
"797 337 OFFCURVE",
"754 214 OFFCURVE",
"593 214 CURVE SMOOTH",
"500 214 OFFCURVE",
"436 252 OFFCURVE",
"401 327 CURVE",
"401 755 LINE",
"436 830 OFFCURVE",
"500 868 OFFCURVE",
"591 868 CURVE SMOOTH"
);
}
);
width = 1153;
}
);
note = uni0183;
rightKerningGroup = b;
unicode = 0183;
},
{
glyphname = uni0184;
lastChange = "2017-04-17 15:03:23 +0000";
layers = (
{
layerId = "8F63CED7-3680-4993-9CF4-CD4CD6484F7E";
paths = (
{
closed = 1;
nodes = (
"1347 747 OFFCURVE",
"1139 928 OFFCURVE",
"806 932 CURVE SMOOTH",
"555 932 LINE",
"555 1456 LINE",
"253 1456 LINE",
"69 1280 LINE",
"69 1142 LINE",
"253 967 LINE",
"253 0 LINE",
"794 0 LINE SMOOTH",
"1135 0 OFFCURVE",
"1347 192 OFFCURVE",
"1347 471 CURVE SMOOTH"
);
},
{
closed = 1;
nodes = (
"794 690 LINE SMOOTH",
"963 690 OFFCURVE",
"1046 596 OFFCURVE",
"1046 473 CURVE SMOOTH",
"1046 346 OFFCURVE",
"963 242 OFFCURVE",
"794 242 CURVE SMOOTH",
"555 242 LINE",
"555 690 LINE"
);
}
);
width = 1406;
}
);
note = uni0184;
unicode = 0184;
},
{
glyphname = uni0185;
lastChange = "2017-04-17 15:03:23 +0000";
layers = (
{
layerId = "8F63CED7-3680-4993-9CF4-CD4CD6484F7E";
paths = (
{
closed = 1;
nodes = (
"1215 872 OFFCURVE",
"1077 1102 OFFCURVE",
"793 1102 CURVE SMOOTH",
"684 1102 OFFCURVE",
"596 1063 OFFCURVE",
"529 985 CURVE",
"529 1536 LINE",
"240 1536 LINE",
"56 1360 LINE",
"56 1222 LINE",
"240 1047 LINE",
"240 0 LINE",
"501 0 LINE",
"514 115 LINE",
"584 25 OFFCURVE",
"678 -20 OFFCURVE",
"795 -20 CURVE SMOOTH",
"1076 -20 OFFCURVE",
"1215 207 OFFCURVE",
"1215 531 CURVE SMOOTH",
"1215 552 LINE SMOOTH"
);
},
{
closed = 1;
nodes = (
"884 868 OFFCURVE",
"926 723 OFFCURVE",
"926 552 CURVE SMOOTH",
"926 337 OFFCURVE",
"883 214 OFFCURVE",
"722 214 CURVE SMOOTH",
"629 214 OFFCURVE",
"564 252 OFFCURVE",
"529 329 CURVE",
"529 753 LINE",
"564 830 OFFCURVE",
"628 868 OFFCURVE",
"720 868 CURVE SMOOTH"
);
}
);
width = 1282;
}
);
note = uni0185;
rightKerningGroup = b;
unicode = 0185;
},
{
glyphname = uni0186;
lastChange = "2017-04-17 15:03:23 +0000";
layers = (
{
layerId = "8F63CED7-3680-4993-9CF4-CD4CD6484F7E";
paths = (
{
closed = 1;
nodes = (
"93 195 OFFCURVE",
"285 -21 OFFCURVE",
"649 -21 CURVE SMOOTH",
"1017 -21 OFFCURVE",
"1254 250 OFFCURVE",
"1254 681 CURVE SMOOTH",
"1254 776 LINE SMOOTH",
"1254 1207 OFFCURVE",
"1026 1476 OFFCURVE",
"653 1476 CURVE SMOOTH",
"294 1476 OFFCURVE",
"87 1267 OFFCURVE",
"67 971 CURVE",
"367 971 LINE",
"382 1144 OFFCURVE",
"464 1230 OFFCURVE",
"653 1230 CURVE SMOOTH",
"866 1230 OFFCURVE",
"950 1077 OFFCURVE",
"950 776 CURVE SMOOTH",
"950 656 LINE SMOOTH",
"945 369 OFFCURVE",
"844 225 OFFCURVE",
"649 225 CURVE SMOOTH",
"450 225 OFFCURVE",
"380 321 OFFCURVE",
"365 494 CURVE",
"65 494 LINE"
);
}
);
width = 1341;
}
);
note = uni0186;
rightKerningGroup = D;
unicode = 0186;
},
{
glyphname = uni0187;
lastChange = "2017-04-17 15:03:23 +0000";
layers = (
{
layerId = "8F63CED7-3680-4993-9CF4-CD4CD6484F7E";
paths = (
{
closed = 1;
nodes = (
"1498 1327 OFFCURVE",
"1526 1324 OFFCURVE",
"1555 1318 CURVE",
"1555 1559 LINE",
"1510 1570 OFFCURVE",
"1462 1576 OFFCURVE",
"1411 1576 CURVE SMOOTH",
"1238 1576 OFFCURVE",
"1123 1506 OFFCURVE",
"1066 1367 CURVE",
"967 1440 OFFCURVE",
"842 1477 OFFCURVE",
"691 1477 CURVE SMOOTH",
"324 1477 OFFCURVE",
"86 1206 OFFCURVE",
"86 775 CURVE SMOOTH",
"86 680 LINE SMOOTH",
"86 249 OFFCURVE",
"315 -20 OFFCURVE",
"688 -20 CURVE SMOOTH",
"1045 -20 OFFCURVE",
"1254 189 OFFCURVE",
"1274 485 CURVE",
"974 485 LINE",
"959 312 OFFCURVE",
"877 226 OFFCURVE",
"688 226 CURVE SMOOTH",
"475 226 OFFCURVE",
"391 379 OFFCURVE",
"391 680 CURVE SMOOTH",
"391 800 LINE SMOOTH",
"396 1087 OFFCURVE",
"496 1231 OFFCURVE",
"691 1231 CURVE SMOOTH",
"890 1231 OFFCURVE",
"962 1135 OFFCURVE",
"975 962 CURVE",
"1275 962 LINE",
"1275 1174 LINE SMOOTH",
"1275 1305 OFFCURVE",
"1374 1327 OFFCURVE",
"1469 1327 CURVE SMOOTH"
);
}
);
width = 1479;
}
);
leftKerningGroup = C;
note = uni0187;
unicode = 0187;
},
{
glyphname = uni0188;
lastChange = "2017-04-17 15:03:23 +0000";
layers = (
{
layerId = "8F63CED7-3680-4993-9CF4-CD4CD6484F7E";
paths = (
{
closed = 1;
nodes = (
"1205 1000 OFFCURVE",
"1230 998 OFFCURVE",
"1254 993 CURVE",
"1254 1187 LINE",
"1216 1197 OFFCURVE",
"1175 1202 OFFCURVE",
"1130 1202 CURVE SMOOTH",
"985 1202 OFFCURVE",
"889 1143 OFFCURVE",
"844 1024 CURVE",
"767 1076 OFFCURVE",
"674 1102 OFFCURVE",
"565 1102 CURVE SMOOTH",
"230 1102 OFFCURVE",
"66 860 OFFCURVE",
"66 555 CURVE SMOOTH",
"66 527 LINE SMOOTH",
"66 220 OFFCURVE",
"231 -20 OFFCURVE",
"566 -20 CURVE SMOOTH",
"817 -20 OFFCURVE",
"1012 145 OFFCURVE",
"1015 374 CURVE",
"743 374 LINE",
"742 275 OFFCURVE",
"666 213 OFFCURVE",
"561 213 CURVE SMOOTH",
"390 213 OFFCURVE",
"356 360 OFFCURVE",
"356 527 CURVE SMOOTH",
"356 731 OFFCURVE",
"392 869 OFFCURVE",
"560 869 CURVE SMOOTH",
"677 869 OFFCURVE",
"742 784 OFFCURVE",
"743 679 CURVE",
"1015 679 LINE",
"1015 860 LINE SMOOTH",
"1015 971 OFFCURVE",
"1100 1000 OFFCURVE",
"1180 1000 CURVE SMOOTH"
);
}
);
width = 1208;
}
);
leftKerningGroup = c;
note = uni0188;
unicode = 0188;
},
{
glyphname = uni018A;
lastChange = "2017-04-17 15:03:23 +0000";
layers = (
{
layerId = "8F63CED7-3680-4993-9CF4-CD4CD6484F7E";
paths = (
{
closed = 1;
nodes = (
"37 1037 OFFCURVE",
"43 989 OFFCURVE",
"54 943 CURVE",
"294 943 LINE",
"288 978 OFFCURVE",
"285 1006 OFFCURVE",
"285 1029 CURVE SMOOTH",
"285 1124 OFFCURVE",
"317 1212 OFFCURVE",
"436 1213 CURVE",
"436 0 LINE",
"881 0 LINE SMOOTH",
"1278 0 OFFCURVE",
"1550 279 OFFCURVE",
"1550 695 CURVE SMOOTH",
"1550 760 LINE SMOOTH",
"1550 1176 OFFCURVE",
"1277 1456 OFFCURVE",
"885 1456 CURVE SMOOTH",
"436 1456 LINE",
"436 1456 LINE SMOOTH",
"179 1456 OFFCURVE",
"37 1321 OFFCURVE",
"37 1088 CURVE SMOOTH"
);
},
{
closed = 1;
nodes = (
"1129 1209 OFFCURVE",
"1245 1058 OFFCURVE",
"1245 762 CURVE SMOOTH",
"1245 686 LINE SMOOTH",
"1242 401 OFFCURVE",
"1117 242 OFFCURVE",
"881 242 CURVE SMOOTH",
"737 242 LINE",
"737 1213 LINE",
"894 1213 LINE SMOOTH"
);
}
);
width = 1637;
}
);
note = uni018A;
rightKerningGroup = D;
unicode = 018A;
},
{
glyphname = uni018B;
lastChange = "2017-04-17 15:03:23 +0000";
layers = (
{
layerId = "8F63CED7-3680-4993-9CF4-CD4CD6484F7E";
paths = (
{
closed = 1;
nodes = (
"217 1456 LINE",
"217 1213 LINE",
"870 1213 LINE",
"870 932 LINE",
"630 932 LINE SMOOTH",
"289 932 OFFCURVE",
"78 750 OFFCURVE",
"78 471 CURVE SMOOTH",
"78 194 OFFCURVE",
"287 1 OFFCURVE",
"626 0 CURVE SMOOTH",
"1171 0 LINE",
"1171 1456 LINE"
);
},
{
closed = 1;
nodes = (
"461 242 OFFCURVE",
"378 346 OFFCURVE",
"378 473 CURVE SMOOTH",
"378 596 OFFCURVE",
"461 690 OFFCURVE",
"630 690 CURVE SMOOTH",
"870 690 LINE",
"870 242 LINE",
"630 242 LINE SMOOTH"
);
}
);
width = 1283;
}
);
note = uni018B;
rightKerningGroup = H;
unicode = 018B;
},
{
glyphname = uni018C;
lastChange = "2017-04-17 15:03:23 +0000";
layers = (
{
layerId = "8F63CED7-3680-4993-9CF4-CD4CD6484F7E";
paths = (
{
closed = 1;
nodes = (
"751 985 LINE",
"683 1063 OFFCURVE",
"596 1102 OFFCURVE",
"491 1102 CURVE SMOOTH",
"220 1102 OFFCURVE",
"66 878 OFFCURVE",
"66 549 CURVE SMOOTH",
"66 528 LINE SMOOTH",
"66 213 OFFCURVE",
"221 -20 OFFCURVE",
"489 -20 CURVE SMOOTH",
"602 -20 OFFCURVE",
"695 25 OFFCURVE",
"766 115 CURVE",
"780 0 LINE",
"1041 0 LINE",
"1041 1536 LINE",
"266 1536 LINE",
"266 1353 LINE",
"751 1353 LINE"
);
},
{
closed = 1;
nodes = (
"356 736 OFFCURVE",
"413 868 OFFCURVE",
"564 868 CURVE SMOOTH",
"652 868 OFFCURVE",
"714 831 OFFCURVE",
"751 756 CURVE",
"751 327 LINE",
"713 252 OFFCURVE",
"650 215 OFFCURVE",
"562 215 CURVE SMOOTH",
"410 215 OFFCURVE",
"356 355 OFFCURVE",
"356 528 CURVE SMOOTH"
);
}
);
width = 1155;
}
);
note = uni018C;
unicode = 018C;
},
{
glyphname = uni018D;
lastChange = "2017-04-17 15:03:23 +0000";
layers = (
{
layerId = "8F63CED7-3680-4993-9CF4-CD4CD6484F7E";
paths = (
{
closed = 1;
nodes = (
"902 -156 OFFCURVE",
"815 -71 OFFCURVE",
"702 33 CURVE SMOOTH",
"652 78 LINE",
"686 80 LINE",
"918 117 OFFCURVE",
"1087 310 OFFCURVE",
"1087 579 CURVE SMOOTH",
"1087 603 LINE",
"1086 888 OFFCURVE",
"904 1102 OFFCURVE",
"577 1102 CURVE SMOOTH",
"249 1102 OFFCURVE",
"68 875 OFFCURVE",
"68 571 CURVE SMOOTH",
"68 544 LINE SMOOTH",
"71 321 OFFCURVE",
"218 143 OFFCURVE",
"451 -41 CURVE SMOOTH",
"585 -143 LINE",
"174 -143 LINE",
"174 -375 LINE",
"962 -375 LINE",
"962 -221 LINE"
);
},
{
closed = 1;
nodes = (
"798 368 OFFCURVE",
"738 231 OFFCURVE",
"573 231 CURVE SMOOTH",
"550 231 OFFCURVE",
"531 233 OFFCURVE",
"514 238 CURVE",
"431 289 OFFCURVE",
"357 399 OFFCURVE",
"357 550 CURVE SMOOTH",
"357 745 OFFCURVE",
"416 869 OFFCURVE",
"577 869 CURVE SMOOTH",
"741 869 OFFCURVE",
"798 736 OFFCURVE",
"798 571 CURVE SMOOTH"
);
}
);
width = 1156;
}
);
note = uni018D;
unicode = 018D;
},
{
glyphname = uni018E;
lastChange = "2017-04-17 15:03:23 +0000";
layers = (
{
layerId = "8F63CED7-3680-4993-9CF4-CD4CD6484F7E";
paths = (
{
closed = 1;
nodes = (
"721 825 LINE",
"146 825 LINE",
"146 590 LINE",
"721 590 LINE",
"721 243 LINE",
"48 243 LINE",
"48 0 LINE",
"1022 0 LINE",
"1022 1456 LINE",
"46 1456 LINE",
"46 1214 LINE",
"721 1214 LINE"
);
}
);
width = 1152;
}
);
note = uni018E;
rightKerningGroup = H;
unicode = 018E;
},
{
glyphname = uni018F;
lastChange = "2017-04-17 15:03:23 +0000";
layers = (
{
layerId = "8F63CED7-3680-4993-9CF4-CD4CD6484F7E";
paths = (
{
closed = 1;
nodes = (
"1326 1196 OFFCURVE",
"1087 1477 OFFCURVE",
"635 1477 CURVE SMOOTH",
"420 1477 OFFCURVE",
"229 1419 OFFCURVE",
"185 1398 CURVE",
"234 1151 LINE",
"311 1176 OFFCURVE",
"441 1214 OFFCURVE",
"620 1214 CURVE SMOOTH",
"909 1214 OFFCURVE",
"1017 1042 OFFCURVE",
"1025 827 CURVE",
"75 827 LINE",
"75 664 LINE SMOOTH",
"75 245 OFFCURVE",
"291 -21 OFFCURVE",
"702 -21 CURVE SMOOTH",
"819 -21 OFFCURVE",
"925 8 OFFCURVE",
"1019 65 CURVE SMOOTH",
"1207 179 OFFCURVE",
"1326 387 OFFCURVE",
"1326 651 CURVE SMOOTH",
"1326 800 LINE SMOOTH"
);
},
{
closed = 1;
nodes = (
"462 241 OFFCURVE",
"375 379 OFFCURVE",
"375 552 CURVE SMOOTH",
"375 583 LINE",
"1023 583 LINE",
"1002 390 OFFCURVE",
"895 241 OFFCURVE",
"702 241 CURVE SMOOTH"
);
}
);
width = 1423;
}
);
note = uni018F;
rightKerningGroup = D;
unicode = 018F;
},
{
glyphname = uni0190;
lastChange = "2017-04-17 15:03:23 +0000";
layers = (
{
layerId = "8F63CED7-3680-4993-9CF4-CD4CD6484F7E";
paths = (
{
closed = 1;
nodes = (
"483 864 OFFCURVE",
"413 930 OFFCURVE",
"413 1057 CURVE SMOOTH",
"413 1157 OFFCURVE",
"485 1233 OFFCURVE",
"654 1233 CURVE SMOOTH",
"783 1233 OFFCURVE",
"873 1173 OFFCURVE",
"873 1064 CURVE",
"1173 1064 LINE",
"1173 1321 OFFCURVE",
"935 1476 OFFCURVE",
"654 1476 CURVE SMOOTH",
"330 1476 OFFCURVE",
"113 1333 OFFCURVE",
"113 1061 CURVE SMOOTH",
"113 916 OFFCURVE",
"201 806 OFFCURVE",
"338 746 CURVE",
"173 687 OFFCURVE",
"90 575 OFFCURVE",
"90 408 CURVE SMOOTH",
"90 109 OFFCURVE",
"325 -20 OFFCURVE",
"654 -20 CURVE SMOOTH",
"741 -20 OFFCURVE",
"826 -5 OFFCURVE",
"909 24 CURVE SMOOTH",
"1074 83 OFFCURVE",
"1194 205 OFFCURVE",
"1194 404 CURVE",
"894 404 LINE",
"894 297 OFFCURVE",
"802 222 OFFCURVE",
"654 222 CURVE SMOOTH",
"497 222 OFFCURVE",
"391 279 OFFCURVE",
"391 412 CURVE SMOOTH",
"391 567 OFFCURVE",
"474 625 OFFCURVE",
"638 625 CURVE SMOOTH",
"815 625 LINE",
"815 860 LINE",
"622 860 LINE SMOOTH"
);
}
);
width = 1263;
}
);
note = uni0190;
unicode = 0190;
},
{
glyphname = uni0191;
lastChange = "2017-04-17 15:03:23 +0000";
layers = (
{
layerId = "8F63CED7-3680-4993-9CF4-CD4CD6484F7E";
paths = (
{
closed = 1;
nodes = (
"230 1456 LINE",
"230 -35 LINE SMOOTH",
"230 -137 OFFCURVE",
"189 -188 OFFCURVE",
"106 -188 CURVE SMOOTH",
"75 -188 OFFCURVE",
"45 -184 OFFCURVE",
"15 -176 CURVE",
"0 -420 LINE",
"43 -431 OFFCURVE",
"91 -437 OFFCURVE",
"143 -437 CURVE SMOOTH",
"380 -437 OFFCURVE",
"530 -295 OFFCURVE",
"530 -35 CURVE SMOOTH",
"530 595 LINE",
"1106 595 LINE",
"1106 837 LINE",
"530 837 LINE",
"530 1213 LINE",
"1178 1213 LINE",
"1178 1456 LINE"
);
}
);
width = 1222;
}
);
note = uni0191;
unicode = 0191;
},
{
glyphname = florin;
lastChange = "2017-04-17 15:03:23 +0000";
layers = (
{
layerId = "8F63CED7-3680-4993-9CF4-CD4CD6484F7E";
paths = (
{
closed = 1;
nodes = (
"474 1180 LINE SMOOTH",
"475 1275 OFFCURVE",
"524 1322 OFFCURVE",
"619 1322 CURVE SMOOTH",
"654 1322 OFFCURVE",
"687 1319 OFFCURVE",
"718 1312 CURVE",
"743 1536 LINE",
"679 1550 OFFCURVE",
"626 1557 OFFCURVE",
"583 1557 CURVE SMOOTH",
"334 1557 OFFCURVE",
"185 1423 OFFCURVE",
"185 1176 CURVE SMOOTH",
"185 1082 LINE",
"24 1082 LINE",
"24 871 LINE",
"185 871 LINE",
"185 -50 LINE SMOOTH",
"185 -153 OFFCURVE",
"147 -204 OFFCURVE",
"71 -204 CURVE SMOOTH",
"37 -204 OFFCURVE",
"7 -200 OFFCURVE",
"-20 -192 CURVE",
"-35 -420 LINE",
"8 -431 OFFCURVE",
"56 -437 OFFCURVE",
"108 -437 CURVE SMOOTH",
"336 -437 OFFCURVE",
"474 -301 OFFCURVE",
"474 -50 CURVE SMOOTH",
"474 871 LINE",
"682 871 LINE",
"682 1082 LINE",
"474 1082 LINE"
);
}
);
width = 739;
}
);
note = florin;
unicode = 0192;
},
{
glyphname = uni0193;
lastChange = "2017-04-17 15:03:23 +0000";
layers = (
{
layerId = "8F63CED7-3680-4993-9CF4-CD4CD6484F7E";
paths = (
{
closed = 1;
nodes = (
"1284 1305 OFFCURVE",
"1384 1329 OFFCURVE",
"1477 1329 CURVE SMOOTH",
"1506 1329 OFFCURVE",
"1534 1326 OFFCURVE",
"1563 1320 CURVE",
"1563 1559 LINE",
"1518 1570 OFFCURVE",
"1470 1576 OFFCURVE",
"1419 1576 CURVE SMOOTH",
"1251 1576 OFFCURVE",
"1138 1510 OFFCURVE",
"1079 1377 CURVE",
"984 1444 OFFCURVE",
"860 1477 OFFCURVE",
"705 1477 CURVE SMOOTH",
"336 1477 OFFCURVE",
"94 1220 OFFCURVE",
"94 771 CURVE SMOOTH",
"94 684 LINE SMOOTH",
"94 235 OFFCURVE",
"349 -20 OFFCURVE",
"726 -20 CURVE SMOOTH",
"1046 -20 OFFCURVE",
"1214 101 OFFCURVE",
"1283 184 CURVE",
"1283 765 LINE",
"710 765 LINE",
"710 545 LINE",
"982 545 LINE",
"982 294 LINE",
"966 279 OFFCURVE",
"940 263 OFFCURVE",
"904 247 CURVE SMOOTH",
"868 230 OFFCURVE",
"814 222 OFFCURVE",
"742 222 CURVE SMOOTH",
"513 222 OFFCURVE",
"399 377 OFFCURVE",
"399 684 CURVE SMOOTH",
"400 827 LINE",
"412 1099 OFFCURVE",
"516 1235 OFFCURVE",
"713 1235 CURVE SMOOTH",
"894 1235 OFFCURVE",
"967 1140 OFFCURVE",
"990 993 CURVE",
"1284 993 LINE",
"1284 1174 LINE SMOOTH"
);
}
);
width = 1484;
}
);
leftKerningGroup = C;
note = uni0193;
unicode = 0193;
},
{
glyphname = uni0194;
lastChange = "2017-04-17 15:03:23 +0000";
layers = (
{
layerId = "8F63CED7-3680-4993-9CF4-CD4CD6484F7E";
paths = (
{
closed = 1;
nodes = (
"1028 -126 OFFCURVE",
"1014 -75 OFFCURVE",
"986 -7 CURVE SMOOTH",
"828 352 LINE",
"1339 1456 LINE",
"993 1456 LINE",
"682 702 LINE",
"372 1456 LINE",
"27 1456 LINE",
"538 354 LINE",
"485 233 OFFCURVE",
"437 128 OFFCURVE",
"394 38 CURVE SMOOTH",
"351 -53 OFFCURVE",
"329 -119 OFFCURVE",
"329 -160 CURVE SMOOTH",
"329 -353 OFFCURVE",
"491 -437 OFFCURVE",
"683 -437 CURVE SMOOTH",
"874 -437 OFFCURVE",
"1028 -353 OFFCURVE",
"1028 -160 CURVE SMOOTH"
);
},
{
closed = 1;
nodes = (
"627 -110 OFFCURVE",
"646 -48 OFFCURVE",
"683 38 CURVE",
"720 -47 OFFCURVE",
"738 -109 OFFCURVE",
"738 -149 CURVE SMOOTH",
"738 -199 OFFCURVE",
"720 -224 OFFCURVE",
"683 -224 CURVE SMOOTH",
"646 -224 OFFCURVE",
"627 -199 OFFCURVE",
"627 -149 CURVE SMOOTH"
);
}
);
width = 1366;
}
);
note = uni0194;
unicode = 0194;
},
{
glyphname = uni0195;
lastChange = "2017-04-17 15:03:23 +0000";
layers = (
{
layerId = "8F63CED7-3680-4993-9CF4-CD4CD6484F7E";
paths = (
{
closed = 1;
nodes = (
"566 1102 OFFCURVE",
"469 1056 OFFCURVE",
"394 965 CURVE",
"394 1536 LINE",
"105 1536 LINE",
"105 0 LINE",
"394 0 LINE",
"394 771 LINE",
"432 836 OFFCURVE",
"493 868 OFFCURVE",
"577 868 CURVE SMOOTH",
"724 868 OFFCURVE",
"750 788 OFFCURVE",
"750 672 CURVE SMOOTH",
"750 424 LINE SMOOTH",
"751 109 OFFCURVE",
"897 -20 OFFCURVE",
"1193 -20 CURVE SMOOTH",
"1489 -20 OFFCURVE",
"1633 108 OFFCURVE",
"1636 420 CURVE SMOOTH",
"1636 1082 LINE",
"1347 1082 LINE",
"1347 426 LINE SMOOTH",
"1347 271 OFFCURVE",
"1282 215 OFFCURVE",
"1193 215 CURVE SMOOTH",
"1104 215 OFFCURVE",
"1040 271 OFFCURVE",
"1040 426 CURVE SMOOTH",
"1040 672 LINE SMOOTH",
"1040 748 OFFCURVE",
"1030 819 OFFCURVE",
"1011 884 CURVE SMOOTH",
"971 1015 OFFCURVE",
"874 1102 OFFCURVE",
"683 1102 CURVE SMOOTH"
);
}
);
width = 1744;
}
);
note = uni0195;
unicode = 0195;
},
{
glyphname = uni0198;
lastChange = "2017-04-17 15:03:23 +0000";
layers = (
{
layerId = "8F63CED7-3680-4993-9CF4-CD4CD6484F7E";
paths = (
{
closed = 1;
nodes = (
"783 815 LINE",
"978 1092 LINE SMOOTH",
"1033 1173 OFFCURVE",
"1068 1221 OFFCURVE",
"1125 1221 CURVE SMOOTH",
"1148 1221 OFFCURVE",
"1175 1213 OFFCURVE",
"1207 1196 CURVE",
"1315 1415 LINE",
"1246 1450 OFFCURVE",
"1179 1477 OFFCURVE",
"1082 1477 CURVE SMOOTH",
"913 1477 OFFCURVE",
"840 1369 OFFCURVE",
"732 1212 CURVE SMOOTH",
"562 977 LINE",
"431 784 LINE",
"431 1456 LINE",
"130 1456 LINE",
"130 0 LINE",
"431 0 LINE",
"431 410 LINE",
"588 583 LINE",
"961 0 LINE",
"1318 0 LINE"
);
}
);
width = 1301;
}
);
note = uni0198;
rightKerningGroup = K;
unicode = 0198;
},
{
glyphname = uni0199;
lastChange = "2017-04-17 15:03:23 +0000";
layers = (
{
layerId = "8F63CED7-3680-4993-9CF4-CD4CD6484F7E";
paths = (
{
closed = 1;
nodes = (
"585 1355 OFFCURVE",
"610 1353 OFFCURVE",
"639 1348 CURVE",
"639 1542 LINE",
"600 1552 OFFCURVE",
"550 1557 OFFCURVE",
"489 1557 CURVE SMOOTH",
"241 1557 OFFCURVE",
"115 1446 OFFCURVE",
"112 1223 CURVE SMOOTH",
"112 0 LINE",
"401 0 LINE",
"401 331 LINE",
"504 434 LINE",
"782 0 LINE",
"1115 0 LINE",
"690 632 LINE",
"1080 1082 LINE",
"733 1082 LINE",
"457 758 LINE",
"401 686 LINE",
"401 1214 LINE SMOOTH",
"401 1326 OFFCURVE",
"486 1355 OFFCURVE",
"566 1355 CURVE SMOOTH"
);
}
);
width = 1094;
}
);
note = uni0199;
unicode = 0199;
},
{
glyphname = uni019B;
lastChange = "2017-04-17 15:03:23 +0000";
layers = (
{
layerId = "8F63CED7-3680-4993-9CF4-CD4CD6484F7E";
paths = (
{
closed = 1;
nodes = (
"1080 217 LINE SMOOTH",
"1025 217 OFFCURVE",
"997 271 OFFCURVE",
"973 330 CURVE SMOOTH",
"647 1149 LINE",
"755 1185 LINE",
"755 1379 LINE",
"578 1320 LINE",
"556 1376 LINE SMOOTH",
"512 1489 OFFCURVE",
"422 1546 OFFCURVE",
"287 1546 CURVE SMOOTH",
"222 1546 OFFCURVE",
"168 1539 OFFCURVE",
"125 1525 CURVE",
"131 1309 LINE",
"190 1312 LINE",
"247 1312 OFFCURVE",
"289 1286 OFFCURVE",
"314 1233 CURVE",
"192 1192 LINE",
"192 998 LINE",
"388 1063 LINE",
"390 1057 LINE",
"8 0 LINE",
"320 0 LINE",
"540 664 LINE",
"708 202 LINE SMOOTH",
"760 59 OFFCURVE",
"841 -19 OFFCURVE",
"1006 -19 CURVE SMOOTH",
"1053 -19 OFFCURVE",
"1089 -17 OFFCURVE",
"1115 -12 CURVE",
"1114 217 LINE"
);
}
);
width = 1124;
}
);
note = uni019B;
unicode = 019B;
},
{
glyphname = uni019C;
lastChange = "2017-04-17 15:03:23 +0000";
layers = (
{
layerId = "8F63CED7-3680-4993-9CF4-CD4CD6484F7E";
paths = (
{
closed = 1;
nodes = (
"1716 1456 LINE",
"1426 1456 LINE",
"1426 328 LINE",
"1388 253 OFFCURVE",
"1320 215 OFFCURVE",
"1223 215 CURVE SMOOTH",
"1134 215 OFFCURVE",
"1069 271 OFFCURVE",
"1069 426 CURVE SMOOTH",
"1069 1456 LINE",
"780 1456 LINE",
"780 404 LINE",
"784 335 LINE",
"747 255 OFFCURVE",
"679 215 OFFCURVE",
"578 215 CURVE SMOOTH",
"487 215 OFFCURVE",
"424 271 OFFCURVE",
"424 426 CURVE SMOOTH",
"424 1456 LINE",
"135 1456 LINE",
"135 422 LINE SMOOTH",
"136 79 OFFCURVE",
"277 -20 OFFCURVE",
"494 -20 CURVE SMOOTH",
"645 -20 OFFCURVE",
"756 39 OFFCURVE",
"829 157 CURVE",
"884 39 OFFCURVE",
"988 -20 OFFCURVE",
"1140 -20 CURVE SMOOTH",
"1267 -20 OFFCURVE",
"1368 25 OFFCURVE",
"1441 116 CURVE",
"1454 0 LINE",
"1716 0 LINE"
);
}
);
width = 1851;
}
);
note = uni019C;
rightKerningGroup = H;
unicode = 019C;
},
{
glyphname = uni019D;
lastChange = "2017-04-17 15:03:23 +0000";
layers = (
{
layerId = "8F63CED7-3680-4993-9CF4-CD4CD6484F7E";
paths = (
{
closed = 1;
nodes = (
"1414 1456 LINE",
"1115 1456 LINE",
"1115 496 LINE",
"530 1456 LINE",
"230 1456 LINE",
"230 -35 LINE SMOOTH",
"230 -137 OFFCURVE",
"189 -188 OFFCURVE",
"106 -188 CURVE SMOOTH",
"75 -188 OFFCURVE",
"45 -184 OFFCURVE",
"15 -176 CURVE",
"0 -420 LINE",
"43 -431 OFFCURVE",
"91 -437 OFFCURVE",
"143 -437 CURVE SMOOTH",
"380 -437 OFFCURVE",
"530 -295 OFFCURVE",
"530 -35 CURVE SMOOTH",
"530 959 LINE",
"1114 0 LINE",
"1414 0 LINE"
);
}
);
width = 1548;
}
);
note = uni019D;
rightKerningGroup = H;
unicode = 019D;
},
{
glyphname = Ohorn;
lastChange = "2017-04-17 15:03:23 +0000";
layers = (
{
layerId = "8F63CED7-3680-4993-9CF4-CD4CD6484F7E";
paths = (
{
closed = 1;
nodes = (
"1321 907 OFFCURVE",
"1294 1036 OFFCURVE",
"1240 1146 CURVE",
"1391 1197 OFFCURVE",
"1467 1338 OFFCURVE",
"1467 1567 CURVE",
"1272 1567 LINE",
"1272 1414 OFFCURVE",
"1242 1313 OFFCURVE",
"1145 1288 CURVE",
"1032 1413 OFFCURVE",
"884 1476 OFFCURVE",
"700 1476 CURVE SMOOTH",
"335 1476 OFFCURVE",
"80 1204 OFFCURVE",
"80 760 CURVE SMOOTH",
"80 695 LINE SMOOTH",
"80 251 OFFCURVE",
"337 -20 OFFCURVE",
"702 -20 CURVE SMOOTH",
"1069 -20 OFFCURVE",
"1321 251 OFFCURVE",
"1321 695 CURVE SMOOTH",
"1321 760 LINE SMOOTH"
);
},
{
closed = 1;
nodes = (
"1016 390 OFFCURVE",
"903 227 OFFCURVE",
"702 227 CURVE SMOOTH",
"501 227 OFFCURVE",
"384 392 OFFCURVE",
"384 695 CURVE SMOOTH",
"384 767 LINE SMOOTH",
"385 1068 OFFCURVE",
"500 1228 OFFCURVE",
"700 1228 CURVE SMOOTH",
"901 1228 OFFCURVE",
"1017 1066 OFFCURVE",
"1017 762 CURVE SMOOTH",
"1017 690 LINE SMOOTH"
);
}
);
width = 1436;
}
);
leftKerningGroup = C;
note = Ohorn;
unicode = 01A0;
},
{
glyphname = ohorn;
lastChange = "2017-04-17 15:03:23 +0000";
layers = (
{
layerId = "8F63CED7-3680-4993-9CF4-CD4CD6484F7E";
paths = (
{
closed = 1;
nodes = (
"1090 656 OFFCURVE",
"1070 750 OFFCURVE",
"1031 832 CURVE",
"1148 885 OFFCURVE",
"1207 1002 OFFCURVE",
"1207 1183 CURVE",
"1032 1183 LINE",
"1032 1070 OFFCURVE",
"1015 987 OFFCURVE",
"954 948 CURVE",
"860 1051 OFFCURVE",
"734 1102 OFFCURVE",
"576 1102 CURVE SMOOTH",
"251 1102 OFFCURVE",
"65 866 OFFCURVE",
"65 551 CURVE SMOOTH",
"65 530 LINE SMOOTH",
"65 215 OFFCURVE",
"250 -20 OFFCURVE",
"578 -20 CURVE SMOOTH",
"905 -20 OFFCURVE",
"1090 215 OFFCURVE",
"1090 530 CURVE SMOOTH",
"1090 551 LINE SMOOTH"
);
},
{
closed = 1;
nodes = (
"354 731 OFFCURVE",
"415 869 OFFCURVE",
"576 869 CURVE SMOOTH",
"740 869 OFFCURVE",
"801 723 OFFCURVE",
"801 551 CURVE SMOOTH",
"801 346 OFFCURVE",
"739 213 OFFCURVE",
"578 213 CURVE SMOOTH",
"414 213 OFFCURVE",
"354 354 OFFCURVE",
"354 530 CURVE SMOOTH"
);
}
);
width = 1191;
}
);
leftKerningGroup = c;
note = ohorn;
unicode = 01A1;
},
{
glyphname = uni01A2;
lastChange = "2017-04-17 15:03:23 +0000";
layers = (
{
layerId = "8F63CED7-3680-4993-9CF4-CD4CD6484F7E";
paths = (
{
closed = 1;
nodes = (
"1036 -20 OFFCURVE",
"1200 103 OFFCURVE",
"1267 186 CURVE",
"1267 1048 LINE",
"1416 1115 LINE",
"1416 -417 LINE",
"1705 -417 LINE",
"1705 1456 LINE",
"1486 1456 LINE",
"1208 1329 LINE",
"1121 1401 OFFCURVE",
"966 1477 OFFCURVE",
"715 1477 CURVE SMOOTH",
"340 1477 OFFCURVE",
"86 1221 OFFCURVE",
"86 773 CURVE SMOOTH",
"86 683 LINE SMOOTH",
"86 232 OFFCURVE",
"340 -20 OFFCURVE",
"715 -20 CURVE SMOOTH"
);
},
{
closed = 1;
nodes = (
"870 1235 OFFCURVE",
"938 1199 OFFCURVE",
"979 1159 CURVE",
"979 298 LINE",
"962 282 OFFCURVE",
"936 265 OFFCURVE",
"899 248 CURVE SMOOTH",
"862 231 OFFCURVE",
"807 222 OFFCURVE",
"732 222 CURVE SMOOTH",
"501 222 OFFCURVE",
"390 392 OFFCURVE",
"390 683 CURVE SMOOTH",
"391 823 LINE",
"403 1098 OFFCURVE",
"516 1235 OFFCURVE",
"729 1235 CURVE SMOOTH"
);
}
);
width = 1837;
}
);
leftKerningGroup = C;
note = uni01A2;
rightKerningGroup = H;
unicode = 01A2;
},
{
glyphname = uni01A3;
lastChange = "2017-04-17 15:03:23 +0000";
layers = (
{
layerId = "8F63CED7-3680-4993-9CF4-CD4CD6484F7E";
paths = (
{
closed = 1;
nodes = (
"1373 -417 LINE",
"1373 1082 LINE",
"1175 1082 LINE",
"908 962 LINE",
"832 1038 OFFCURVE",
"716 1102 OFFCURVE",
"565 1102 CURVE SMOOTH",
"230 1102 OFFCURVE",
"66 860 OFFCURVE",
"66 555 CURVE SMOOTH",
"66 527 LINE SMOOTH",
"66 220 OFFCURVE",
"231 -20 OFFCURVE",
"566 -20 CURVE SMOOTH",
"785 -20 OFFCURVE",
"907 77 OFFCURVE",
"982 194 CURVE",
"982 706 LINE",
"1084 750 LINE",
"1084 -417 LINE"
);
},
{
closed = 1;
nodes = (
"402 213 OFFCURVE",
"356 344 OFFCURVE",
"356 527 CURVE SMOOTH",
"356 731 OFFCURVE",
"392 869 OFFCURVE",
"560 869 CURVE SMOOTH",
"615 869 OFFCURVE",
"660 851 OFFCURVE",
"693 814 CURVE",
"693 260 LINE",
"660 229 OFFCURVE",
"616 213 OFFCURVE",
"561 213 CURVE SMOOTH"
);
}
);
width = 1487;
}
);
note = uni01A3;
unicode = 01A3;
},
{
glyphname = uni01A4;
lastChange = "2017-04-17 15:03:23 +0000";
layers = (
{
layerId = "8F63CED7-3680-4993-9CF4-CD4CD6484F7E";
paths = (
{
closed = 1;
nodes = (
"37 1037 OFFCURVE",
"43 989 OFFCURVE",
"54 943 CURVE",
"294 943 LINE",
"288 978 OFFCURVE",
"285 1006 OFFCURVE",
"285 1029 CURVE SMOOTH",
"285 1122 OFFCURVE",
"318 1212 OFFCURVE",
"435 1213 CURVE",
"435 0 LINE",
"735 0 LINE",
"735 514 LINE",
"1003 514 LINE SMOOTH",
"1347 514 OFFCURVE",
"1550 694 OFFCURVE",
"1550 975 CURVE SMOOTH",
"1550 1254 OFFCURVE",
"1347 1456 OFFCURVE",
"1003 1456 CURVE SMOOTH",
"435 1456 LINE",
"435 1456 LINE SMOOTH",
"179 1456 OFFCURVE",
"37 1321 OFFCURVE",
"37 1088 CURVE SMOOTH"
);
},
{
closed = 1;
nodes = (
"1175 1213 OFFCURVE",
"1247 1100 OFFCURVE",
"1247 973 CURVE SMOOTH",
"1247 846 OFFCURVE",
"1175 756 OFFCURVE",
"1003 756 CURVE SMOOTH",
"735 756 LINE",
"735 1213 LINE",
"1003 1213 LINE SMOOTH"
);
}
);
width = 1626;
}
);
note = uni01A4;
rightKerningGroup = P;
unicode = 01A4;
},
{
glyphname = uni01A5;
lastChange = "2017-04-17 15:03:23 +0000";
layers = (
{
layerId = "8F63CED7-3680-4993-9CF4-CD4CD6484F7E";
paths = (
{
closed = 1;
nodes = (
"937 -20 OFFCURVE",
"1086 217 OFFCURVE",
"1086 532 CURVE SMOOTH",
"1086 553 LINE SMOOTH",
"1086 882 OFFCURVE",
"938 1102 OFFCURVE",
"663 1102 CURVE SMOOTH",
"556 1102 OFFCURVE",
"468 1064 OFFCURVE",
"401 989 CURVE",
"401 1067 LINE SMOOTH",
"401 1179 OFFCURVE",
"486 1208 OFFCURVE",
"566 1208 CURVE SMOOTH",
"585 1208 OFFCURVE",
"610 1206 OFFCURVE",
"639 1201 CURVE",
"639 1395 LINE",
"597 1405 OFFCURVE",
"547 1410 OFFCURVE",
"488 1410 CURVE SMOOTH",
"432 1410 OFFCURVE",
"376 1402 OFFCURVE",
"319 1385 CURVE SMOOTH",
"205 1352 OFFCURVE",
"116 1265 OFFCURVE",
"111 1082 CURVE",
"111 1082 LINE",
"111 -416 LINE",
"401 -416 LINE",
"401 95 LINE",
"470 18 OFFCURVE",
"558 -20 OFFCURVE",
"666 -20 CURVE SMOOTH"
);
},
{
closed = 1;
nodes = (
"737 868 OFFCURVE",
"797 732 OFFCURVE",
"797 553 CURVE SMOOTH",
"797 349 OFFCURVE",
"741 213 OFFCURVE",
"590 213 CURVE SMOOTH",
"500 213 OFFCURVE",
"437 249 OFFCURVE",
"401 320 CURVE",
"401 763 LINE",
"436 833 OFFCURVE",
"498 868 OFFCURVE",
"588 868 CURVE SMOOTH"
);
}
);
width = 1153;
}
);
note = uni01A5;
unicode = 01A5;
},
{
glyphname = uni01A6;
lastChange = "2017-04-17 15:03:23 +0000";
layers = (
{
layerId = "8F63CED7-3680-4993-9CF4-CD4CD6484F7E";
paths = (
{
closed = 1;
nodes = (
"1110 682 OFFCURVE",
"1210 805 OFFCURVE",
"1210 1016 CURVE SMOOTH",
"1210 1301 OFFCURVE",
"1009 1453 OFFCURVE",
"681 1456 CURVE SMOOTH",
"431 1456 LINE",
"431 1560 LINE",
"131 1560 LINE",
"131 1456 LINE",
"130 1456 LINE",
"130 0 LINE",
"431 0 LINE",
"431 534 LINE",
"670 534 LINE",
"1123 -352 LINE",
"1446 -352 LINE",
"1446 -338 LINE",
"950 610 LINE"
);
},
{
closed = 1;
nodes = (
"833 1213 OFFCURVE",
"909 1128 OFFCURVE",
"909 993 CURVE SMOOTH",
"909 862 OFFCURVE",
"829 776 OFFCURVE",
"672 776 CURVE SMOOTH",
"431 776 LINE",
"431 1213 LINE",
"672 1213 LINE SMOOTH"
);
}
);
width = 1415;
}
);
note = uni01A6;
unicode = 01A6;
},
{
glyphname = uni01A7;
lastChange = "2017-04-17 15:03:23 +0000";
layers = (
{
layerId = "8F63CED7-3680-4993-9CF4-CD4CD6484F7E";
paths = (
{
closed = 1;
nodes = (
"373 432 OFFCURVE",
"391 473 OFFCURVE",
"426 506 CURVE SMOOTH",
"461 539 OFFCURVE",
"537 573 OFFCURVE",
"652 610 CURVE SMOOTH",
"927 698 OFFCURVE",
"1145 817 OFFCURVE",
"1145 1069 CURVE SMOOTH",
"1145 1313 OFFCURVE",
"922 1476 OFFCURVE",
"607 1476 CURVE SMOOTH",
"284 1476 OFFCURVE",
"73 1288 OFFCURVE",
"73 1027 CURVE",
"373 1027 LINE",
"373 1150 OFFCURVE",
"450 1237 OFFCURVE",
"613 1237 CURVE SMOOTH",
"769 1237 OFFCURVE",
"845 1161 OFFCURVE",
"845 1068 CURVE SMOOTH",
"845 972 OFFCURVE",
"744 914 OFFCURVE",
"556 857 CURVE SMOOTH",
"241 761 OFFCURVE",
"72 625 OFFCURVE",
"72 384 CURVE SMOOTH",
"72 129 OFFCURVE",
"280 -20 OFFCURVE",
"600 -20 CURVE SMOOTH",
"697 -20 OFFCURVE",
"790 -3 OFFCURVE",
"881 31 CURVE SMOOTH",
"1061 99 OFFCURVE",
"1190 239 OFFCURVE",
"1190 459 CURVE",
"888 459 LINE",
"888 282 OFFCURVE",
"772 218 OFFCURVE",
"600 218 CURVE SMOOTH",
"445 218 OFFCURVE",
"373 289 OFFCURVE",
"373 382 CURVE SMOOTH"
);
}
);
width = 1259;
}
);
note = uni01A7;
unicode = 01A7;
},
{
glyphname = uni01A8;
lastChange = "2017-04-17 15:03:23 +0000";
layers = (
{
layerId = "8F63CED7-3680-4993-9CF4-CD4CD6484F7E";
paths = (
{
closed = 1;
nodes = (
"356 331 OFFCURVE",
"370 357 OFFCURVE",
"399 378 CURVE SMOOTH",
"428 399 OFFCURVE",
"487 419 OFFCURVE",
"578 438 CURVE SMOOTH",
"803 486 OFFCURVE",
"963 581 OFFCURVE",
"963 766 CURVE SMOOTH",
"963 946 OFFCURVE",
"801 1102 OFFCURVE",
"532 1102 CURVE SMOOTH",
"251 1102 OFFCURVE",
"79 954 OFFCURVE",
"79 753 CURVE",
"368 753 LINE",
"368 836 OFFCURVE",
"419 897 OFFCURVE",
"532 897 CURVE SMOOTH",
"629 897 OFFCURVE",
"685 847 OFFCURVE",
"685 780 CURVE SMOOTH",
"685 749 OFFCURVE",
"671 724 OFFCURVE",
"643 704 CURVE SMOOTH",
"614 684 OFFCURVE",
"563 667 OFFCURVE",
"489 652 CURVE SMOOTH",
"248 604 OFFCURVE",
"75 526 OFFCURVE",
"75 311 CURVE SMOOTH",
"75 120 OFFCURVE",
"253 -20 OFFCURVE",
"530 -20 CURVE SMOOTH",
"834 -20 OFFCURVE",
"998 169 OFFCURVE",
"998 345 CURVE",
"723 345 LINE",
"718 232 OFFCURVE",
"628 186 OFFCURVE",
"524 186 CURVE SMOOTH",
"412 186 OFFCURVE",
"356 224 OFFCURVE",
"356 300 CURVE SMOOTH"
);
}
);
width = 1054;
}
);
note = uni01A8;
unicode = 01A8;
},
{
glyphname = uni01AA;
lastChange = "2017-04-17 15:03:23 +0000";
layers = (
{
layerId = "8F63CED7-3680-4993-9CF4-CD4CD6484F7E";
paths = (
{
closed = 1;
nodes = (
"1030 -189 OFFCURVE",
"1002 -192 OFFCURVE",
"973 -192 CURVE SMOOTH",
"882 -192 OFFCURVE",
"836 -137 OFFCURVE",
"836 -27 CURVE SMOOTH",
"836 1174 LINE SMOOTH",
"836 1395 OFFCURVE",
"655 1575 OFFCURVE",
"434 1575 CURVE SMOOTH",
"214 1575 OFFCURVE",
"35 1395 OFFCURVE",
"35 1174 CURVE SMOOTH",
"35 953 OFFCURVE",
"214 774 OFFCURVE",
"434 774 CURVE SMOOTH",
"472 774 OFFCURVE",
"509 779 OFFCURVE",
"546 790 CURVE",
"546 -27 LINE SMOOTH",
"546 -287 OFFCURVE",
"682 -429 OFFCURVE",
"915 -429 CURVE SMOOTH",
"966 -429 OFFCURVE",
"1014 -423 OFFCURVE",
"1059 -412 CURVE",
"1059 -183 LINE"
);
},
{
closed = 1;
nodes = (
"353 1023 OFFCURVE",
"289 1074 OFFCURVE",
"289 1175 CURVE SMOOTH",
"289 1278 OFFCURVE",
"353 1329 OFFCURVE",
"436 1329 CURVE SMOOTH",
"516 1329 OFFCURVE",
"580 1278 OFFCURVE",
"580 1175 CURVE SMOOTH",
"580 1074 OFFCURVE",
"516 1023 OFFCURVE",
"436 1023 CURVE SMOOTH"
);
}
);
width = 1074;
}
);
note = uni01AA;
unicode = 01AA;
},
{
glyphname = uni01AB;
lastChange = "2017-04-17 15:03:23 +0000";
layers = (
{
layerId = "8F63CED7-3680-4993-9CF4-CD4CD6484F7E";
paths = (
{
closed = 1;
nodes = (
"496 218 OFFCURVE",
"458 239 OFFCURVE",
"458 330 CURVE SMOOTH",
"458 871 LINE",
"642 871 LINE",
"642 1082 LINE",
"458 1082 LINE",
"458 1349 LINE",
"169 1349 LINE",
"169 1082 LINE",
"10 1082 LINE",
"10 871 LINE",
"169 871 LINE",
"169 300 LINE SMOOTH",
"169 80 OFFCURVE",
"280 -12 OFFCURVE",
"455 -19 CURVE",
"455 -58 LINE SMOOTH",
"455 -170 OFFCURVE",
"370 -199 OFFCURVE",
"289 -199 CURVE SMOOTH",
"270 -199 OFFCURVE",
"245 -197 OFFCURVE",
"216 -192 CURVE",
"216 -386 LINE",
"254 -396 OFFCURVE",
"295 -401 OFFCURVE",
"339 -401 CURVE SMOOTH",
"536 -401 OFFCURVE",
"652 -281 OFFCURVE",
"653 -62 CURVE SMOOTH",
"653 226 LINE",
"626 221 OFFCURVE",
"598 218 OFFCURVE",
"569 218 CURVE SMOOTH"
);
}
);
width = 692;
}
);
note = uni01AB;
unicode = 01AB;
},
{
glyphname = uni01AC;
lastChange = "2017-04-17 15:03:23 +0000";
layers = (
{
layerId = "8F63CED7-3680-4993-9CF4-CD4CD6484F7E";
paths = (
{
closed = 1;
nodes = (
"30 1037 OFFCURVE",
"36 989 OFFCURVE",
"47 943 CURVE",
"287 943 LINE",
"281 973 OFFCURVE",
"278 1002 OFFCURVE",
"278 1029 CURVE SMOOTH",
"278 1124 OFFCURVE",
"311 1213 OFFCURVE",
"432 1213 CURVE SMOOTH",
"650 1213 LINE",
"650 0 LINE",
"951 0 LINE",
"951 1213 LINE",
"1396 1213 LINE",
"1396 1456 LINE",
"432 1456 LINE SMOOTH",
"172 1456 OFFCURVE",
"30 1321 OFFCURVE",
"30 1088 CURVE SMOOTH"
);
}
);
width = 1437;
}
);
note = uni01AC;
unicode = 01AC;
},
{
glyphname = uni01AD;
lastChange = "2017-04-17 15:03:23 +0000";
layers = (
{
layerId = "8F63CED7-3680-4993-9CF4-CD4CD6484F7E";
paths = (
{
closed = 1;
nodes = (
"653 1373 OFFCURVE",
"678 1371 OFFCURVE",
"701 1366 CURVE",
"701 1560 LINE",
"659 1570 OFFCURVE",
"609 1575 OFFCURVE",
"550 1575 CURVE SMOOTH",
"491 1575 OFFCURVE",
"433 1566 OFFCURVE",
"376 1549 CURVE SMOOTH",
"260 1514 OFFCURVE",
"174 1423 OFFCURVE",
"173 1238 CURVE SMOOTH",
"173 1082 LINE",
"15 1082 LINE",
"15 871 LINE",
"173 871 LINE",
"173 308 LINE SMOOTH",
"173 73 OFFCURVE",
"294 -20 OFFCURVE",
"483 -20 CURVE SMOOTH",
"545 -20 OFFCURVE",
"603 -11 OFFCURVE",
"657 7 CURVE",
"657 226 LINE",
"630 221 OFFCURVE",
"602 218 OFFCURVE",
"573 218 CURVE SMOOTH",
"500 218 OFFCURVE",
"462 243 OFFCURVE",
"462 338 CURVE SMOOTH",
"462 871 LINE",
"647 871 LINE",
"647 1082 LINE",
"462 1082 LINE",
"462 1233 LINE SMOOTH",
"462 1344 OFFCURVE",
"547 1373 OFFCURVE",
"627 1373 CURVE SMOOTH"
);
}
);
width = 746;
}
);
note = uni01AD;
unicode = 01AD;
},
{
glyphname = uni01AE;
lastChange = "2017-04-17 15:03:23 +0000";
layers = (
{
layerId = "8F63CED7-3680-4993-9CF4-CD4CD6484F7E";
paths = (
{
closed = 1;
nodes = (
"481 -35 LINE SMOOTH",
"481 -295 OFFCURVE",
"625 -437 OFFCURVE",
"862 -437 CURVE SMOOTH",
"914 -437 OFFCURVE",
"962 -431 OFFCURVE",
"1005 -420 CURVE",
"990 -179 LINE",
"957 -187 OFFCURVE",
"924 -191 OFFCURVE",
"891 -191 CURVE SMOOTH",
"818 -191 OFFCURVE",
"781 -139 OFFCURVE",
"781 -35 CURVE SMOOTH",
"781 1213 LINE",
"1226 1213 LINE",
"1226 1456 LINE",
"41 1456 LINE",
"41 1213 LINE",
"481 1213 LINE"
);
}
);
width = 1267;
}
);
leftKerningGroup = T;
note = uni01AE;
rightKerningGroup = T;
unicode = 01AE;
},
{
glyphname = Uhorn;
lastChange = "2017-04-17 15:03:23 +0000";
layers = (
{
layerId = "8F63CED7-3680-4993-9CF4-CD4CD6484F7E";
paths = (
{
closed = 1;
nodes = (
"998 -20 OFFCURVE",
"1233 157 OFFCURVE",
"1233 496 CURVE SMOOTH",
"1233 1071 LINE",
"1529 1084 OFFCURVE",
"1621 1252 OFFCURVE",
"1621 1537 CURVE",
"1428 1537 LINE",
"1428 1356 OFFCURVE",
"1408 1243 OFFCURVE",
"1233 1230 CURVE",
"1233 1456 LINE",
"932 1456 LINE",
"932 483 LINE SMOOTH",
"928 309 OFFCURVE",
"842 222 OFFCURVE",
"675 222 CURVE SMOOTH",
"514 222 OFFCURVE",
"417 304 OFFCURVE",
"417 496 CURVE SMOOTH",
"417 1456 LINE",
"116 1456 LINE",
"116 496 LINE SMOOTH",
"116 157 OFFCURVE",
"348 -20 OFFCURVE",
"675 -20 CURVE SMOOTH"
);
}
);
width = 1459;
}
);
note = Uhorn;
unicode = 01AF;
},
{
glyphname = uhorn;
lastChange = "2017-04-17 15:03:23 +0000";
layers = (
{
layerId = "8F63CED7-3680-4993-9CF4-CD4CD6484F7E";
paths = (
{
closed = 1;
nodes = (
"1040 804 LINE",
"1263 829 OFFCURVE",
"1335 956 OFFCURVE",
"1335 1177 CURVE",
"1163 1177 LINE",
"1163 1045 OFFCURVE",
"1149 968 OFFCURVE",
"1040 944 CURVE",
"1040 1082 LINE",
"750 1082 LINE",
"750 318 LINE",
"713 249 OFFCURVE",
"645 215 OFFCURVE",
"547 215 CURVE SMOOTH",
"458 215 OFFCURVE",
"394 260 OFFCURVE",
"394 380 CURVE SMOOTH",
"394 1082 LINE",
"105 1082 LINE",
"105 378 LINE SMOOTH",
"106 95 OFFCURVE",
"252 -20 OFFCURVE",
"464 -20 CURVE SMOOTH",
"591 -20 OFFCURVE",
"689 24 OFFCURVE",
"760 111 CURVE",
"768 0 LINE",
"1040 0 LINE"
);
}
);
width = 1249;
}
);
leftKerningGroup = u;
note = uhorn;
unicode = 01B0;
},
{
glyphname = uni01B1;
lastChange = "2017-04-17 15:03:23 +0000";
layers = (
{
layerId = "8F63CED7-3680-4993-9CF4-CD4CD6484F7E";
paths = (
{
closed = 1;
nodes = (
"925 349 OFFCURVE",
"834 225 OFFCURVE",
"683 225 CURVE SMOOTH",
"531 225 OFFCURVE",
"440 349 OFFCURVE",
"440 592 CURVE SMOOTH",
"440 699 LINE SMOOTH",
"441 854 OFFCURVE",
"459 971 OFFCURVE",
"494 1052 CURVE SMOOTH",
"528 1132 OFFCURVE",
"572 1183 OFFCURVE",
"627 1206 CURVE",
"627 1456 LINE",
"123 1456 LINE",
"123 1213 LINE",
"341 1213 LINE",
"205 1090 OFFCURVE",
"105 898 OFFCURVE",
"105 679 CURVE SMOOTH",
"105 594 LINE SMOOTH",
"105 234 OFFCURVE",
"340 -20 OFFCURVE",
"683 -20 CURVE SMOOTH",
"1026 -20 OFFCURVE",
"1260 234 OFFCURVE",
"1260 594 CURVE SMOOTH",
"1260 679 LINE SMOOTH",
"1260 898 OFFCURVE",
"1160 1090 OFFCURVE",
"1023 1213 CURVE",
"1243 1213 LINE",
"1243 1456 LINE",
"731 1456 LINE",
"731 1206 LINE",
"789 1183 OFFCURVE",
"836 1131 OFFCURVE",
"872 1049 CURVE SMOOTH",
"907 967 OFFCURVE",
"925 844 OFFCURVE",
"925 679 CURVE SMOOTH",
"925 592 LINE SMOOTH"
);
}
);
width = 1365;
}
);
note = uni01B1;
unicode = 01B1;
},
{
glyphname = uni01B2;
lastChange = "2017-04-17 15:03:23 +0000";
layers = (
{
layerId = "8F63CED7-3680-4993-9CF4-CD4CD6484F7E";
paths = (
{
closed = 1;
nodes = (
"999 -20 OFFCURVE",
"1233 157 OFFCURVE",
"1233 496 CURVE SMOOTH",
"1233 1073 LINE SMOOTH",
"1233 1333 OFFCURVE",
"1087 1475 OFFCURVE",
"854 1475 CURVE SMOOTH",
"803 1475 OFFCURVE",
"755 1469 OFFCURVE",
"710 1458 CURVE",
"710 1219 LINE",
"741 1224 OFFCURVE",
"769 1227 OFFCURVE",
"795 1227 CURVE SMOOTH",
"890 1227 OFFCURVE",
"933 1194 OFFCURVE",
"933 1073 CURVE SMOOTH",
"933 482 LINE SMOOTH",
"929 309 OFFCURVE",
"843 222 OFFCURVE",
"676 222 CURVE SMOOTH",
"515 222 OFFCURVE",
"418 304 OFFCURVE",
"418 496 CURVE SMOOTH",
"418 1456 LINE",
"117 1456 LINE",
"117 496 LINE SMOOTH",
"117 157 OFFCURVE",
"349 -20 OFFCURVE",
"676 -20 CURVE SMOOTH"
);
}
);
width = 1350;
}
);
note = uni01B2;
unicode = 01B2;
},
{
glyphname = uni01B3;
lastChange = "2017-04-17 15:03:23 +0000";
layers = (
{
layerId = "8F63CED7-3680-4993-9CF4-CD4CD6484F7E";
paths = (
{
closed = 1;
nodes = (
"1099 1132 OFFCURVE",
"1140 1221 OFFCURVE",
"1219 1221 CURVE SMOOTH",
"1242 1221 OFFCURVE",
"1270 1213 OFFCURVE",
"1302 1196 CURVE",
"1409 1415 LINE",
"1329 1456 OFFCURVE",
"1245 1477 OFFCURVE",
"1158 1477 CURVE SMOOTH",
"979 1477 OFFCURVE",
"897 1367 OFFCURVE",
"770 1092 CURVE SMOOTH",
"635 798 LINE",
"332 1456 LINE",
"2 1456 LINE",
"482 530 LINE",
"482 0 LINE",
"787 0 LINE",
"787 530 LINE",
"1020 980 LINE SMOOTH"
);
}
);
width = 1401;
}
);
note = uni01B3;
unicode = 01B3;
},
{
glyphname = uni01B4;
lastChange = "2017-04-17 15:03:23 +0000";
layers = (
{
layerId = "8F63CED7-3680-4993-9CF4-CD4CD6484F7E";
paths = (
{
closed = 1;
nodes = (
"321 -437 OFFCURVE",
"382 -422 OFFCURVE",
"429 -391 CURVE SMOOTH",
"522 -330 OFFCURVE",
"568 -234 OFFCURVE",
"592 -162 CURVE SMOOTH",
"946 905 LINE SMOOTH",
"969 975 OFFCURVE",
"991 1026 OFFCURVE",
"1011 1057 CURVE SMOOTH",
"1031 1088 OFFCURVE",
"1056 1103 OFFCURVE",
"1086 1103 CURVE SMOOTH",
"1109 1103 OFFCURVE",
"1140 1094 OFFCURVE",
"1178 1077 CURVE",
"1244 1257 LINE",
"1171 1315 OFFCURVE",
"1093 1344 OFFCURVE",
"1010 1344 CURVE SMOOTH",
"805 1344 OFFCURVE",
"746 1166 OFFCURVE",
"690 981 CURVE SMOOTH",
"514 398 LINE",
"504 450 LINE",
"315 1082 LINE",
"4 1082 LINE",
"383 -2 LINE",
"349 -91 LINE SMOOTH",
"317 -170 OFFCURVE",
"271 -200 OFFCURVE",
"163 -200 CURVE SMOOTH",
"118 -199 LINE",
"118 -418 LINE",
"166 -431 OFFCURVE",
"209 -437 OFFCURVE",
"246 -437 CURVE SMOOTH"
);
}
);
width = 1225;
}
);
note = uni01B4;
unicode = 01B4;
},
{
glyphname = uni01B5;
lastChange = "2017-04-17 15:03:23 +0000";
layers = (
{
layerId = "8F63CED7-3680-4993-9CF4-CD4CD6484F7E";
paths = (
{
closed = 1;
nodes = (
"532 835 LINE",
"140 835 LINE",
"140 652 LINE",
"405 652 LINE",
"74 176 LINE",
"74 0 LINE",
"1182 0 LINE",
"1182 242 LINE",
"449 242 LINE",
"731 652 LINE",
"1116 652 LINE",
"1116 835 LINE",
"857 835 LINE",
"1166 1284 LINE",
"1166 1456 LINE",
"74 1456 LINE",
"74 1213 LINE",
"794 1213 LINE"
);
}
);
width = 1242;
}
);
note = uni01B5;
unicode = 01B5;
},
{
glyphname = uni01B6;
lastChange = "2017-04-17 15:03:23 +0000";
layers = (
{
layerId = "8F63CED7-3680-4993-9CF4-CD4CD6484F7E";
paths = (
{
closed = 1;
nodes = (
"433 645 LINE",
"134 645 LINE",
"134 462 LINE",
"294 462 LINE",
"77 176 LINE",
"77 0 LINE",
"975 0 LINE",
"975 233 LINE",
"446 233 LINE",
"620 462 LINE",
"909 462 LINE",
"909 645 LINE",
"758 645 LINE",
"960 912 LINE",
"960 1082 LINE",
"93 1082 LINE",
"93 849 LINE",
"588 849 LINE"
);
}
);
width = 1048;
}
);
leftKerningGroup = z;
note = uni01B6;
rightKerningGroup = z;
unicode = 01B6;
},
{
glyphname = uni01B7;
lastChange = "2017-04-17 15:03:23 +0000";
layers = (
{
layerId = "8F63CED7-3680-4993-9CF4-CD4CD6484F7E";
paths = (
{
closed = 1;
nodes = (
"384 764 LINE",
"384 590 LINE",
"648 590 LINE SMOOTH",
"856 590 OFFCURVE",
"957 484 OFFCURVE",
"957 197 CURVE SMOOTH",
"957 -66 OFFCURVE",
"868 -189 OFFCURVE",
"653 -189 CURVE SMOOTH",
"466 -189 OFFCURVE",
"385 -106 OFFCURVE",
"368 73 CURVE",
"68 73 LINE",
"89 -222 OFFCURVE",
"296 -431 OFFCURVE",
"653 -431 CURVE SMOOTH",
"1022 -431 OFFCURVE",
"1257 -210 OFFCURVE",
"1257 197 CURVE SMOOTH",
"1257 564 OFFCURVE",
"1062 777 OFFCURVE",
"754 817 CURVE",
"1159 1288 LINE",
"1159 1456 LINE",
"75 1456 LINE",
"75 1213 LINE",
"777 1213 LINE"
);
}
);
width = 1339;
}
);
note = uni01B7;
unicode = 01B7;
},
{
glyphname = uni01B8;
lastChange = "2017-04-17 15:03:23 +0000";
layers = (
{
layerId = "8F63CED7-3680-4993-9CF4-CD4CD6484F7E";
paths = (
{
closed = 1;
nodes = (
"1262 1213 LINE",
"1262 1456 LINE",
"183 1456 LINE",
"183 1288 LINE",
"588 817 LINE",
"279 780 OFFCURVE",
"81 565 OFFCURVE",
"81 197 CURVE SMOOTH",
"81 -210 OFFCURVE",
"315 -431 OFFCURVE",
"684 -431 CURVE SMOOTH",
"1041 -431 OFFCURVE",
"1247 -222 OFFCURVE",
"1270 73 CURVE",
"969 73 LINE",
"953 -106 OFFCURVE",
"871 -189 OFFCURVE",
"684 -189 CURVE SMOOTH",
"469 -189 OFFCURVE",
"381 -66 OFFCURVE",
"381 197 CURVE SMOOTH",
"381 484 OFFCURVE",
"481 590 OFFCURVE",
"690 590 CURVE SMOOTH",
"958 590 LINE",
"958 764 LINE",
"565 1213 LINE"
);
}
);
width = 1339;
}
);
note = uni01B8;
unicode = 01B8;
},
{
glyphname = uni01B9;
lastChange = "2017-04-17 15:03:23 +0000";
layers = (
{
layerId = "8F63CED7-3680-4993-9CF4-CD4CD6484F7E";
paths = (
{
closed = 1;
nodes = (
"1043 1082 LINE",
"92 1082 LINE",
"91 891 LINE",
"448 494 LINE",
"200 451 OFFCURVE",
"60 290 OFFCURVE",
"60 33 CURVE SMOOTH",
"60 -239 OFFCURVE",
"283 -395 OFFCURVE",
"591 -395 CURVE SMOOTH",
"674 -395 OFFCURVE",
"754 -380 OFFCURVE",
"831 -351 CURVE SMOOTH",
"986 -292 OFFCURVE",
"1097 -170 OFFCURVE",
"1097 29 CURVE",
"807 29 LINE",
"807 -76 OFFCURVE",
"723 -162 OFFCURVE",
"591 -162 CURVE SMOOTH",
"438 -162 OFFCURVE",
"349 -75 OFFCURVE",
"349 38 CURVE SMOOTH",
"349 233 OFFCURVE",
"447 310 OFFCURVE",
"630 310 CURVE SMOOTH",
"766 310 LINE",
"766 493 LINE",
"429 849 LINE",
"1043 849 LINE"
);
}
);
width = 1175;
}
);
note = uni01B9;
unicode = 01B9;
},
{
glyphname = uni01BA;
lastChange = "2017-04-17 15:03:23 +0000";
layers = (
{
layerId = "8F63CED7-3680-4993-9CF4-CD4CD6484F7E";
paths = (
{
closed = 1;
nodes = (
"673 327 OFFCURVE",
"657 299 OFFCURVE",
"625 281 CURVE SMOOTH",
"592 262 OFFCURVE",
"537 245 OFFCURVE",
"458 230 CURVE SMOOTH",
"199 179 OFFCURVE",
"63 86 OFFCURVE",
"63 -105 CURVE SMOOTH",
"63 -296 OFFCURVE",
"240 -436 OFFCURVE",
"517 -436 CURVE SMOOTH",
"821 -436 OFFCURVE",
"985 -247 OFFCURVE",
"985 -71 CURVE",
"710 -71 LINE",
"705 -191 OFFCURVE",
"607 -230 OFFCURVE",
"512 -230 CURVE SMOOTH",
"411 -230 OFFCURVE",
"344 -189 OFFCURVE",
"344 -116 CURVE SMOOTH",
"344 -88 OFFCURVE",
"358 -63 OFFCURVE",
"386 -41 CURVE SMOOTH",
"414 -19 OFFCURVE",
"473 1 OFFCURVE",
"562 20 CURVE SMOOTH",
"766 63 OFFCURVE",
"950 150 OFFCURVE",
"950 350 CURVE SMOOTH",
"950 486 OFFCURVE",
"858 605 OFFCURVE",
"695 654 CURVE",
"991 916 LINE",
"991 1082 LINE",
"113 1082 LINE",
"113 849 LINE",
"536 849 LINE",
"289 643 LINE",
"289 472 LINE",
"523 472 LINE SMOOTH",
"623 471 OFFCURVE",
"673 435 OFFCURVE",
"673 364 CURVE SMOOTH"
);
}
);
width = 1070;
}
);
note = uni01BA;
unicode = 01BA;
},
{
glyphname = uni01BB;
lastChange = "2017-04-17 15:03:23 +0000";
layers = (
{
layerId = "8F63CED7-3680-4993-9CF4-CD4CD6484F7E";
paths = (
{
closed = 1;
nodes = (
"780 558 LINE",
"861 649 LINE",
"1146 649 LINE",
"1146 832 LINE",
"988 832 LINE",
"1029 910 OFFCURVE",
"1050 987 OFFCURVE",
"1050 1064 CURVE SMOOTH",
"1050 1320 OFFCURVE",
"882 1477 OFFCURVE",
"577 1477 CURVE SMOOTH",
"264 1477 OFFCURVE",
"71 1261 OFFCURVE",
"71 998 CURVE",
"360 998 LINE",
"360 1139 OFFCURVE",
"435 1244 OFFCURVE",
"572 1244 CURVE SMOOTH",
"693 1244 OFFCURVE",
"760 1164 OFFCURVE",
"760 1035 CURVE SMOOTH",
"760 976 OFFCURVE",
"733 908 OFFCURVE",
"679 832 CURVE",
"267 832 LINE",
"267 649 LINE",
"523 649 LINE",
"100 198 LINE",
"100 0 LINE",
"1097 0 LINE",
"1097 233 LINE",
"471 233 LINE"
);
}
);
width = 1226;
}
);
note = uni01BB;
unicode = 01BB;
},
{
glyphname = uni01BC;
lastChange = "2017-04-17 15:03:23 +0000";
layers = (
{
layerId = "8F63CED7-3680-4993-9CF4-CD4CD6484F7E";
paths = (
{
closed = 1;
nodes = (
"221 716 LINE",
"451 660 LINE",
"490 699 OFFCURVE",
"539 740 OFFCURVE",
"646 740 CURVE SMOOTH",
"805 740 OFFCURVE",
"879 637 OFFCURVE",
"879 484 CURVE SMOOTH",
"879 332 OFFCURVE",
"820 213 OFFCURVE",
"675 213 CURVE SMOOTH",
"551 213 OFFCURVE",
"483 277 OFFCURVE",
"470 406 CURVE",
"184 406 LINE",
"191 137 OFFCURVE",
"425 -20 OFFCURVE",
"677 -20 CURVE SMOOTH",
"1012 -20 OFFCURVE",
"1168 209 OFFCURVE",
"1168 468 CURVE SMOOTH",
"1168 776 OFFCURVE",
"1007 957 OFFCURVE",
"724 957 CURVE SMOOTH",
"645 957 OFFCURVE",
"573 939 OFFCURVE",
"506 902 CURVE",
"542 1216 LINE",
"1120 1216 LINE",
"1120 1456 LINE",
"61 1456 LINE",
"61 1216 LINE",
"277 1216 LINE"
);
}
);
width = 1248;
}
);
note = uni01BC;
unicode = 01BC;
},
{
glyphname = uni01BD;
lastChange = "2017-04-17 15:03:23 +0000";
layers = (
{
layerId = "8F63CED7-3680-4993-9CF4-CD4CD6484F7E";
paths = (
{
closed = 1;
nodes = (
"170 475 LINE",
"429 462 LINE",
"464 500 OFFCURVE",
"519 519 OFFCURVE",
"596 519 CURVE SMOOTH",
"714 519 OFFCURVE",
"773 469 OFFCURVE",
"773 368 CURVE SMOOTH",
"773 276 OFFCURVE",
"720 216 OFFCURVE",
"597 216 CURVE SMOOTH",
"478 216 OFFCURVE",
"416 256 OFFCURVE",
"411 336 CURVE",
"124 319 LINE",
"124 241 OFFCURVE",
"147 177 OFFCURVE",
"193 128 CURVE SMOOTH",
"285 29 OFFCURVE",
"440 -17 OFFCURVE",
"597 -17 CURVE SMOOTH",
"926 -17 OFFCURVE",
"1062 139 OFFCURVE",
"1062 352 CURVE SMOOTH",
"1062 467 OFFCURVE",
"1028 556 OFFCURVE",
"960 620 CURVE SMOOTH",
"824 747 OFFCURVE",
"585 730 OFFCURVE",
"458 665 CURVE",
"485 852 LINE",
"990 852 LINE",
"990 1082 LINE",
"53 1082 LINE",
"53 852 LINE",
"219 852 LINE"
);
}
);
width = 1122;
}
);
note = uni01BD;
unicode = 01BD;
},
{
glyphname = uni01BE;
lastChange = "2017-04-17 15:03:23 +0000";
layers = (
{
layerId = "8F63CED7-3680-4993-9CF4-CD4CD6484F7E";
paths = (
{
closed = 1;
nodes = (
"978 472 OFFCURVE",
"894 535 OFFCURVE",
"800 580 CURVE SMOOTH",
"706 624 OFFCURVE",
"621 675 OFFCURVE",
"621 814 CURVE SMOOTH",
"621 871 LINE",
"805 871 LINE",
"805 1082 LINE",
"621 1082 LINE",
"621 1349 LINE",
"332 1349 LINE",
"332 1082 LINE",
"173 1082 LINE",
"173 871 LINE",
"332 871 LINE",
"332 811 LINE SMOOTH",
"333 626 OFFCURVE",
"417 535 OFFCURVE",
"514 479 CURVE SMOOTH",
"611 422 OFFCURVE",
"697 384 OFFCURVE",
"697 300 CURVE SMOOTH",
"697 229 OFFCURVE",
"632 186 OFFCURVE",
"529 186 CURVE SMOOTH",
"434 186 OFFCURVE",
"336 226 OFFCURVE",
"331 345 CURVE",
"56 345 LINE",
"56 169 OFFCURVE",
"220 -20 OFFCURVE",
"523 -20 CURVE SMOOTH",
"802 -20 OFFCURVE",
"978 120 OFFCURVE",
"978 311 CURVE SMOOTH"
);
}
);
width = 1054;
}
);
note = uni01BE;
unicode = 01BE;
},
{
glyphname = uni01BF;
lastChange = "2017-04-17 15:03:23 +0000";
layers = (
{
layerId = "8F63CED7-3680-4993-9CF4-CD4CD6484F7E";
paths = (
{
closed = 1;
nodes = (
"1086 882 OFFCURVE",
"938 1102 OFFCURVE",
"663 1102 CURVE SMOOTH",
"550 1102 OFFCURVE",
"459 1060 OFFCURVE",
"390 976 CURVE",
"379 1082 LINE",
"111 1082 LINE",
"111 -416 LINE",
"401 -416 LINE",
"401 -171 LINE",
"538 -132 OFFCURVE",
"657 -85 OFFCURVE",
"760 -28 CURVE SMOOTH",
"965 85 OFFCURVE",
"1086 257 OFFCURVE",
"1086 532 CURVE SMOOTH",
"1086 553 LINE SMOOTH"
);
},
{
closed = 1;
nodes = (
"737 868 OFFCURVE",
"797 732 OFFCURVE",
"797 553 CURVE SMOOTH",
"797 532 LINE SMOOTH",
"797 273 OFFCURVE",
"637 122 OFFCURVE",
"401 57 CURVE",
"401 763 LINE",
"436 833 OFFCURVE",
"498 868 OFFCURVE",
"588 868 CURVE SMOOTH"
);
}
);
width = 1153;
}
);
note = uni01BF;
unicode = 01BF;
},
{
glyphname = uni01C0;
lastChange = "2017-04-17 15:03:23 +0000";
layers = (
{
layerId = "8F63CED7-3680-4993-9CF4-CD4CD6484F7E";
paths = (
{
closed = 1;
nodes = (
"153 0 LINE",
"328 0 LINE",
"328 1456 LINE",
"153 1456 LINE"
);
}
);
width = 481;
}
);
note = uni01C0;
unicode = 01C0;
},
{
glyphname = uni01C5;
lastChange = "2017-04-17 15:03:23 +0000";
layers = (
{
layerId = "8F63CED7-3680-4993-9CF4-CD4CD6484F7E";
paths = (
{
closed = 1;
nodes = (
"1394 1509 LINE",
"1674 1252 LINE",
"1871 1252 LINE",
"2151 1509 LINE",
"2151 1525 LINE",
"1905 1525 LINE",
"1773 1387 LINE",
"1641 1525 LINE",
"1394 1525 LINE"
);
},
{
closed = 1;
nodes = (
"972 0 OFFCURVE",
"1244 279 OFFCURVE",
"1244 695 CURVE SMOOTH",
"1244 760 LINE SMOOTH",
"1244 1176 OFFCURVE",
"971 1456 OFFCURVE",
"579 1456 CURVE SMOOTH",
"130 1456 LINE",
"130 0 LINE",
"575 0 LINE SMOOTH"
);
},
{
closed = 1;
nodes = (
"823 1209 OFFCURVE",
"939 1058 OFFCURVE",
"939 762 CURVE SMOOTH",
"939 686 LINE SMOOTH",
"936 401 OFFCURVE",
"811 242 OFFCURVE",
"575 242 CURVE SMOOTH",
"431 242 LINE",
"431 1213 LINE",
"588 1213 LINE SMOOTH"
);
},
{
closed = 1;
nodes = (
"1318 176 LINE",
"1318 0 LINE",
"2216 0 LINE",
"2216 233 LINE",
"1687 233 LINE",
"2200 912 LINE",
"2200 1082 LINE",
"1334 1082 LINE",
"1334 849 LINE",
"1829 849 LINE"
);
}
);
width = 2286;
}
);
note = uni01C5;
rightKerningGroup = z;
unicode = 01C5;
},
{
glyphname = uni01C6;
lastChange = "2017-04-17 15:03:23 +0000";
layers = (
{
layerId = "8F63CED7-3680-4993-9CF4-CD4CD6484F7E";
paths = (
{
closed = 1;
nodes = (
"1041 1560 LINE",
"751 1560 LINE",
"751 985 LINE",
"683 1063 OFFCURVE",
"596 1102 OFFCURVE",
"491 1102 CURVE SMOOTH",
"220 1102 OFFCURVE",
"66 878 OFFCURVE",
"66 549 CURVE SMOOTH",
"66 528 LINE SMOOTH",
"66 213 OFFCURVE",
"221 -20 OFFCURVE",
"489 -20 CURVE SMOOTH",
"605 -20 OFFCURVE",
"699 27 OFFCURVE",
"770 121 CURVE",
"790 0 LINE",
"1041 0 LINE"
);
},
{
closed = 1;
nodes = (
"1204 1509 LINE",
"1484 1252 LINE",
"1681 1252 LINE",
"1961 1509 LINE",
"1961 1525 LINE",
"1715 1525 LINE",
"1583 1387 LINE",
"1451 1525 LINE",
"1204 1525 LINE"
);
},
{
closed = 1;
nodes = (
"1128 176 LINE",
"1128 0 LINE",
"2026 0 LINE",
"2026 233 LINE",
"1497 233 LINE",
"2010 912 LINE",
"2010 1082 LINE",
"1144 1082 LINE",
"1144 849 LINE",
"1639 849 LINE"
);
},
{
closed = 1;
nodes = (
"356 736 OFFCURVE",
"413 868 OFFCURVE",
"564 868 CURVE SMOOTH",
"652 868 OFFCURVE",
"714 831 OFFCURVE",
"751 756 CURVE",
"751 327 LINE",
"713 252 OFFCURVE",
"650 215 OFFCURVE",
"562 215 CURVE SMOOTH",
"410 215 OFFCURVE",
"356 355 OFFCURVE",
"356 528 CURVE SMOOTH"
);
}
);
width = 2096;
}
);
leftKerningGroup = c;
note = uni01C6;
rightKerningGroup = z;
unicode = 01C6;
},
{
glyphname = uni01E4;
lastChange = "2017-04-17 15:03:23 +0000";
layers = (
{
layerId = "8F63CED7-3680-4993-9CF4-CD4CD6484F7E";
paths = (
{
closed = 1;
nodes = (
"1448 326 LINE",
"1448 483 LINE",
"1283 483 LINE",
"1283 765 LINE",
"710 765 LINE",
"710 545 LINE",
"982 545 LINE",
"982 483 LINE",
"748 483 LINE",
"748 326 LINE",
"982 326 LINE",
"982 294 LINE",
"966 279 OFFCURVE",
"940 263 OFFCURVE",
"904 247 CURVE SMOOTH",
"868 230 OFFCURVE",
"814 222 OFFCURVE",
"742 222 CURVE SMOOTH",
"513 222 OFFCURVE",
"399 377 OFFCURVE",
"399 684 CURVE SMOOTH",
"400 827 LINE",
"412 1099 OFFCURVE",
"516 1235 OFFCURVE",
"713 1235 CURVE SMOOTH",
"894 1235 OFFCURVE",
"967 1140 OFFCURVE",
"990 993 CURVE",
"1282 993 LINE",
"1250 1276 OFFCURVE",
"1082 1477 OFFCURVE",
"705 1477 CURVE SMOOTH",
"336 1477 OFFCURVE",
"94 1220 OFFCURVE",
"94 771 CURVE SMOOTH",
"94 684 LINE SMOOTH",
"94 235 OFFCURVE",
"349 -20 OFFCURVE",
"726 -20 CURVE SMOOTH",
"1046 -20 OFFCURVE",
"1214 101 OFFCURVE",
"1283 184 CURVE",
"1283 326 LINE"
);
}
);
width = 1447;
}
);
note = uni01E4;
unicode = 01E4;
},
{
glyphname = uni01E5;
lastChange = "2017-04-17 15:03:23 +0000";
layers = (
{
layerId = "8F63CED7-3680-4993-9CF4-CD4CD6484F7E";
paths = (
{
closed = 1;
nodes = (
"1062 -54 LINE",
"1062 1082 LINE",
"800 1082 LINE",
"789 980 LINE",
"723 1061 OFFCURVE",
"630 1102 OFFCURVE",
"511 1102 CURVE SMOOTH",
"240 1102 OFFCURVE",
"73 878 OFFCURVE",
"73 549 CURVE SMOOTH",
"73 520 LINE SMOOTH",
"76 211 OFFCURVE",
"242 -20 OFFCURVE",
"509 -20 CURVE SMOOTH",
"617 -20 OFFCURVE",
"705 18 OFFCURVE",
"773 95 CURVE",
"773 -54 LINE",
"44 -54 LINE",
"44 -189 LINE",
"751 -189 LINE",
"714 -268 OFFCURVE",
"640 -308 OFFCURVE",
"529 -308 CURVE SMOOTH",
"415 -308 OFFCURVE",
"322 -277 OFFCURVE",
"251 -216 CURVE",
"138 -386 LINE",
"258 -503 OFFCURVE",
"413 -531 OFFCURVE",
"542 -531 CURVE SMOOTH",
"809 -531 OFFCURVE",
"1002 -410 OFFCURVE",
"1050 -189 CURVE",
"1161 -189 LINE",
"1161 -54 LINE"
);
},
{
closed = 1;
nodes = (
"362 728 OFFCURVE",
"434 868 OFFCURVE",
"585 868 CURVE SMOOTH",
"672 868 OFFCURVE",
"735 835 OFFCURVE",
"773 768 CURVE",
"773 315 LINE",
"734 248 OFFCURVE",
"671 215 OFFCURVE",
"583 215 CURVE SMOOTH",
"431 215 OFFCURVE",
"362 355 OFFCURVE",
"362 528 CURVE SMOOTH",
"362 549 LINE SMOOTH"
);
}
);
width = 1170;
}
);
leftKerningGroup = c;
note = uni01E5;
unicode = 01E5;
},
{
glyphname = uni01EF;
lastChange = "2017-04-17 15:03:23 +0000";
layers = (
{
layerId = "8F63CED7-3680-4993-9CF4-CD4CD6484F7E";
paths = (
{
closed = 1;
nodes = (
"213 1509 LINE",
"493 1252 LINE",
"691 1252 LINE",
"971 1509 LINE",
"971 1525 LINE",
"724 1525 LINE",
"592 1387 LINE",
"460 1525 LINE",
"213 1525 LINE"
);
},
{
closed = 1;
nodes = (
"733 310 OFFCURVE",
"831 233 OFFCURVE",
"831 38 CURVE SMOOTH",
"831 -75 OFFCURVE",
"742 -162 OFFCURVE",
"589 -162 CURVE SMOOTH",
"457 -162 OFFCURVE",
"373 -76 OFFCURVE",
"373 29 CURVE",
"83 29 LINE",
"83 -70 OFFCURVE",
"108 -151 OFFCURVE",
"158 -213 CURVE SMOOTH",
"258 -338 OFFCURVE",
"424 -395 OFFCURVE",
"589 -395 CURVE SMOOTH",
"897 -395 OFFCURVE",
"1120 -239 OFFCURVE",
"1120 33 CURVE SMOOTH",
"1120 292 OFFCURVE",
"979 451 OFFCURVE",
"731 494 CURVE",
"1089 891 LINE",
"1088 1082 LINE",
"137 1082 LINE",
"137 849 LINE",
"751 849 LINE",
"414 493 LINE",
"414 310 LINE",
"550 310 LINE SMOOTH"
);
}
);
width = 1186;
}
);
note = uni01EF;
unicode = 01EF;
},
{
glyphname = uni01F6;
lastChange = "2017-04-17 15:03:23 +0000";
layers = (
{
layerId = "8F63CED7-3680-4993-9CF4-CD4CD6484F7E";
paths = (
{
closed = 1;
nodes = (
"431 866 LINE",
"431 1456 LINE",
"130 1456 LINE",
"130 0 LINE",
"431 0 LINE",
"431 624 LINE",
"1016 624 LINE",
"1016 496 LINE SMOOTH",
"1016 157 OFFCURVE",
"1218 -20 OFFCURVE",
"1545 -20 CURVE SMOOTH",
"1866 -20 OFFCURVE",
"2073 156 OFFCURVE",
"2074 493 CURVE SMOOTH",
"2074 1082 LINE",
"1774 1082 LINE",
"1774 496 LINE SMOOTH",
"1774 304 OFFCURVE",
"1706 222 OFFCURVE",
"1545 222 CURVE SMOOTH",
"1384 222 OFFCURVE",
"1316 304 OFFCURVE",
"1316 496 CURVE SMOOTH",
"1316 1456 LINE",
"1016 1456 LINE",
"1016 866 LINE"
);
}
);
width = 2189;
}
);
note = uni01F6;
unicode = 01F6;
},
{
glyphname = uni01F7;
lastChange = "2017-04-17 15:03:23 +0000";
layers = (
{
layerId = "8F63CED7-3680-4993-9CF4-CD4CD6484F7E";
paths = (
{
closed = 1;
nodes = (
"1277 1259 OFFCURVE",
"1040 1477 OFFCURVE",
"676 1477 CURVE SMOOTH",
"581 1477 OFFCURVE",
"499 1459 OFFCURVE",
"429 1423 CURVE",
"429 1456 LINE",
"130 1456 LINE",
"130 -417 LINE",
"429 -417 LINE",
"429 -149 LINE",
"966 18 OFFCURVE",
"1281 366 OFFCURVE",
"1281 787 CURVE SMOOTH",
"1281 852 LINE"
);
},
{
closed = 1;
nodes = (
"911 1234 OFFCURVE",
"977 1082 OFFCURVE",
"977 843 CURVE SMOOTH",
"977 787 LINE SMOOTH",
"977 504 OFFCURVE",
"797 241 OFFCURVE",
"429 102 CURVE",
"429 1126 LINE",
"494 1198 OFFCURVE",
"577 1234 OFFCURVE",
"676 1234 CURVE SMOOTH"
);
}
);
width = 1369;
}
);
note = uni01F7;
unicode = 01F7;
},
{
glyphname = uni021C;
lastChange = "2017-04-17 15:03:23 +0000";
layers = (
{
layerId = "8F63CED7-3680-4993-9CF4-CD4CD6484F7E";
paths = (
{
closed = 1;
nodes = (
"1147 494 OFFCURVE",
"1086 604 OFFCURVE",
"963 672 CURVE",
"1071 781 OFFCURVE",
"1125 911 OFFCURVE",
"1125 1061 CURVE SMOOTH",
"1125 1333 OFFCURVE",
"914 1475 OFFCURVE",
"587 1475 CURVE SMOOTH",
"310 1475 OFFCURVE",
"64 1325 OFFCURVE",
"64 1062 CURVE",
"364 1062 LINE",
"364 1171 OFFCURVE",
"468 1233 OFFCURVE",
"587 1233 CURVE SMOOTH",
"760 1233 OFFCURVE",
"828 1147 OFFCURVE",
"828 1026 CURVE SMOOTH",
"828 947 OFFCURVE",
"807 880 OFFCURVE",
"766 825 CURVE SMOOTH",
"683 714 OFFCURVE",
"498 631 OFFCURVE",
"169 531 CURVE",
"170 305 LINE",
"427 370 OFFCURVE",
"628 444 OFFCURVE",
"774 529 CURVE",
"822 501 OFFCURVE",
"846 441 OFFCURVE",
"846 348 CURVE SMOOTH",
"846 65 OFFCURVE",
"610 -109 OFFCURVE",
"170 -196 CURVE",
"170 -436 LINE",
"358 -408 OFFCURVE",
"526 -362 OFFCURVE",
"673 -297 CURVE SMOOTH",
"967 -168 OFFCURVE",
"1147 41 OFFCURVE",
"1147 342 CURVE SMOOTH"
);
}
);
width = 1233;
}
);
note = uni021C;
unicode = 021C;
},
{
glyphname = uni021D;
lastChange = "2017-04-17 15:03:23 +0000";
layers = (
{
layerId = "8F63CED7-3680-4993-9CF4-CD4CD6484F7E";
paths = (
{
closed = 1;
nodes = (
"965 317 OFFCURVE",
"915 412 OFFCURVE",
"816 469 CURVE",
"903 560 OFFCURVE",
"946 665 OFFCURVE",
"946 786 CURVE SMOOTH",
"946 991 OFFCURVE",
"771 1101 OFFCURVE",
"498 1101 CURVE SMOOTH",
"261 1101 OFFCURVE",
"64 978 OFFCURVE",
"64 771 CURVE",
"353 771 LINE",
"353 842 OFFCURVE",
"418 883 OFFCURVE",
"513 883 CURVE SMOOTH",
"625 883 OFFCURVE",
"657 823 OFFCURVE",
"657 748 CURVE SMOOTH",
"657 568 OFFCURVE",
"472 465 OFFCURVE",
"180 372 CURVE",
"180 161 LINE",
"371 211 OFFCURVE",
"525 270 OFFCURVE",
"642 337 CURVE",
"665 302 OFFCURVE",
"676 259 OFFCURVE",
"676 207 CURVE SMOOTH",
"676 -10 OFFCURVE",
"516 -108 OFFCURVE",
"180 -219 CURVE",
"180 -436 LINE",
"657 -344 OFFCURVE",
"965 -151 OFFCURVE",
"965 186 CURVE SMOOTH"
);
}
);
width = 1037;
}
);
note = uni021D;
unicode = 021D;
},
{
glyphname = uni0220;
lastChange = "2017-04-17 15:03:23 +0000";
layers = (
{
layerId = "8F63CED7-3680-4993-9CF4-CD4CD6484F7E";
paths = (
{
closed = 1;
nodes = (
"1199 1314 OFFCURVE",
"979 1477 OFFCURVE",
"704 1477 CURVE SMOOTH",
"604 1477 OFFCURVE",
"509 1453 OFFCURVE",
"419 1406 CURVE",
"419 1456 LINE",
"130 1456 LINE",
"130 0 LINE",
"419 0 LINE",
"419 1169 LINE",
"499 1218 OFFCURVE",
"583 1243 OFFCURVE",
"671 1243 CURVE SMOOTH",
"828 1243 OFFCURVE",
"907 1170 OFFCURVE",
"908 1023 CURVE SMOOTH",
"908 -417 LINE",
"1199 -417 LINE",
"1199 1021 LINE SMOOTH"
);
}
);
width = 1315;
}
);
note = uni0220;
unicode = 0220;
},
{
glyphname = uni0221;
lastChange = "2017-04-17 15:03:23 +0000";
layers = (
{
layerId = "8F63CED7-3680-4993-9CF4-CD4CD6484F7E";
paths = (
{
closed = 1;
nodes = (
"683 1063 OFFCURVE",
"596 1102 OFFCURVE",
"491 1102 CURVE SMOOTH",
"220 1102 OFFCURVE",
"66 878 OFFCURVE",
"66 549 CURVE SMOOTH",
"66 528 LINE SMOOTH",
"66 213 OFFCURVE",
"221 -20 OFFCURVE",
"489 -20 CURVE SMOOTH",
"595 -20 OFFCURVE",
"683 19 OFFCURVE",
"752 98 CURVE",
"752 -15 LINE",
"492 -233 LINE",
"624 -410 LINE",
"792 -263 LINE",
"843 -366 OFFCURVE",
"947 -436 OFFCURVE",
"1134 -436 CURVE SMOOTH",
"1366 -436 OFFCURVE",
"1487 -322 OFFCURVE",
"1487 -157 CURVE SMOOTH",
"1487 12 OFFCURVE",
"1367 118 OFFCURVE",
"1158 118 CURVE SMOOTH",
"1117 118 OFFCURVE",
"1078 115 OFFCURVE",
"1041 109 CURVE",
"1041 1536 LINE",
"751 1536 LINE",
"751 985 LINE"
);
},
{
closed = 1;
nodes = (
"356 736 OFFCURVE",
"413 868 OFFCURVE",
"564 868 CURVE SMOOTH",
"652 868 OFFCURVE",
"714 831 OFFCURVE",
"751 756 CURVE",
"751 327 LINE",
"713 252 OFFCURVE",
"650 215 OFFCURVE",
"562 215 CURVE SMOOTH",
"410 215 OFFCURVE",
"356 355 OFFCURVE",
"356 528 CURVE SMOOTH"
);
},
{
closed = 1;
nodes = (
"1070 -89 OFFCURVE",
"1098 -84 OFFCURVE",
"1127 -84 CURVE SMOOTH",
"1196 -84 OFFCURVE",
"1230 -111 OFFCURVE",
"1230 -164 CURVE SMOOTH",
"1230 -220 OFFCURVE",
"1186 -246 OFFCURVE",
"1137 -246 CURVE SMOOTH",
"1073 -246 OFFCURVE",
"1041 -209 OFFCURVE",
"1041 -134 CURVE SMOOTH",
"1041 -98 LINE"
);
}
);
width = 1517;
}
);
leftKerningGroup = c;
note = uni0221;
unicode = 0221;
},
{
glyphname = uni0222;
lastChange = "2017-04-17 15:03:23 +0000";
layers = (
{
layerId = "8F63CED7-3680-4993-9CF4-CD4CD6484F7E";
paths = (
{
closed = 1;
nodes = (
"1216 615 OFFCURVE",
"1159 733 OFFCURVE",
"1046 815 CURVE",
"1159 878 OFFCURVE",
"1216 977 OFFCURVE",
"1216 1110 CURVE SMOOTH",
"1216 1361 OFFCURVE",
"1038 1473 OFFCURVE",
"790 1476 CURVE",
"790 1244 LINE",
"870 1225 OFFCURVE",
"912 1195 OFFCURVE",
"912 1110 CURVE SMOOTH",
"912 990 OFFCURVE",
"825 949 OFFCURVE",
"665 949 CURVE SMOOTH",
"637 949 LINE SMOOTH",
"477 949 OFFCURVE",
"390 990 OFFCURVE",
"390 1110 CURVE SMOOTH",
"390 1195 OFFCURVE",
"432 1225 OFFCURVE",
"513 1244 CURVE",
"513 1476 LINE",
"264 1473 OFFCURVE",
"86 1361 OFFCURVE",
"86 1110 CURVE SMOOTH",
"86 977 OFFCURVE",
"143 879 OFFCURVE",
"256 814 CURVE",
"143 733 OFFCURVE",
"86 615 OFFCURVE",
"86 459 CURVE SMOOTH",
"86 147 OFFCURVE",
"322 -20 OFFCURVE",
"641 -20 CURVE SMOOTH",
"662 -20 LINE SMOOTH",
"981 -20 OFFCURVE",
"1216 148 OFFCURVE",
"1216 461 CURVE SMOOTH"
);
},
{
closed = 1;
nodes = (
"819 702 OFFCURVE",
"912 613 OFFCURVE",
"912 461 CURVE SMOOTH",
"912 308 OFFCURVE",
"819 222 OFFCURVE",
"662 222 CURVE SMOOTH",
"641 222 LINE SMOOTH",
"486 222 OFFCURVE",
"390 308 OFFCURVE",
"390 459 CURVE SMOOTH",
"390 614 OFFCURVE",
"486 702 OFFCURVE",
"641 702 CURVE SMOOTH",
"662 702 LINE SMOOTH"
);
}
);
width = 1304;
}
);
note = uni0222;
unicode = 0222;
},
